STARTFONT 2.1
COMMENT
COMMENT Converted from OpenType font "TimesNewRomanPSMT.otf" by "otf2bdf 3.0".
COMMENT
FONT -FreeType-Times New Roman-Medium-R-Normal--35-250-100-100-P-169-ISO10646-1
SIZE 25 100 100
FONTBOUNDINGBOX 58 46 -20 -11
STARTPROPERTIES 19
FOUNDRY "FreeType"
FAMILY_NAME "Times New Roman"
WEIGHT_NAME "Medium"
SLANT "R"
SETWIDTH_NAME "Normal"
ADD_STYLE_NAME ""
PIXEL_SIZE 35
POINT_SIZE 250
RESOLUTION_X 100
RESOLUTION_Y 100
SPACING "P"
AVERAGE_WIDTH 169
CHARSET_REGISTRY "ISO10646"
CHARSET_ENCODING "1"
FONT_ASCENT 31
FONT_DESCENT 7
COPYRIGHT "© 2006 The Monotype Corporation. All Rights Reserved."
_OTF_FONTFILE "TimesNewRomanPSMT.otf"
_OTF_PSNAME "TimesNewRomanPSMT"
ENDPROPERTIES
CHARS 1425
STARTCHAR 0020
ENCODING 32
SWIDTH 259 0
DWIDTH 9 0
BBX 0 0 0 0
BITMAP
ENDCHAR
STARTCHAR 0021
ENCODING 33
SWIDTH 345 0
DWIDTH 12 0
BBX 4 23 4 1
BITMAP
E0
F0
F0
F0
E0
E0
E0
E0
60
60
60
60
60
40
40
40
40
00
00
00
E0
F0
E0
ENDCHAR
STARTCHAR 0022
ENCODING 34
SWIDTH 403 0
DWIDTH 14 0
BBX 10 9 2 15
BITMAP
F1C0
F3C0
F3C0
E1C0
61C0
6180
6180
6180
4080
ENDCHAR
STARTCHAR 0023
ENCODING 35
SWIDTH 489 0
DWIDTH 17 0
BBX 16 24 1 0
BITMAP
0204
0204
0604
060C
040C
0408
0408
0C08
FFFF
FFFF
0810
0810
1810
1830
1030
FFFF
FFFF
3020
3060
2060
2040
2040
6040
60C0
ENDCHAR
STARTCHAR 0024
ENCODING 36
SWIDTH 489 0
DWIDTH 17 0
BBX 14 28 2 -3
BITMAP
0200
0200
1FE0
7278
6218
E218
E208
E208
E200
F200
7E00
3E00
1F80
0FC0
03E0
03F0
0278
0238
021C
821C
821C
8218
C238
E270
7FC0
0200
0200
0200
ENDCHAR
STARTCHAR 0025
ENCODING 37
SWIDTH 835 0
DWIDTH 29 0
BBX 27 25 1 -1
BITMAP
00000600
3F000C00
71800800
61801800
61C03000
E1C02000
E1C04000
E1C0C000
E1C08000
61C10000
61830000
33020000
1E040000
000C1F00
00183180
001030C0
003070C0
006070E0
004070E0
00C070E0
018070E0
010070C0
030030C0
06001980
04000F00
ENDCHAR
STARTCHAR 0026
ENCODING 38
SWIDTH 777 0
DWIDTH 27 0
BBX 25 24 1 0
BITMAP
00FE0000
01C30000
03830000
03830000
03830000
03830000
03860000
03CC0000
01D87F00
01E03C00
01E03800
07F03000
0CF03000
18782000
303C4000
703CC000
701E8000
F00F0000
F00F8000
F807C080
781BE100
7FF1FF00
3FE0FE00
02001000
ENDCHAR
STARTCHAR 0027
ENCODING 39
SWIDTH 172 0
DWIDTH 6 0
BBX 4 9 1 15
BITMAP
70
F0
F0
70
60
60
60
60
60
ENDCHAR
STARTCHAR 0028
ENCODING 40
SWIDTH 345 0
DWIDTH 12 0
BBX 10 31 1 -7
BITMAP
00C0
0100
0200
0600
0C00
1800
1800
3800
3000
7000
7000
7000
7000
7000
F000
F000
F000
7000
7000
7000
7000
7000
3000
3800
1800
1800
0C00
0400
0200
0100
0080
ENDCHAR
STARTCHAR 0029
ENCODING 41
SWIDTH 345 0
DWIDTH 12 0
BBX 9 31 1 -7
BITMAP
8000
4000
3000
1800
0C00
0C00
0600
0600
0700
0700
0700
0380
0380
0380
0380
0380
0380
0380
0380
0380
0380
0700
0700
0600
0600
0C00
0C00
1800
1000
2000
C000
ENDCHAR
STARTCHAR 002A
ENCODING 42
SWIDTH 489 0
DWIDTH 17 0
BBX 12 14 3 10
BITMAP
0600
0E00
0E00
C670
E4F0
F5E0
0F00
1F00
F5E0
E4F0
C670
0E00
0E00
0600
ENDCHAR
STARTCHAR 002B
ENCODING 43
SWIDTH 576 0
DWIDTH 20 0
BBX 18 19 1 2
BITMAP
008000
008000
008000
008000
008000
008000
008000
008000
008000
FFFFC0
008000
008000
008000
008000
008000
008000
008000
008000
008000
ENDCHAR
STARTCHAR 002C
ENCODING 44
SWIDTH 259 0
DWIDTH 9 0
BBX 5 9 2 -6
BITMAP
F0
F8
F8
18
18
10
30
60
80
ENDCHAR
STARTCHAR 002D
ENCODING 45
SWIDTH 345 0
DWIDTH 12 0
BBX 9 2 1 7
BITMAP
FF80
FF80
ENDCHAR
STARTCHAR 002E
ENCODING 46
SWIDTH 259 0
DWIDTH 9 0
BBX 4 3 2 0
BITMAP
70
F0
70
ENDCHAR
STARTCHAR 002F
ENCODING 47
SWIDTH 288 0
DWIDTH 10 0
BBX 10 24 0 0
BITMAP
00C0
0080
0180
0100
0100
0300
0200
0200
0600
0400
0400
0C00
0800
0800
1800
1000
1000
3000
2000
2000
6000
4000
4000
C000
ENDCHAR
STARTCHAR 0030
ENCODING 48
SWIDTH 489 0
DWIDTH 17 0
BBX 15 23 1 0
BITMAP
07E0
0C30
1838
3818
301C
701C
700E
700E
700E
F00E
F00E
F00E
F00E
F00E
F00E
700E
701E
701C
301C
3818
1838
1C30
07C0
ENDCHAR
STARTCHAR 0031
ENCODING 49
SWIDTH 489 0
DWIDTH 17 0
BBX 9 23 4 0
BITMAP
0C00
3C00
DC00
1C00
1C00
1C00
1C00
1C00
1C00
1C00
1C00
1C00
1C00
1C00
1C00
1C00
1C00
1C00
1C00
1C00
1C00
1C00
FF80
ENDCHAR
STARTCHAR 0032
ENCODING 50
SWIDTH 489 0
DWIDTH 17 0
BBX 15 23 1 0
BITMAP
0FE0
3FF0
30F8
6078
4038
803C
0018
0018
0038
0038
0030
0060
0060
00C0
0180
0100
0200
0400
0800
1002
3FFC
7FFC
FFF8
ENDCHAR
STARTCHAR 0033
ENCODING 51
SWIDTH 489 0
DWIDTH 17 0
BBX 13 23 1 0
BITMAP
0FC0
1FE0
20F0
4070
0070
0030
0070
0060
0040
0080
03E0
0FF0
00F8
0038
0038
0018
0018
0018
0018
0010
6030
F8E0
7F80
ENDCHAR
STARTCHAR 0034
ENCODING 52
SWIDTH 489 0
DWIDTH 17 0
BBX 15 23 1 0
BITMAP
0030
0070
00F0
01F0
0170
0370
0670
0470
0870
1870
1070
2070
6070
C070
8070
FFFE
FFFE
0070
0070
0070
0070
0070
0070
ENDCHAR
STARTCHAR 0035
ENCODING 53
SWIDTH 489 0
DWIDTH 17 0
BBX 13 23 2 0
BITMAP
07F8
0FF0
0FF0
1800
1000
3000
3C00
7F00
7FC0
0FE0
01E0
00F0
0070
0038
0038
0038
0038
0030
0030
0020
E040
FB80
FF00
ENDCHAR
STARTCHAR 0036
ENCODING 54
SWIDTH 489 0
DWIDTH 17 0
BBX 14 23 2 0
BITMAP
00F8
0380
0700
0E00
1C00
3800
3800
7000
7000
FFE0
F8F0
E078
E03C
E03C
E01C
E01C
E01C
E01C
E018
7018
3030
3860
1FC0
ENDCHAR
STARTCHAR 0037
ENCODING 55
SWIDTH 489 0
DWIDTH 17 0
BBX 15 23 1 0
BITMAP
3FFE
3FFE
7FFC
600C
400C
8018
0018
0018
0030
0030
0030
0060
0060
0040
00C0
00C0
0080
0180
0180
0100
0300
0300
0200
ENDCHAR
STARTCHAR 0038
ENCODING 56
SWIDTH 489 0
DWIDTH 17 0
BBX 13 23 2 0
BITMAP
1FC0
3070
6030
6038
E038
E038
7030
7870
3C60
3F80
0F00
07C0
1BE0
31F0
60F8
6078
E038
E018
E018
E018
6018
3030
1FC0
ENDCHAR
STARTCHAR 0039
ENCODING 57
SWIDTH 489 0
DWIDTH 17 0
BBX 15 23 1 0
BITMAP
0FE0
1870
3038
701C
701C
601C
E01E
E00E
F00E
700E
701E
781E
3C3C
1FDC
021C
0038
0038
0070
0060
00C0
0180
0300
7C00
ENDCHAR
STARTCHAR 003A
ENCODING 58
SWIDTH 288 0
DWIDTH 10 0
BBX 4 16 3 0
BITMAP
60
F0
F0
60
00
00
00
00
00
00
00
00
00
E0
F0
F0
ENDCHAR
STARTCHAR 003B
ENCODING 59
SWIDTH 288 0
DWIDTH 10 0
BBX 5 22 2 -6
BITMAP
70
78
78
30
00
00
00
00
00
00
00
00
00
70
F8
78
08
08
08
10
20
C0
ENDCHAR
STARTCHAR 003C
ENCODING 60
SWIDTH 576 0
DWIDTH 20 0
BBX 18 17 1 3
BITMAP
000040
0001C0
000F00
003C00
00E000
078000
1E0000
700000
C00000
780000
1E0000
038000
00E000
003C00
000F00
0001C0
000040
ENDCHAR
STARTCHAR 003D
ENCODING 61
SWIDTH 576 0
DWIDTH 20 0
BBX 18 7 1 8
BITMAP
FFFFC0
000000
000000
000000
000000
000000
FFFFC0
ENDCHAR
STARTCHAR 003E
ENCODING 62
SWIDTH 576 0
DWIDTH 20 0
BBX 18 15 1 4
BITMAP
E00000
780000
0E0000
03C000
00F000
001C00
000700
0001C0
000780
001C00
007000
03C000
0E0000
380000
E00000
ENDCHAR
STARTCHAR 003F
ENCODING 63
SWIDTH 432 0
DWIDTH 15 0
BBX 12 24 2 0
BITMAP
0400
3FC0
40E0
C0E0
C070
C070
E070
C070
0060
00E0
00C0
0180
0100
0300
0200
0400
0400
0400
0400
0000
0000
0E00
0E00
0E00
ENDCHAR
STARTCHAR 0040
ENCODING 64
SWIDTH 921 0
DWIDTH 32 0
BBX 29 31 2 -7
BITMAP
001FF000
00600C00
01800300
03000180
040000C0
08000040
18000020
30000020
2007DC20
600C3810
40183810
C0303810
C0603010
C0E03010
80C07020
81C07020
81C06020
8180E040
8381E040
8382E080
C3C6C180
C1FCC308
41F0FC08
60000010
20000030
30000020
18000040
0C000180
06000300
01800C00
007FF000
ENDCHAR
STARTCHAR 0041
ENCODING 65
SWIDTH 720 0
DWIDTH 25 0
BBX 25 24 0 0
BITMAP
00080000
00080000
001C0000
001C0000
003C0000
003E0000
002E0000
006F0000
00470000
00C78000
00878000
01838000
0183C000
0101C000
0301E000
03FFE000
0600E000
0400F000
0C007000
0C007800
08003800
18003C00
38003C00
FF00FF80
ENDCHAR
STARTCHAR 0042
ENCODING 66
SWIDTH 662 0
DWIDTH 23 0
BBX 20 23 1 0
BITMAP
FFFC00
3C0F80
1C03C0
1C01E0
1C01E0
1C00E0
1C00E0
1C01E0
1C01E0
1C03C0
1E1F80
1FFF00
1C07C0
1C01E0
1C00F0
1C00F0
1C00F0
1C00F0
1C00F0
1C00E0
1C01E0
3E0FC0
FFFE00
ENDCHAR
STARTCHAR 0043
ENCODING 67
SWIDTH 662 0
DWIDTH 23 0
BBX 21 25 1 -1
BITMAP
000010
01FF10
0780F0
0E0070
1C0030
3C0010
380010
780010
780000
700000
F00000
F00000
F00000
F00000
F00000
700000
780000
780000
380008
3C0010
1E0010
0F0020
07C0C0
03FF00
001000
ENDCHAR
STARTCHAR 0044
ENCODING 68
SWIDTH 720 0
DWIDTH 25 0
BBX 23 23 1 0
BITMAP
FFFE00
3F0F80
1C03E0
1C00F0
1C0078
1C0078
1C003C
1C003C
1C001E
1C001E
1C001E
1C001E
1C001E
1C001E
1C001C
1C003C
1C003C
1C0078
1C0078
1C00F0
1C01E0
3E0F80
FFFC00
ENDCHAR
STARTCHAR 0045
ENCODING 69
SWIDTH 604 0
DWIDTH 21 0
BBX 19 23 1 0
BITMAP
FFFF80
1C01C0
1C00C0
1C0040
1C0040
1C0000
1C0000
1C0100
1C0100
1C0300
1FFF00
1FFF00
1C0300
1C0100
1C0100
1C0000
1C0000
1C0000
1C0020
1C0060
1C00C0
1E01C0
FFFFC0
ENDCHAR
STARTCHAR 0046
ENCODING 70
SWIDTH 547 0
DWIDTH 19 0
BBX 17 23 1 0
BITMAP
FFFF80
3C0780
1C0180
1C0080
1C0080
1C0000
1C0000
1C0400
1C0400
1C0400
1FFC00
1FFC00
1C0400
1C0400
1C0400
1C0000
1C0000
1C0000
1C0000
1C0000
1C0000
3E0000
FF8000
ENDCHAR
STARTCHAR 0047
ENCODING 71
SWIDTH 720 0
DWIDTH 25 0
BBX 24 23 1 0
BITMAP
01FF90
0380F0
0E0038
1E0018
1C0018
380008
780008
780000
700000
F00000
F001FF
F0007C
F00038
F00038
780038
780038
780038
3C0038
3C0038
1E0038
0F0038
078078
01FFE0
ENDCHAR
STARTCHAR 0048
ENCODING 72
SWIDTH 720 0
DWIDTH 25 0
BBX 23 23 1 0
BITMAP
FF83FE
3E00F0
1C0070
1C0070
1C0070
1C0070
1C0070
1C0070
1C0070
1C0070
1C0070
1FFFF0
1C0070
1C0070
1C0070
1C0070
1C0070
1C0070
1C0070
1C0070
1C0070
3E00F0
FF83FE
ENDCHAR
STARTCHAR 0049
ENCODING 73
SWIDTH 345 0
DWIDTH 12 0
BBX 10 23 1 0
BITMAP
FFC0
1E00
1E00
1C00
1C00
1C00
1C00
1C00
1C00
1C00
1C00
1C00
1C00
1C00
1C00
1C00
1C00
1C00
1C00
1C00
1E00
1E00
FFC0
ENDCHAR
STARTCHAR 004A
ENCODING 74
SWIDTH 403 0
DWIDTH 14 0
BBX 12 23 1 -1
BITMAP
3FF0
0780
0380
0380
0380
0380
0380
0380
0380
0380
0380
0380
0380
0380
0380
0380
0380
0380
0380
C300
E300
F200
FC00
ENDCHAR
STARTCHAR 004B
ENCODING 75
SWIDTH 720 0
DWIDTH 25 0
BBX 24 23 1 0
BITMAP
FF87F8
3E01E0
1C0180
1C0300
1C0600
1C0C00
1C1800
1C3000
1C6000
1CC000
1DC000
1FE000
1DF000
1CF800
1C7C00
1C3E00
1C1F00
1C0F80
1C07C0
1C03E0
1C01F0
3E01F8
FF87FF
ENDCHAR
STARTCHAR 004C
ENCODING 76
SWIDTH 604 0
DWIDTH 21 0
BBX 19 23 1 0
BITMAP
FFC000
1E0000
1C0000
1C0000
1C0000
1C0000
1C0000
1C0000
1C0000
1C0000
1C0000
1C0000
1C0000
1C0000
1C0000
1C0000
1C0000
1C0020
1C0020
1C0060
1C00C0
1F8FC0
FFFFC0
ENDCHAR
STARTCHAR 004D
ENCODING 77
SWIDTH 892 0
DWIDTH 31 0
BBX 29 23 1 0
BITMAP
FC0003F8
3E0003C0
1E0007C0
1F0007C0
170005C0
17800DC0
138009C0
13C019C0
11C011C0
11C031C0
11E031C0
10E061C0
10F061C0
1070C1C0
1078C1C0
103881C0
103D81C0
101D01C0
101F01C0
100E01C0
100E01C0
380C03C0
FF041FF8
ENDCHAR
STARTCHAR 004E
ENCODING 78
SWIDTH 720 0
DWIDTH 25 0
BBX 25 23 0 0
BITMAP
FC007F80
1E001C00
0F000800
0F800800
0F800800
0FC00800
0DE00800
0CF00800
0C780800
0C7C0800
0C3C0800
0C1E0800
0C0F0800
0C078800
0C07C800
0C03C800
0C01E800
0C00F800
0C007800
0C003800
0C003800
0C001800
7F800800
ENDCHAR
STARTCHAR 004F
ENCODING 79
SWIDTH 720 0
DWIDTH 25 0
BBX 23 24 1 0
BITMAP
01FF00
0701C0
0E00E0
1C0070
380078
380038
78003C
70003C
70001C
F0001E
F0001E
F0001E
F0001E
F0001E
70001C
78001C
78003C
380038
3C0038
1C0070
0E00E0
0701C0
01FF00
001000
ENDCHAR
STARTCHAR 0050
ENCODING 80
SWIDTH 547 0
DWIDTH 19 0
BBX 17 23 1 0
BITMAP
FFF000
3F7E00
1C0F00
1C0F00
1C0780
1C0780
1C0780
1C0780
1C0780
1C0700
1C0F00
1F7E00
1CE000
1C0000
1C0000
1C0000
1C0000
1C0000
1C0000
1C0000
1C0000
3E0000
FF8000
ENDCHAR
STARTCHAR 0051
ENCODING 81
SWIDTH 720 0
DWIDTH 25 0
BBX 23 30 1 -6
BITMAP
01FF00
0703C0
0E00E0
1C0070
380078
380038
78003C
70003C
70001C
F0001E
F0001E
F0001E
F0001E
F0001E
F0001C
78001C
78003C
380038
3C0038
1C0070
0E00E0
0701C0
01FF00
007C00
003E00
001F00
000780
0003C0
000070
00000E
ENDCHAR
STARTCHAR 0052
ENCODING 82
SWIDTH 662 0
DWIDTH 23 0
BBX 22 23 1 0
BITMAP
FFF800
3E3E00
1C0F00
1C0780
1C0780
1C03C0
1C03C0
1C0380
1C0780
1C0F00
1C1E00
1FF800
1C7000
1C7800
1C3C00
1C1E00
1C0E00
1C0F00
1C0780
1C0380
1C03C0
3E01F0
FF80FC
ENDCHAR
STARTCHAR 0053
ENCODING 83
SWIDTH 547 0
DWIDTH 19 0
BBX 15 25 2 -1
BITMAP
0004
1FE4
383C
601C
600C
E004
E004
F004
F800
7E00
3F00
1FC0
0FF0
03F8
00FC
003E
001E
800E
800E
C00E
C00E
E00C
F81C
9FF0
8000
ENDCHAR
STARTCHAR 0054
ENCODING 84
SWIDTH 604 0
DWIDTH 21 0
BBX 19 23 1 0
BITMAP
FFFFE0
F8E1E0
C0E020
80E020
80E020
00E000
00E000
00E000
00E000
00E000
00E000
00E000
00E000
00E000
00E000
00E000
00E000
00E000
00E000
00E000
00E000
00F000
07FC00
ENDCHAR
STARTCHAR 0055
ENCODING 85
SWIDTH 720 0
DWIDTH 25 0
BBX 25 24 0 -1
BITMAP
FFC07F80
1E001C00
1E000C00
1E000800
0E000800
0E000800
0E000800
0E000800
0E000800
0E000800
0E000800
0E000800
0E000800
0E000800
0E000800
0E000800
0E000800
0E000800
0E001800
0F001000
07003000
03C0E000
01FF8000
00080000
ENDCHAR
STARTCHAR 0056
ENCODING 86
SWIDTH 720 0
DWIDTH 25 0
BBX 25 23 0 -1
BITMAP
FFC03F80
1E000E00
1E000C00
0E000800
0F001800
07001800
07801000
03803000
03C02000
03C06000
01C06000
01E04000
00E0C000
00F08000
00718000
00790000
00790000
003B0000
003E0000
001E0000
001C0000
000C0000
000C0000
ENDCHAR
STARTCHAR 0057
ENCODING 87
SWIDTH 950 0
DWIDTH 33 0
BBX 32 24 0 -1
BITMAP
FF9FF03F
1E03C00C
1E03C00C
0E01C008
0E01C008
0F01E018
0700E010
0700E010
0781F030
03817020
03837820
03C33860
01C23840
01E63CC0
01E61CC0
00E41C80
00FC1F80
007C0F80
00780F00
00780F00
00300700
00300600
00300600
00000200
ENDCHAR
STARTCHAR 0058
ENCODING 88
SWIDTH 720 0
DWIDTH 25 0
BBX 25 23 0 0
BITMAP
7FE0FF00
0F803C00
07803000
03C02000
03C06000
01E0C000
00F18000
00F10000
007B0000
003E0000
003C0000
001E0000
001F0000
003F0000
00678000
00C3C000
0083C000
0101E000
0300F000
0600F000
0C007800
1C007C00
FF01FF80
ENDCHAR
STARTCHAR 0059
ENCODING 89
SWIDTH 720 0
DWIDTH 25 0
BBX 25 23 0 0
BITMAP
FFC07F80
1F001C00
1F001800
0F001000
07803000
07806000
03C04000
01E0C000
01E18000
00F10000
007B0000
007E0000
003E0000
001C0000
001C0000
001C0000
001C0000
001C0000
001C0000
001C0000
001C0000
003C0000
00FF8000
ENDCHAR
STARTCHAR 005A
ENCODING 90
SWIDTH 604 0
DWIDTH 21 0
BBX 20 23 0 0
BITMAP
1FFFF0
1E01E0
1003C0
1003C0
200780
200F00
000E00
001E00
003C00
007800
007800
00F000
01E000
01E000
03C000
078000
070000
0F0010
1E0010
3C0010
3C0030
7801E0
FFFFE0
ENDCHAR
STARTCHAR 005B
ENCODING 91
SWIDTH 345 0
DWIDTH 12 0
BBX 7 31 3 -7
BITMAP
FE
FE
C0
C0
C0
C0
C0
C0
C0
C0
C0
C0
C0
C0
C0
C0
C0
C0
C0
C0
C0
C0
C0
C0
C0
C0
C0
C0
C0
C0
FE
ENDCHAR
STARTCHAR 005C
ENCODING 92
SWIDTH 288 0
DWIDTH 10 0
BBX 9 24 0 0
BITMAP
C000
4000
4000
6000
2000
2000
3000
1000
1000
1800
0800
0800
0C00
0400
0400
0600
0200
0200
0300
0100
0100
0180
0080
0080
ENDCHAR
STARTCHAR 005D
ENCODING 93
SWIDTH 345 0
DWIDTH 12 0
BBX 8 31 1 -7
BITMAP
FF
FF
07
07
07
07
07
07
07
07
07
07
07
07
07
07
07
07
07
07
07
07
07
07
07
07
07
07
07
07
FF
ENDCHAR
STARTCHAR 005E
ENCODING 94
SWIDTH 460 0
DWIDTH 16 0
BBX 15 12 1 11
BITMAP
0300
0380
0680
04C0
0C40
1860
1030
3010
2018
6008
C00C
8006
ENDCHAR
STARTCHAR 005F
ENCODING 95
SWIDTH 489 0
DWIDTH 17 0
BBX 18 1 0 -7
BITMAP
FFFFC0
ENDCHAR
STARTCHAR 0060
ENCODING 96
SWIDTH 345 0
DWIDTH 12 0
BBX 5 6 2 18
BITMAP
F0
70
30
18
18
08
ENDCHAR
STARTCHAR 0061
ENCODING 97
SWIDTH 432 0
DWIDTH 15 0
BBX 14 16 1 0
BITMAP
0F80
38E0
70E0
7070
7070
0070
01F0
0670
1870
7070
6070
E070
E070
F0F4
7F7C
3E78
ENDCHAR
STARTCHAR 0062
ENCODING 98
SWIDTH 489 0
DWIDTH 17 0
BBX 16 24 0 0
BITMAP
1800
7800
B800
3800
1800
1800
1800
1800
18F0
19FC
1BFE
1C1E
180F
1807
1807
1807
1807
1807
1807
1806
1806
180C
1E18
0FF0
ENDCHAR
STARTCHAR 0063
ENCODING 99
SWIDTH 432 0
DWIDTH 15 0
BBX 13 16 1 0
BITMAP
07C0
18F0
3078
7078
6038
6000
E000
E000
E000
E000
F000
7008
7810
3C30
3FE0
0FC0
ENDCHAR
STARTCHAR 0064
ENCODING 100
SWIDTH 489 0
DWIDTH 17 0
BBX 16 24 1 0
BITMAP
000C
007C
001C
001C
001C
001C
001C
001C
07DC
1C7C
183C
301C
701C
601C
E01C
E01C
E01C
E01C
F01C
F01C
781C
781C
3F7F
1FDC
ENDCHAR
STARTCHAR 0065
ENCODING 101
SWIDTH 432 0
DWIDTH 15 0
BBX 13 16 1 0
BITMAP
07C0
18F0
3070
6038
6038
7FF8
E000
E000
E000
E000
F008
7008
7818
3E30
3FE0
0FC0
ENDCHAR
STARTCHAR 0066
ENCODING 102
SWIDTH 345 0
DWIDTH 12 0
BBX 14 24 1 0
BITMAP
01F0
023C
061C
0C1C
0C00
0C00
1C00
1C00
FFC0
FFC0
1C00
1C00
1C00
1C00
1C00
1C00
1C00
1C00
1C00
1C00
1C00
1C00
1E00
FFC0
ENDCHAR
STARTCHAR 0067
ENCODING 103
SWIDTH 489 0
DWIDTH 17 0
BBX 16 23 1 -7
BITMAP
07C0
187F
383F
3038
7038
701C
7018
3838
3838
1C70
0FC0
1000
3000
3800
3FFC
1FFE
101E
2003
6002
E002
F004
7FF8
3FF0
ENDCHAR
STARTCHAR 0068
ENCODING 104
SWIDTH 489 0
DWIDTH 17 0
BBX 17 24 0 0
BITMAP
1C0000
7C0000
3C0000
1C0000
1C0000
1C0000
1C0000
1C0000
1C7800
1DFC00
1F1C00
1C0E00
1C0E00
1C0E00
1C0E00
1C0E00
1C0E00
1C0E00
1C0E00
1C0E00
1C0E00
1C0E00
1C0E00
FF7F80
ENDCHAR
STARTCHAR 0069
ENCODING 105
SWIDTH 288 0
DWIDTH 10 0
BBX 8 24 1 0
BITMAP
18
3C
18
00
00
00
00
00
18
78
38
18
18
18
18
18
18
18
18
18
18
1C
3C
FF
ENDCHAR
STARTCHAR 006A
ENCODING 106
SWIDTH 288 0
DWIDTH 10 0
BBX 10 31 -3 -7
BITMAP
0180
03C0
01C0
0000
0000
0000
0000
0000
0080
0780
0380
0180
0180
0180
0180
0180
0180
0180
0180
0180
0180
0180
0180
0180
0180
0180
0180
0180
4180
F300
7E00
ENDCHAR
STARTCHAR 006B
ENCODING 107
SWIDTH 489 0
DWIDTH 17 0
BBX 18 24 0 0
BITMAP
1C0000
7C0000
3C0000
1C0000
1C0000
1C0000
1C0000
1C0000
1C3F80
1C1C00
1C1800
1C3000
1C6000
1CC000
1D0000
1F8000
1DC000
1DE000
1CF000
1C7000
1C3800
1C3C00
1C1E00
FF3FC0
ENDCHAR
STARTCHAR 006C
ENCODING 108
SWIDTH 288 0
DWIDTH 10 0
BBX 8 24 1 0
BITMAP
18
78
38
18
18
18
18
18
18
18
18
18
18
18
18
18
18
18
18
18
18
18
3C
FF
ENDCHAR
STARTCHAR 006D
ENCODING 109
SWIDTH 777 0
DWIDTH 27 0
BBX 26 16 1 0
BITMAP
18F07800
F9F8FE00
7E3D0E00
381E0E00
381C0600
381C0700
381C0700
381C0700
381C0700
381C0700
381C0700
381C0700
381C0700
381C0700
381C0700
FE7FBFC0
ENDCHAR
STARTCHAR 006E
ENCODING 110
SWIDTH 489 0
DWIDTH 17 0
BBX 17 16 0 0
BITMAP
0C7800
7DFC00
BF1C00
1C0E00
1C0E00
1C0E00
1C0E00
1C0E00
1C0E00
1C0E00
1C0E00
1C0E00
1C0E00
1C0E00
1C0E00
FF3F80
ENDCHAR
STARTCHAR 006F
ENCODING 111
SWIDTH 489 0
DWIDTH 17 0
BBX 15 16 1 0
BITMAP
07C0
1C70
3038
301C
701C
600E
E00E
E00E
E00E
F00E
F00E
700C
780C
3818
1C38
0FE0
ENDCHAR
STARTCHAR 0070
ENCODING 112
SWIDTH 489 0
DWIDTH 17 0
BBX 16 23 0 -7
BITMAP
08F8
79FC
BBFE
3A1E
1C0F
1807
1807
1807
1807
1807
1807
1807
1806
1C0E
1C1C
1BF8
1800
1800
1800
1800
1800
3C00
FF00
ENDCHAR
STARTCHAR 0071
ENCODING 113
SWIDTH 489 0
DWIDTH 17 0
BBX 16 23 1 -7
BITMAP
03C4
0C7C
383C
301C
601C
601C
E01C
E01C
E01C
E01C
E01C
F01C
701C
7C3C
3FDC
1F9C
001C
001C
001C
001C
001C
001C
007F
ENDCHAR
STARTCHAR 0072
ENCODING 114
SWIDTH 345 0
DWIDTH 12 0
BBX 12 16 0 0
BITMAP
0CE0
7DF0
BFF0
1C00
1C00
1C00
1C00
1C00
1C00
1C00
1C00
1C00
1C00
1C00
1C00
FF00
ENDCHAR
STARTCHAR 0073
ENCODING 115
SWIDTH 403 0
DWIDTH 14 0
BBX 10 16 2 0
BITMAP
3E80
6380
C180
C080
C080
E000
F800
7E00
3F80
0FC0
03C0
81C0
80C0
80C0
C180
FF00
ENDCHAR
STARTCHAR 0074
ENCODING 116
SWIDTH 288 0
DWIDTH 10 0
BBX 9 21 0 0
BITMAP
0400
0400
0C00
1C00
1C00
7F80
FF80
1C00
1C00
1C00
1C00
1C00
1C00
1C00
1C00
1C00
1C00
1C00
1C80
1F80
0F00
ENDCHAR
STARTCHAR 0075
ENCODING 117
SWIDTH 489 0
DWIDTH 17 0
BBX 17 16 0 0
BITMAP
F87E00
381E00
180E00
180E00
180E00
180E00
180E00
180E00
180E00
180E00
180E00
1C0E00
1C0E00
1C3E00
1FEF80
0F8E00
ENDCHAR
STARTCHAR 0076
ENCODING 118
SWIDTH 489 0
DWIDTH 17 0
BBX 17 16 0 0
BITMAP
FF0F80
3C0300
1C0200
1C0600
1C0400
0E0C00
0E0800
070800
071800
039000
03B000
03A000
01E000
01C000
00C000
00C000
ENDCHAR
STARTCHAR 0077
ENCODING 119
SWIDTH 720 0
DWIDTH 25 0
BBX 25 16 0 0
BITMAP
FE7F0F80
783E0700
381C0600
1C0E0400
1C0E0400
1C0E0C00
0E0F0800
0E170800
06131000
07239000
0723B000
03E1E000
03C1E000
01C1E000
0180C000
0180C000
ENDCHAR
STARTCHAR 0078
ENCODING 120
SWIDTH 489 0
DWIDTH 17 0
BBX 17 16 0 0
BITMAP
FF3E00
3E1C00
1E1800
0E3000
072000
07E000
03C000
01C000
01E000
02E000
067000
047800
083800
181C00
301E00
7C3F80
ENDCHAR
STARTCHAR 0079
ENCODING 121
SWIDTH 489 0
DWIDTH 17 0
BBX 17 23 0 -7
BITMAP
FE0F80
7C0700
3C0200
1C0600
1C0400
0E0400
0E0C00
070800
071800
039000
03B000
01F000
01E000
00E000
00C000
00C000
00C000
008000
018000
010000
7B0000
7E0000
7C0000
ENDCHAR
STARTCHAR 007A
ENCODING 122
SWIDTH 432 0
DWIDTH 15 0
BBX 14 16 1 0
BITMAP
7FFC
7FFC
4078
4070
00E0
01E0
03C0
0380
0700
0E00
1E00
1C04
3804
7008
F008
FFF8
ENDCHAR
STARTCHAR 007B
ENCODING 123
SWIDTH 489 0
DWIDTH 17 0
BBX 9 31 5 -7
BITMAP
0180
0600
0C00
0C00
1800
1C00
1C00
1C00
1C00
1C00
0C00
0C00
0800
1800
2000
C000
6000
1000
1800
0C00
0C00
1C00
1C00
1C00
1C00
1C00
1800
1C00
0C00
0600
0380
ENDCHAR
STARTCHAR 007C
ENCODING 124
SWIDTH 201 0
DWIDTH 7 0
BBX 1 31 3 -7
BITMAP
80
80
80
80
80
80
80
80
80
80
80
80
80
80
80
80
80
80
80
80
80
80
80
80
80
80
80
80
80
80
80
ENDCHAR
STARTCHAR 007D
ENCODING 125
SWIDTH 489 0
DWIDTH 17 0
BBX 9 31 3 -7
BITMAP
C000
3000
1800
0C00
0C00
0C00
0C00
1C00
1C00
1C00
1C00
1C00
0C00
0400
0200
0180
0300
0400
0C00
0C00
1C00
1C00
1C00
1C00
1C00
0C00
0C00
0C00
1800
1000
E000
ENDCHAR
STARTCHAR 007E
ENCODING 126
SWIDTH 547 0
DWIDTH 19 0
BBX 18 4 0 7
BITMAP
3F0040
63E040
4078C0
801F80
ENDCHAR
STARTCHAR 00A0
ENCODING 160
SWIDTH 259 0
DWIDTH 9 0
BBX 0 0 0 0
BITMAP
ENDCHAR
STARTCHAR 00A1
ENCODING 161
SWIDTH 345 0
DWIDTH 12 0
BBX 4 23 4 -6
BITMAP
E0
F0
E0
00
00
00
40
40
40
40
60
60
60
60
60
E0
E0
E0
E0
F0
F0
F0
E0
ENDCHAR
STARTCHAR 00A2
ENCODING 162
SWIDTH 489 0
DWIDTH 17 0
BBX 13 28 2 -6
BITMAP
0010
0020
0020
0060
0040
0040
07C0
18F0
30F0
7178
6138
6100
E200
E200
E600
E400
F408
7C08
7810
3C70
3FE0
1FC0
1000
2000
2000
6000
4000
4000
ENDCHAR
STARTCHAR 00A3
ENCODING 163
SWIDTH 489 0
DWIDTH 17 0
BBX 15 23 1 0
BITMAP
01F8
021C
060C
0E0C
0E00
0E00
0E00
0E00
0E00
0E00
7FE0
7FE0
0E00
0E00
0E00
0E00
0E00
0C00
0C02
7E02
8FFE
8BFC
F0F8
ENDCHAR
STARTCHAR 00A4
ENCODING 164
SWIDTH 489 0
DWIDTH 17 0
BBX 16 17 1 3
BITMAP
8000
C7C3
7E76
301C
600C
4006
C006
C002
C002
C002
C002
4006
600C
301C
7EF6
C7C3
8000
ENDCHAR
STARTCHAR 00A5
ENCODING 165
SWIDTH 489 0
DWIDTH 17 0
BBX 17 23 0 0
BITMAP
FF1F80
3C0600
1C0600
1C0400
1E0C00
0E0800
0E0800
071800
071000
03B000
03A000
03E000
FFFF80
01C000
01C000
01C000
FFFF80
01C000
01C000
01C000
01C000
01C000
0FF800
ENDCHAR
STARTCHAR 00A6
ENCODING 166
SWIDTH 201 0
DWIDTH 7 0
BBX 1 31 3 -7
BITMAP
80
80
80
80
80
80
80
80
80
80
80
80
00
00
00
00
00
00
00
80
80
80
80
80
80
80
80
80
80
80
80
ENDCHAR
STARTCHAR 00A7
ENCODING 167
SWIDTH 489 0
DWIDTH 17 0
BBX 12 30 3 -7
BITMAP
1F80
30C0
20C0
60C0
60C0
7000
3800
3C00
1F00
3F80
47C0
C1E0
80E0
8070
C070
C030
E020
7020
7840
3EC0
1F00
0780
0380
01C0
00C0
70C0
70C0
6080
3180
0E00
ENDCHAR
STARTCHAR 00A8
ENCODING 168
SWIDTH 345 0
DWIDTH 12 0
BBX 10 4 1 19
BITMAP
6180
F3C0
F3C0
6380
ENDCHAR
STARTCHAR 00A9
ENCODING 169
SWIDTH 748 0
DWIDTH 26 0
BBX 24 23 1 0
BITMAP
01FF80
030060
0C0030
180008
307F44
20C0C6
438042
430043
470001
860001
860001
8E0001
8E0001
860001
470001
470003
438042
21C086
307F04
180008
0C0010
070060
01FF80
ENDCHAR
STARTCHAR 00AA
ENCODING 170
SWIDTH 288 0
DWIDTH 10 0
BBX 10 10 0 13
BITMAP
7E00
4300
4300
0F00
3300
6300
C300
E300
FFC0
6300
ENDCHAR
STARTCHAR 00AB
ENCODING 171
SWIDTH 489 0
DWIDTH 17 0
BBX 15 16 1 0
BITMAP
0202
0206
040C
0C1C
1818
3838
7070
70E0
F0E0
7070
3830
1838
0C18
0C0C
0604
0202
ENDCHAR
STARTCHAR 00AC
ENCODING 172
SWIDTH 576 0
DWIDTH 20 0
BBX 18 7 1 8
BITMAP
FFFFC0
000040
000040
000040
000040
000040
000040
ENDCHAR
STARTCHAR 00AD
ENCODING 173
SWIDTH 345 0
DWIDTH 12 0
BBX 9 2 1 7
BITMAP
FF80
FF80
ENDCHAR
STARTCHAR 00AE
ENCODING 174
SWIDTH 748 0
DWIDTH 26 0
BBX 24 23 1 0
BITMAP
01FF80
030060
0C0030
180008
33FE04
21C706
41C382
41C383
41C381
81C381
81C701
81FC01
81DC01
81CE01
41C601
41C703
41C382
21C1C6
37F0E4
180008
0C0010
070060
01FF80
ENDCHAR
STARTCHAR 00AF
ENCODING 175
SWIDTH 489 0
DWIDTH 17 0
BBX 18 1 0 25
BITMAP
FFFFC0
ENDCHAR
STARTCHAR 00B0
ENCODING 176
SWIDTH 403 0
DWIDTH 14 0
BBX 10 10 2 13
BITMAP
3F00
6180
C0C0
80C0
8040
8040
C0C0
C180
7F00
1E00
ENDCHAR
STARTCHAR 00B1
ENCODING 177
SWIDTH 547 0
DWIDTH 19 0
BBX 18 19 0 2
BITMAP
004000
004000
004000
004000
004000
004000
004000
004000
004000
FFFFC0
004000
004000
004000
004000
004000
004000
004000
FFFFC0
FFFFC0
ENDCHAR
STARTCHAR 00B2
ENCODING 178
SWIDTH 288 0
DWIDTH 10 0
BBX 10 12 0 11
BITMAP
3F00
6380
4180
0180
0100
0300
0200
0400
0800
1040
7F80
FF80
ENDCHAR
STARTCHAR 00B3
ENCODING 179
SWIDTH 288 0
DWIDTH 10 0
BBX 8 12 1 11
BITMAP
7C
86
06
06
0C
3E
07
03
03
02
C6
F8
ENDCHAR
STARTCHAR 00B4
ENCODING 180
SWIDTH 345 0
DWIDTH 12 0
BBX 6 6 4 18
BITMAP
3C
78
70
60
40
80
ENDCHAR
STARTCHAR 00B5
ENCODING 181
SWIDTH 576 0
DWIDTH 20 0
BBX 16 23 2 -7
BITMAP
7038
7038
7038
7038
7038
7038
7038
7038
7038
7038
7038
7038
7038
7859
7F9D
7F1F
6000
6000
6000
6000
E000
E000
E000
ENDCHAR
STARTCHAR 00B6
ENCODING 182
SWIDTH 460 0
DWIDTH 16 0
BBX 16 30 0 -7
BITMAP
0FFF
3F8C
7F8C
FF8C
FF8C
FF8C
FF8C
FF8C
FF8C
FF8C
7F8C
3F8C
078C
008C
008C
008C
008C
008C
008C
008C
008C
008C
008C
008C
008C
008C
008C
008C
008C
008C
ENDCHAR
STARTCHAR 00B7
ENCODING 183
SWIDTH 259 0
DWIDTH 9 0
BBX 4 3 2 10
BITMAP
70
F0
70
ENDCHAR
STARTCHAR 00B8
ENCODING 184
SWIDTH 345 0
DWIDTH 12 0
BBX 5 7 3 -7
BITMAP
10
30
78
18
18
38
E0
ENDCHAR
STARTCHAR 00B9
ENCODING 185
SWIDTH 288 0
DWIDTH 10 0
BBX 5 12 3 11
BITMAP
E0
60
60
60
60
60
60
60
60
60
60
F8
ENDCHAR
STARTCHAR 00BA
ENCODING 186
SWIDTH 316 0
DWIDTH 11 0
BBX 9 10 1 13
BITMAP
3E00
4300
C380
C180
C180
C180
C180
E100
7200
1C00
ENDCHAR
STARTCHAR 00BB
ENCODING 187
SWIDTH 489 0
DWIDTH 17 0
BBX 15 16 1 0
BITMAP
8080
40C0
6060
3060
3830
1C38
1C1C
0E0E
0E0E
0E1C
1C18
3838
3030
6060
4040
C080
ENDCHAR
STARTCHAR 00BC
ENCODING 188
SWIDTH 748 0
DWIDTH 26 0
BBX 22 24 3 -1
BITMAP
E00040
6000C0
600180
600100
600300
600200
600400
600C00
600800
601000
603000
F82018
004038
00C038
008058
018098
030118
020318
060618
0C07FC
0807FC
180018
300018
200018
ENDCHAR
STARTCHAR 00BD
ENCODING 189
SWIDTH 748 0
DWIDTH 26 0
BBX 22 24 3 -1
BITMAP
E000C0
600080
600180
600300
600200
600600
600C00
600800
601800
601000
602000
F86040
0041F0
008238
018418
010018
020018
060010
040020
0C0060
180080
100104
3003FC
6007F8
ENDCHAR
STARTCHAR 00BE
ENCODING 190
SWIDTH 748 0
DWIDTH 26 0
BBX 24 24 1 -1
BITMAP
7C0010
860020
060060
060040
0C0080
3E0180
070100
030200
030600
020400
C60C00
F81806
00100E
00300E
006016
004026
00C046
0080C6
010186
0301FF
0201FF
040006
0C0006
080006
ENDCHAR
STARTCHAR 00BF
ENCODING 191
SWIDTH 432 0
DWIDTH 15 0
BBX 12 23 2 -6
BITMAP
0E00
0F00
0E00
0000
0000
0400
0400
0400
0400
0800
0800
1800
3000
7000
6000
E000
E060
E070
E070
E030
E030
7060
3FC0
ENDCHAR
STARTCHAR 00C0
ENCODING 192
SWIDTH 720 0
DWIDTH 25 0
BBX 25 30 0 0
BITMAP
00780000
00380000
00180000
000C0000
00040000
00000000
00080000
00080000
001C0000
001C0000
003C0000
003E0000
002E0000
006F0000
00470000
00C78000
00878000
01838000
0183C000
0101C000
0301E000
03FFE000
0600E000
0400F000
0C007000
0C007800
08003800
18003C00
38003C00
FF00FF80
ENDCHAR
STARTCHAR 00C1
ENCODING 193
SWIDTH 720 0
DWIDTH 25 0
BBX 25 30 0 0
BITMAP
000F0000
000E0000
000C0000
00180000
00100000
00000000
00080000
00080000
001C0000
001C0000
003C0000
003E0000
002E0000
006F0000
00470000
00C78000
00878000
01838000
0183C000
0101C000
0301E000
03FFE000
0600E000
0400F000
0C007000
0C007800
08003800
18003C00
38003C00
FF00FF80
ENDCHAR
STARTCHAR 00C2
ENCODING 194
SWIDTH 720 0
DWIDTH 25 0
BBX 25 30 0 0
BITMAP
003E0000
003E0000
00670000
00430000
00808000
00000000
00080000
00080000
001C0000
001C0000
003C0000
003E0000
002E0000
006F0000
00470000
00C78000
00878000
01838000
0183C000
0101C000
0301E000
03FFE000
0600E000
0400F000
0C007000
0C007800
08003800
18003C00
38003C00
FF00FF80
ENDCHAR
STARTCHAR 00C3
ENCODING 195
SWIDTH 720 0
DWIDTH 25 0
BBX 25 29 0 0
BITMAP
00F84000
00FC4000
011F8000
010F8000
00000000
00080000
00080000
001C0000
001C0000
003C0000
003E0000
002E0000
006F0000
00470000
00C78000
00878000
01838000
0183C000
0101C000
0301E000
03FFE000
0600E000
0400F000
0C007000
0C007800
08003800
18003C00
38003C00
FF00FF80
ENDCHAR
STARTCHAR 00C4
ENCODING 196
SWIDTH 720 0
DWIDTH 25 0
BBX 25 29 0 0
BITMAP
00E38000
00E38000
00E38000
00410000
00000000
00080000
00080000
001C0000
001C0000
003C0000
003E0000
002E0000
006F0000
00470000
00C78000
00878000
01838000
0183C000
0101C000
0301E000
03FFE000
0600E000
0400F000
0C007000
0C007800
08003800
18003C00
38003C00
FF00FF80
ENDCHAR
STARTCHAR 00C5
ENCODING 197
SWIDTH 720 0
DWIDTH 25 0
BBX 25 29 0 0
BITMAP
001C0000
00360000
00630000
00430000
00620000
003E0000
00180000
001C0000
001C0000
003C0000
003E0000
002E0000
006F0000
00470000
00C78000
00878000
01838000
0183C000
0101C000
0301E000
03FFE000
0600E000
0400F000
0C007000
0C007800
08003800
18003C00
38003C00
FF00FF80
ENDCHAR
STARTCHAR 00C6
ENCODING 198
SWIDTH 892 0
DWIDTH 31 0
BBX 30 23 0 0
BITMAP
007FFFF0
000F8070
000F8010
000B8010
00138010
00338000
00238000
00638040
00438040
00C38040
0083FFC0
0183FFC0
01038040
03FF8040
02038040
06038000
04038000
0C038004
08038008
18038008
30038018
3003C078
FE1FFFF0
ENDCHAR
STARTCHAR 00C7
ENCODING 199
SWIDTH 662 0
DWIDTH 23 0
BBX 21 31 1 -7
BITMAP
000010
01FF10
0780F0
0E0070
1C0030
3C0010
380010
780010
780000
700000
F00000
F00000
F00000
F00000
F00000
700000
780000
780000
380008
3C0010
1E0010
0F0020
07C0C0
03FF00
003000
003000
007800
001800
001800
003000
00C000
ENDCHAR
STARTCHAR 00C8
ENCODING 200
SWIDTH 604 0
DWIDTH 21 0
BBX 19 30 1 0
BITMAP
03C000
00C000
00E000
006000
002000
000000
000000
FFFF80
1C01C0
1C00C0
1C0040
1C0040
1C0000
1C0000
1C0100
1C0100
1C0300
1FFF00
1FFF00
1C0300
1C0100
1C0100
1C0000
1C0000
1C0000
1C0020
1C0060
1C00C0
1E01C0
FFFFC0
ENDCHAR
STARTCHAR 00C9
ENCODING 201
SWIDTH 604 0
DWIDTH 21 0
BBX 19 30 1 0
BITMAP
007800
007000
006000
00C000
008000
000000
000000
FFFF80
1C01C0
1C00C0
1C0040
1C0040
1C0000
1C0000
1C0100
1C0100
1C0300
1FFF00
1FFF00
1C0300
1C0100
1C0100
1C0000
1C0000
1C0000
1C0020
1C0060
1C00C0
1E01C0
FFFFC0
ENDCHAR
STARTCHAR 00CA
ENCODING 202
SWIDTH 604 0
DWIDTH 21 0
BBX 19 30 1 0
BITMAP
00F000
01F000
033800
020800
040400
000000
000000
FFFF80
1C01C0
1C00C0
1C0040
1C0040
1C0000
1C0000
1C0100
1C0100
1C0300
1FFF00
1FFF00
1C0300
1C0100
1C0100
1C0000
1C0000
1C0000
1C0020
1C0060
1C00C0
1E01C0
FFFFC0
ENDCHAR
STARTCHAR 00CB
ENCODING 203
SWIDTH 604 0
DWIDTH 21 0
BBX 19 29 1 0
BITMAP
071C00
071C00
071C00
030800
000000
000000
FFFF80
1C01C0
1C00C0
1C0040
1C0040
1C0000
1C0000
1C0100
1C0100
1C0300
1FFF00
1FFF00
1C0300
1C0100
1C0100
1C0000
1C0000
1C0000
1C0020
1C0060
1C00C0
1E01C0
FFFFC0
ENDCHAR
STARTCHAR 00CC
ENCODING 204
SWIDTH 345 0
DWIDTH 12 0
BBX 10 30 1 0
BITMAP
3800
1800
0C00
0C00
0400
0000
0000
FFC0
1E00
1E00
1C00
1C00
1C00
1C00
1C00
1C00
1C00
1C00
1C00
1C00
1C00
1C00
1C00
1C00
1C00
1C00
1C00
1E00
1E00
FFC0
ENDCHAR
STARTCHAR 00CD
ENCODING 205
SWIDTH 345 0
DWIDTH 12 0
BBX 10 30 1 0
BITMAP
0F00
0E00
0C00
0800
1000
0000
0000
FFC0
1E00
1E00
1C00
1C00
1C00
1C00
1C00
1C00
1C00
1C00
1C00
1C00
1C00
1C00
1C00
1C00
1C00
1C00
1C00
1E00
1E00
FFC0
ENDCHAR
STARTCHAR 00CE
ENCODING 206
SWIDTH 345 0
DWIDTH 12 0
BBX 10 30 1 0
BITMAP
1E00
3E00
2300
4180
8080
0000
0000
FFC0
1E00
1E00
1C00
1C00
1C00
1C00
1C00
1C00
1C00
1C00
1C00
1C00
1C00
1C00
1C00
1C00
1C00
1C00
1C00
1E00
1E00
FFC0
ENDCHAR
STARTCHAR 00CF
ENCODING 207
SWIDTH 345 0
DWIDTH 12 0
BBX 10 29 1 0
BITMAP
6180
F3C0
F380
6180
0000
0000
FFC0
1E00
1E00
1C00
1C00
1C00
1C00
1C00
1C00
1C00
1C00
1C00
1C00
1C00
1C00
1C00
1C00
1C00
1C00
1C00
1E00
1E00
FFC0
ENDCHAR
STARTCHAR 00D0
ENCODING 208
SWIDTH 720 0
DWIDTH 25 0
BBX 23 23 1 0
BITMAP
FFFE00
3F0F80
1C03E0
1C00F0
1C0078
1C0078
1C003C
1C003C
1C001C
1C001E
FFF81E
FFF81E
1C001E
1C001E
1C001C
1C003C
1C003C
1C0078
1C0078
1C00F0
1C01E0
3F0F80
FFFC00
ENDCHAR
STARTCHAR 00D1
ENCODING 209
SWIDTH 720 0
DWIDTH 25 0
BBX 25 29 0 0
BITMAP
00F84000
00FC4000
011F8000
010F8000
00000000
00000000
FC007F80
1E001C00
0F000800
0F800800
0F800800
0FC00800
0DE00800
0CF00800
0C780800
0C7C0800
0C3C0800
0C1E0800
0C0F0800
0C078800
0C07C800
0C03C800
0C01E800
0C00F800
0C007800
0C003800
0C003800
0C001800
7F800800
ENDCHAR
STARTCHAR 00D2
ENCODING 210
SWIDTH 720 0
DWIDTH 25 0
BBX 23 31 1 -1
BITMAP
00F000
007000
003000
001800
000800
000000
000000
01FF00
0701C0
0E00E0
1C0070
380078
380038
78003C
70003C
70001C
F0001E
F0001E
F0001E
F0001E
F0001E
70001C
78001C
78003C
380038
3C0038
1C0070
0E00E0
0701C0
01FF00
001000
ENDCHAR
STARTCHAR 00D3
ENCODING 211
SWIDTH 720 0
DWIDTH 25 0
BBX 23 31 1 -1
BITMAP
001E00
001C00
001800
003000
002000
000000
000000
01FF00
0701C0
0E00E0
1C0070
380078
380038
78003C
70003C
70001C
F0001E
F0001E
F0001E
F0001E
F0001E
70001C
78001C
78003C
380038
3C0038
1C0070
0E00E0
0701C0
01FF00
001000
ENDCHAR
STARTCHAR 00D4
ENCODING 212
SWIDTH 720 0
DWIDTH 25 0
BBX 23 31 1 -1
BITMAP
007C00
007C00
00CE00
008600
010100
000000
000000
01FF00
0701C0
0E00E0
1C0070
380078
380038
78003C
70003C
70001C
F0001E
F0001E
F0001E
F0001E
F0001E
70001C
78001C
78003C
380038
3C0038
1C0070
0E00E0
0701C0
01FF00
001000
ENDCHAR
STARTCHAR 00D5
ENCODING 213
SWIDTH 720 0
DWIDTH 25 0
BBX 23 30 1 -1
BITMAP
01F080
01F880
023F00
021E00
000000
000000
01FF00
0701C0
0E00E0
1C0070
380078
380038
78003C
70003C
70001C
F0001E
F0001E
F0001E
F0001E
F0001E
70001C
78001C
78003C
380038
3C0038
1C0070
0E00E0
0701C0
01FF00
001000
ENDCHAR
STARTCHAR 00D6
ENCODING 214
SWIDTH 720 0
DWIDTH 25 0
BBX 23 30 1 -1
BITMAP
01C700
01C700
01C700
008200
000000
000000
01FF00
0701C0
0E00E0
1C0070
380078
380038
78003C
70003C
70001C
F0001E
F0001E
F0001E
F0001E
F0001E
70001C
78001C
78003C
380038
3C0038
1C0070
0E00E0
0701C0
01FF00
001000
ENDCHAR
STARTCHAR 00D7
ENCODING 215
SWIDTH 576 0
DWIDTH 20 0
BBX 14 13 3 5
BITMAP
C00C
6018
3030
1860
0CC0
0780
0300
0780
0CC0
1860
3030
6018
C00C
ENDCHAR
STARTCHAR 00D8
ENCODING 216
SWIDTH 720 0
DWIDTH 25 0
BBX 23 25 1 -1
BITMAP
000008
01FF08
0701D0
0E00F0
1C0070
3800F8
3800B8
78013C
70033C
70061E
F00C1E
F0081E
F0101E
F0301E
F0601E
70C01C
79801C
79003C
3B0038
3E0038
1C0070
1E00E0
1701C0
21FF00
201000
ENDCHAR
STARTCHAR 00D9
ENCODING 217
SWIDTH 720 0
DWIDTH 25 0
BBX 25 31 0 -1
BITMAP
003C0000
001C0000
000C0000
00060000
00020000
00000000
00000000
FFC07F80
1E001C00
1E000C00
1E000800
0E000800
0E000800
0E000800
0E000800
0E000800
0E000800
0E000800
0E000800
0E000800
0E000800
0E000800
0E000800
0E000800
0E000800
0E001800
0F001000
07003000
03C0E000
01FF8000
00080000
ENDCHAR
STARTCHAR 00DA
ENCODING 218
SWIDTH 720 0
DWIDTH 25 0
BBX 25 31 0 -1
BITMAP
000F0000
000E0000
000C0000
00180000
00100000
00000000
00000000
FFC07F80
1E001C00
1E000C00
1E000800
0E000800
0E000800
0E000800
0E000800
0E000800
0E000800
0E000800
0E000800
0E000800
0E000800
0E000800
0E000800
0E000800
0E000800
0E001800
0F001000
07003000
03C0E000
01FF8000
00080000
ENDCHAR
STARTCHAR 00DB
ENCODING 219
SWIDTH 720 0
DWIDTH 25 0
BBX 25 31 0 -1
BITMAP
001E0000
001F0000
00338000
00618000
00404000
00000000
00000000
FFC07F80
1E001C00
1E000C00
1E000800
0E000800
0E000800
0E000800
0E000800
0E000800
0E000800
0E000800
0E000800
0E000800
0E000800
0E000800
0E000800
0E000800
0E000800
0E001800
0F001000
07003000
03C0E000
01FF8000
00080000
ENDCHAR
STARTCHAR 00DC
ENCODING 220
SWIDTH 720 0
DWIDTH 25 0
BBX 25 30 0 -1
BITMAP
00618000
0073C000
0071C000
00618000
00000000
00000000
FFC07F80
1E001C00
1E000C00
1E000800
0E000800
0E000800
0E000800
0E000800
0E000800
0E000800
0E000800
0E000800
0E000800
0E000800
0E000800
0E000800
0E000800
0E000800
0E001800
0F001000
07003000
03C0E000
01FF8000
00080000
ENDCHAR
STARTCHAR 00DD
ENCODING 221
SWIDTH 720 0
DWIDTH 25 0
BBX 25 30 0 0
BITMAP
00070000
000E0000
000C0000
00080000
00080000
00000000
00000000
FFC07F80
1F001C00
1F001800
0F001000
07803000
07806000
03C04000
01E0C000
01E18000
00F10000
007B0000
007E0000
003E0000
001C0000
001C0000
001C0000
001C0000
001C0000
001C0000
001C0000
001C0000
003C0000
00FF8000
ENDCHAR
STARTCHAR 00DE
ENCODING 222
SWIDTH 547 0
DWIDTH 19 0
BBX 17 23 1 0
BITMAP
FF8000
3E0000
1C0000
1C0000
1C0000
1FE000
1FFC00
1C1E00
1C0F00
1C0780
1C0780
1C0780
1C0780
1C0780
1C0F00
1C1E00
1CFC00
1FF000
1C0000
1C0000
1C0000
3E0000
FF8000
ENDCHAR
STARTCHAR 00DF
ENCODING 223
SWIDTH 489 0
DWIDTH 17 0
BBX 15 24 1 0
BITMAP
07E0
0C70
1838
381C
381C
381C
381C
3818
3838
3870
39F0
3878
381C
381E
380E
380E
380E
380E
380E
380E
398E
3B8C
3998
F9F0
ENDCHAR
STARTCHAR 00E0
ENCODING 224
SWIDTH 432 0
DWIDTH 15 0
BBX 14 24 1 0
BITMAP
1E00
0F00
0700
0300
0100
0080
0000
0000
0F80
38E0
70E0
7070
7070
0070
01F0
0670
1870
7070
6070
E070
E070
F0F4
7F7C
3E78
ENDCHAR
STARTCHAR 00E1
ENCODING 225
SWIDTH 432 0
DWIDTH 15 0
BBX 14 24 1 0
BITMAP
01E0
03C0
0380
0300
0200
0400
0000
0000
0F80
38E0
70E0
7070
7070
0070
01F0
0670
1870
7070
6070
E070
E070
F0F4
7F7C
3E78
ENDCHAR
STARTCHAR 00E2
ENCODING 226
SWIDTH 432 0
DWIDTH 15 0
BBX 14 23 1 0
BITMAP
0780
0F80
08C0
1060
2020
0000
0000
0F80
38E0
70E0
7070
7070
0070
01F0
0670
1870
7070
6070
E070
E070
F0F4
7F7C
3E78
ENDCHAR
STARTCHAR 00E3
ENCODING 227
SWIDTH 432 0
DWIDTH 15 0
BBX 14 23 1 0
BITMAP
1C00
3F10
27F0
43E0
0000
0000
0000
0F80
38E0
70E0
7070
7070
0070
01F0
0670
1870
7070
6070
E070
E070
F0F4
7F7C
3E78
ENDCHAR
STARTCHAR 00E4
ENCODING 228
SWIDTH 432 0
DWIDTH 15 0
BBX 14 23 1 0
BITMAP
1860
3CE0
3CF0
38E0
0000
0000
0000
0F80
38E0
70E0
7070
7070
0070
01F0
0670
1870
7070
6070
E070
E070
F0F4
7F7C
3E78
ENDCHAR
STARTCHAR 00E5
ENCODING 229
SWIDTH 432 0
DWIDTH 15 0
BBX 14 24 1 0
BITMAP
0780
08C0
0840
0840
08C0
0780
0000
0000
0F80
38E0
70E0
7070
7070
0070
01F0
0670
1870
7070
6070
E070
E070
F0F4
7F7C
3E78
ENDCHAR
STARTCHAR 00E6
ENCODING 230
SWIDTH 662 0
DWIDTH 23 0
BBX 21 16 1 0
BITMAP
0F87C0
30E8E0
70F070
707038
707038
007FF8
01E000
066000
186000
307000
607008
E07008
E07810
F07C30
79BFE0
7F1FC0
ENDCHAR
STARTCHAR 00E7
ENCODING 231
SWIDTH 432 0
DWIDTH 15 0
BBX 13 23 1 -7
BITMAP
07C0
18F0
3078
7078
6038
6000
E000
E000
E000
E000
F000
7008
7810
3C30
3FE0
0FC0
0200
0300
0780
0180
0180
0300
0C00
ENDCHAR
STARTCHAR 00E8
ENCODING 232
SWIDTH 432 0
DWIDTH 15 0
BBX 13 24 1 0
BITMAP
0F00
0700
0300
0380
0180
0080
0000
0000
07C0
18F0
3070
6038
6038
7FF8
E000
E000
E000
E000
F008
7008
7818
3E30
3FE0
0FC0
ENDCHAR
STARTCHAR 00E9
ENCODING 233
SWIDTH 432 0
DWIDTH 15 0
BBX 13 24 1 0
BITMAP
01E0
01C0
0380
0300
0200
0400
0000
0000
07C0
18F0
3070
6038
6038
7FF8
E000
E000
E000
E000
F008
7008
7818
3E30
3FE0
0FC0
ENDCHAR
STARTCHAR 00EA
ENCODING 234
SWIDTH 432 0
DWIDTH 15 0
BBX 13 23 1 0
BITMAP
07C0
07C0
0CE0
0820
1010
0000
0000
07C0
18F0
3070
6038
6038
7FF8
E000
E000
E000
E000
F008
7008
7818
3E30
3FE0
0FC0
ENDCHAR
STARTCHAR 00EB
ENCODING 235
SWIDTH 432 0
DWIDTH 15 0
BBX 13 23 1 0
BITMAP
0820
1C70
1C70
1C70
0000
0000
0000
07C0
18F0
3070
6038
6038
7FF8
E000
E000
E000
E000
F008
7008
7818
3E30
3FE0
0FC0
ENDCHAR
STARTCHAR 00EC
ENCODING 236
SWIDTH 288 0
DWIDTH 10 0
BBX 8 24 1 0
BITMAP
F0
70
38
18
08
04
00
00
18
78
38
18
18
18
18
18
18
18
18
18
18
18
3C
FF
ENDCHAR
STARTCHAR 00ED
ENCODING 237
SWIDTH 288 0
DWIDTH 10 0
BBX 8 24 1 0
BITMAP
0E
1E
1C
18
30
20
00
00
18
78
38
18
18
18
18
18
18
18
18
18
18
18
3C
FF
ENDCHAR
STARTCHAR 00EE
ENCODING 238
SWIDTH 288 0
DWIDTH 10 0
BBX 9 23 0 0
BITMAP
1E00
3F00
3300
4180
8080
0000
0000
0C00
3C00
1C00
0C00
0C00
0C00
0C00
0C00
0C00
0C00
0C00
0C00
0C00
0C00
1E00
7F80
ENDCHAR
STARTCHAR 00EF
ENCODING 239
SWIDTH 288 0
DWIDTH 10 0
BBX 10 23 0 0
BITMAP
6180
F3C0
F3C0
6180
0000
0000
0000
0C00
3C00
1C00
0C00
0C00
0C00
0C00
0C00
0C00
0C00
0C00
0C00
0C00
0C00
1E00
7F80
ENDCHAR
STARTCHAR 00F0
ENCODING 240
SWIDTH 489 0
DWIDTH 17 0
BBX 15 24 1 0
BITMAP
1810
0C70
07C0
0380
0DC0
38E0
0070
0070
07B8
1CF8
303C
301C
701E
601E
E00E
E00E
E00E
F00E
F00E
700C
700C
3818
1C30
0FE0
ENDCHAR
STARTCHAR 00F1
ENCODING 241
SWIDTH 489 0
DWIDTH 17 0
BBX 17 23 0 0
BITMAP
070400
0FC400
11FC00
10F800
000000
000000
000000
0C7800
7DFC00
BF1C00
1C0E00
1C0E00
1C0E00
1C0E00
1C0E00
1C0E00
1C0E00
1C0E00
1C0E00
1C0E00
1C0E00
1C0E00
FF3F80
ENDCHAR
STARTCHAR 00F2
ENCODING 242
SWIDTH 489 0
DWIDTH 17 0
BBX 15 24 1 0
BITMAP
0F00
0700
0380
0180
0080
0080
0000
0000
07C0
1C70
3038
301C
701C
600E
E00E
E00E
E00E
F00E
F00E
700C
780C
3818
1C38
0FE0
ENDCHAR
STARTCHAR 00F3
ENCODING 243
SWIDTH 489 0
DWIDTH 17 0
BBX 15 24 1 0
BITMAP
01E0
01C0
0180
0180
0300
0200
0000
0000
07C0
1C70
3038
301C
701C
600E
E00E
E00E
E00E
F00E
F00E
700C
780C
3818
1C38
0FE0
ENDCHAR
STARTCHAR 00F4
ENCODING 244
SWIDTH 489 0
DWIDTH 17 0
BBX 15 23 1 0
BITMAP
03C0
07E0
0460
0830
1010
0000
0000
07C0
1C70
3038
301C
701C
600E
E00E
E00E
E00E
F00E
F00E
700C
780C
3818
1C38
0FE0
ENDCHAR
STARTCHAR 00F5
ENCODING 245
SWIDTH 489 0
DWIDTH 17 0
BBX 15 23 1 0
BITMAP
0E08
1F88
23F8
21F0
0000
0000
0000
07C0
1C70
3038
301C
701C
600E
E00E
E00E
E00E
F00E
F00E
700C
780C
3818
1C38
0FE0
ENDCHAR
STARTCHAR 00F6
ENCODING 246
SWIDTH 489 0
DWIDTH 17 0
BBX 15 23 1 0
BITMAP
0820
1C70
1C70
1C70
0000
0000
0000
07C0
1C70
3038
301C
701C
600E
E00E
E00E
E00E
F00E
F00E
700C
780C
3818
1C38
0FE0
ENDCHAR
STARTCHAR 00F7
ENCODING 247
SWIDTH 547 0
DWIDTH 19 0
BBX 19 13 0 5
BITMAP
00E000
00E000
004000
000000
000000
000000
FFFFE0
000000
000000
000000
004000
00E000
00E000
ENDCHAR
STARTCHAR 00F8
ENCODING 248
SWIDTH 489 0
DWIDTH 17 0
BBX 15 17 1 0
BITMAP
07C2
0C74
383C
301C
703E
606E
E0CE
E08E
F10E
F20E
740E
7C0E
780C
3818
7C38
CFE0
8000
ENDCHAR
STARTCHAR 00F9
ENCODING 249
SWIDTH 489 0
DWIDTH 17 0
BBX 17 24 0 0
BITMAP
078000
038000
01C000
00C000
004000
006000
000000
000000
F87E00
381E00
180E00
180E00
180E00
180E00
180E00
180E00
180E00
180E00
180E00
1C0E00
1C0E00
1C3E00
1FEF80
0F8E00
ENDCHAR
STARTCHAR 00FA
ENCODING 250
SWIDTH 489 0
DWIDTH 17 0
BBX 17 24 0 0
BITMAP
00F000
00E000
01C000
018000
010000
010000
000000
000000
F87E00
381E00
180E00
180E00
180E00
180E00
180E00
180E00
180E00
180E00
180E00
1C0E00
1C0E00
1C3E00
1FEF80
0F8E00
ENDCHAR
STARTCHAR 00FB
ENCODING 251
SWIDTH 489 0
DWIDTH 17 0
BBX 17 23 0 0
BITMAP
01E000
03E000
063000
041800
080800
000000
000000
F87E00
381E00
180E00
180E00
180E00
180E00
180E00
180E00
180E00
180E00
180E00
1C0E00
1C0E00
1C3E00
1FEF80
0F8E00
ENDCHAR
STARTCHAR 00FC
ENCODING 252
SWIDTH 489 0
DWIDTH 17 0
BBX 17 23 0 0
BITMAP
041000
0E3800
0E3800
0E3800
000000
000000
000000
F87E00
381E00
180E00
180E00
180E00
180E00
180E00
180E00
180E00
180E00
180E00
1C0E00
1C0E00
1C3E00
1FEF80
0F8E00
ENDCHAR
STARTCHAR 00FD
ENCODING 253
SWIDTH 489 0
DWIDTH 17 0
BBX 17 31 0 -7
BITMAP
007000
00F000
00E000
00C000
018000
010000
000000
000000
FE0F80
7C0700
3C0200
1C0600
1C0400
0E0400
0E0C00
070800
071800
039000
03B000
01F000
01E000
00E000
00C000
00C000
00C000
008000
018000
010000
7B0000
7E0000
7C0000
ENDCHAR
STARTCHAR 00FE
ENCODING 254
SWIDTH 489 0
DWIDTH 17 0
BBX 16 31 0 -7
BITMAP
1800
7800
B800
1800
1800
1800
1800
1800
18F8
19FC
1BFE
1A1E
1C0F
1807
1807
1807
1807
1807
1807
1807
1806
1C0E
1C1C
1BF8
1800
1800
1800
1800
1800
3C00
FF00
ENDCHAR
STARTCHAR 00FF
ENCODING 255
SWIDTH 489 0
DWIDTH 17 0
BBX 17 30 0 -7
BITMAP
020800
071C00
0F3C00
071C00
000000
000000
000000
FE0F80
7C0700
3C0200
1C0600
1C0400
0E0400
0E0C00
070800
071800
039000
03B000
01F000
01E000
00E000
00C000
00C000
00C000
008000
018000
010000
7B0000
7E0000
7C0000
ENDCHAR
STARTCHAR 0100
ENCODING 256
SWIDTH 720 0
DWIDTH 25 0
BBX 25 28 0 0
BITMAP
01FFC000
01FFC000
00000000
00000000
00080000
00080000
001C0000
001C0000
003C0000
003E0000
002E0000
006F0000
00470000
00C78000
00878000
01838000
0183C000
0101C000
0301E000
03FFE000
0600E000
0400F000
0C007000
0C007800
08003800
18003C00
38003C00
FF00FF80
ENDCHAR
STARTCHAR 0101
ENCODING 257
SWIDTH 432 0
DWIDTH 15 0
BBX 14 21 1 0
BITMAP
7FF0
7FF0
0000
0000
0000
0F80
38E0
70E0
7070
7070
0070
01F0
0670
1870
7070
6070
E070
E070
F0F4
7F7C
3E78
ENDCHAR
STARTCHAR 0102
ENCODING 258
SWIDTH 720 0
DWIDTH 25 0
BBX 25 29 0 1
BITMAP
00808000
00FF8000
007F0000
003C0000
00000000
00080000
00080000
001C0000
001C0000
003C0000
003E0000
002E0000
006F0000
00470000
00C78000
00878000
01838000
0183C000
0101C000
0301E000
03FFE000
0600E000
0400F000
0C007000
0C007800
08003800
18003C00
38003C00
FF00FF80
ENDCHAR
STARTCHAR 0103
ENCODING 259
SWIDTH 432 0
DWIDTH 15 0
BBX 14 23 1 0
BITMAP
2020
3020
1FE0
1FC0
0700
0000
0000
0F80
38E0
70E0
7070
7070
0070
01F0
0670
1870
7070
6070
E070
E070
F0F4
7F7C
3E78
ENDCHAR
STARTCHAR 0104
ENCODING 260
SWIDTH 720 0
DWIDTH 25 0
BBX 25 30 0 -6
BITMAP
00080000
00080000
001C0000
001C0000
003C0000
003E0000
002E0000
006F0000
00470000
00C78000
00878000
01838000
0183C000
0101C000
0301E000
03FFE000
0600E000
0400F000
0C007000
0C007800
08003800
18003C00
38003C00
FF00FF80
00002000
00002000
00006000
00007000
00003C80
00001F00
ENDCHAR
STARTCHAR 0105
ENCODING 261
SWIDTH 432 0
DWIDTH 15 0
BBX 16 22 1 -6
BITMAP
0F80
38E0
70E0
7070
7070
0070
01F0
0670
1870
7070
6070
E070
E070
F0F4
7F7C
3E78
0060
0060
0060
0060
0079
003E
ENDCHAR
STARTCHAR 0106
ENCODING 262
SWIDTH 662 0
DWIDTH 23 0
BBX 21 31 1 -1
BITMAP
001E00
001C00
001800
001000
002000
000000
000010
01FF10
0780F0
0E0070
1C0030
3C0010
380010
780010
780000
700000
F00000
F00000
F00000
F00000
F00000
700000
780000
780000
380008
3C0010
1E0010
0F0020
07C0C0
03FF00
001000
ENDCHAR
STARTCHAR 0107
ENCODING 263
SWIDTH 432 0
DWIDTH 15 0
BBX 13 24 1 0
BITMAP
01E0
01C0
0180
0300
0300
0200
0000
0000
07C0
18F0
3078
7078
6038
6000
E000
E000
E000
E000
F000
7008
7810
3C30
3FE0
0FC0
ENDCHAR
STARTCHAR 0108
ENCODING 264
SWIDTH 662 0
DWIDTH 23 0
BBX 21 32 1 -1
BITMAP
007800
007800
00DC00
008E00
010200
020100
000000
000010
01FF10
0780F0
0E0070
1C0030
3C0010
380010
780010
780000
700000
F00000
F00000
F00000
F00000
F00000
700000
780000
780000
380008
3C0010
1E0010
0F0020
07C0C0
03FF00
001000
ENDCHAR
STARTCHAR 0109
ENCODING 265
SWIDTH 432 0
DWIDTH 15 0
BBX 13 23 1 0
BITMAP
0780
0F80
18C0
1060
2020
0000
0000
07C0
18F0
3078
7078
6038
6000
E000
E000
E000
E000
F000
7008
7810
3C30
3FE0
0FC0
ENDCHAR
STARTCHAR 010A
ENCODING 266
SWIDTH 662 0
DWIDTH 23 0
BBX 21 30 1 -1
BITMAP
003000
007800
003800
003000
000000
000010
01FF10
0780F0
0E0070
1C0030
3C0010
380010
780010
780000
700000
F00000
F00000
F00000
F00000
F00000
700000
780000
780000
380008
3C0010
1E0010
0F0020
07C0C0
03FF00
001000
ENDCHAR
STARTCHAR 010B
ENCODING 267
SWIDTH 432 0
DWIDTH 15 0
BBX 13 23 1 0
BITMAP
0200
0700
0780
0700
0000
0000
0000
07C0
18F0
3078
7078
6038
6000
E000
E000
E000
E000
F000
7008
7810
3C30
3FE0
0FC0
ENDCHAR
STARTCHAR 010C
ENCODING 268
SWIDTH 662 0
DWIDTH 23 0
BBX 21 31 1 -1
BITMAP
008100
00C300
006600
007C00
003C00
000000
000010
01FF10
0780F0
0E0070
1C0030
3C0010
380010
780010
780000
700000
F00000
F00000
F00000
F00000
F00000
700000
780000
780000
380008
3C0010
1E0010
0F0020
07C0C0
03FF00
001000
ENDCHAR
STARTCHAR 010D
ENCODING 269
SWIDTH 432 0
DWIDTH 15 0
BBX 13 23 1 0
BITMAP
1010
0C60
0EC0
07C0
0780
0000
0000
07C0
18F0
3078
7078
6038
6000
E000
E000
E000
E000
F000
7008
7810
3C30
3FE0
0FC0
ENDCHAR
STARTCHAR 010E
ENCODING 270
SWIDTH 720 0
DWIDTH 25 0
BBX 23 30 1 0
BITMAP
020200
018400
01CC00
00F800
007800
000000
000000
FFFE00
3F0F80
1C03E0
1C00F0
1C0078
1C0078
1C003C
1C003C
1C001E
1C001E
1C001E
1C001E
1C001E
1C001E
1C001C
1C003C
1C003C
1C0078
1C0078
1C00F0
1C01E0
3E0F80
FFFC00
ENDCHAR
STARTCHAR 010F
ENCODING 271
SWIDTH 633 0
DWIDTH 22 0
BBX 21 24 1 0
BITMAP
000C70
007CF8
001CF8
001C58
001C08
001C18
001C10
001C60
07DC00
1C7C00
183C00
301C00
701C00
601C00
E01C00
E01C00
E01C00
E01C00
F01C00
F01C00
781C00
781C00
3F7F00
1FDC00
ENDCHAR
STARTCHAR 0110
ENCODING 272
SWIDTH 720 0
DWIDTH 25 0
BBX 23 23 1 0
BITMAP
FFFE00
3F0F80
1C03E0
1C00F0
1C0078
1C0078
1C003C
1C003C
1C001C
1C001E
FFF81E
FFF81E
1C001E
1C001E
1C001C
1C003C
1C003C
1C0078
1C0078
1C00F0
1C01E0
3F0F80
FFFC00
ENDCHAR
STARTCHAR 0111
ENCODING 273
SWIDTH 489 0
DWIDTH 17 0
BBX 16 24 1 0
BITMAP
0018
0078
00B8
0038
0018
03FF
0018
0018
0798
18F8
3038
7038
6038
E018
E018
E018
E018
E018
E018
E018
F018
783C
3EDF
1F9C
ENDCHAR
STARTCHAR 0112
ENCODING 274
SWIDTH 604 0
DWIDTH 21 0
BBX 19 28 1 0
BITMAP
0FFE00
0FFE00
000000
000000
000000
FFFF80
1C01C0
1C00C0
1C0040
1C0040
1C0000
1C0000
1C0100
1C0100
1C0300
1FFF00
1FFF00
1C0300
1C0100
1C0100
1C0000
1C0000
1C0000
1C0020
1C0060
1C00C0
1E01C0
FFFFC0
ENDCHAR
STARTCHAR 0113
ENCODING 275
SWIDTH 432 0
DWIDTH 15 0
BBX 13 21 1 0
BITMAP
7FF0
7FF0
0000
0000
0000
07C0
18F0
3070
6038
6038
7FF8
E000
E000
E000
E000
F008
7008
7818
3E30
3FE0
0FC0
ENDCHAR
STARTCHAR 0114
ENCODING 276
SWIDTH 604 0
DWIDTH 21 0
BBX 19 30 1 0
BITMAP
040400
060400
03FC00
03F800
00E000
000000
000000
FFFF80
1C01C0
1C00C0
1C0040
1C0040
1C0000
1C0000
1C0100
1C0100
1C0300
1FFF00
1FFF00
1C0300
1C0100
1C0100
1C0000
1C0000
1C0000
1C0020
1C0060
1C00C0
1E01C0
FFFFC0
ENDCHAR
STARTCHAR 0115
ENCODING 277
SWIDTH 432 0
DWIDTH 15 0
BBX 13 23 1 0
BITMAP
2010
3020
1FE0
0FC0
0300
0000
0000
07C0
18F0
3070
6038
6038
7FF8
E000
E000
E000
E000
F008
7008
7818
3E30
3FE0
0FC0
ENDCHAR
STARTCHAR 0116
ENCODING 278
SWIDTH 604 0
DWIDTH 21 0
BBX 19 29 1 0
BITMAP
00E000
00E000
00E000
004000
000000
000000
FFFF80
1C01C0
1C00C0
1C0040
1C0040
1C0000
1C0000
1C0100
1C0100
1C0300
1FFF00
1FFF00
1C0300
1C0100
1C0100
1C0000
1C0000
1C0000
1C0020
1C0060
1C00C0
1E01C0
FFFFC0
ENDCHAR
STARTCHAR 0117
ENCODING 279
SWIDTH 432 0
DWIDTH 15 0
BBX 13 23 1 0
BITMAP
0200
0700
0780
0700
0000
0000
0000
07C0
18F0
3070
6038
6038
7FF8
E000
E000
E000
E000
F008
7008
7818
3E30
3FE0
0FC0
ENDCHAR
STARTCHAR 0118
ENCODING 280
SWIDTH 604 0
DWIDTH 21 0
BBX 19 29 1 -6
BITMAP
FFFF80
1C01C0
1C00C0
1C0040
1C0040
1C0000
1C0000
1C0100
1C0100
1C0300
1FFF00
1FFF00
1C0300
1C0100
1C0100
1C0000
1C0000
1C0000
1C0020
1C0060
1C00C0
1E01C0
FFFFC0
000800
000800
001800
001C00
000F20
0007C0
ENDCHAR
STARTCHAR 0119
ENCODING 281
SWIDTH 432 0
DWIDTH 15 0
BBX 15 22 1 -6
BITMAP
07C0
18F0
3070
6038
6038
7FF8
E000
E000
E000
E000
F008
7008
7818
3E30
3FE0
0FC0
0080
0080
0180
01C0
00F2
007C
ENDCHAR
STARTCHAR 011A
ENCODING 282
SWIDTH 604 0
DWIDTH 21 0
BBX 19 30 1 0
BITMAP
040400
030800
039800
01F000
00F000
000000
000000
FFFF80
1C01C0
1C00C0
1C0040
1C0040
1C0000
1C0000
1C0100
1C0100
1C0300
1FFF00
1FFF00
1C0300
1C0100
1C0100
1C0000
1C0000
1C0000
1C0020
1C0060
1C00C0
1E01C0
FFFFC0
ENDCHAR
STARTCHAR 011B
ENCODING 283
SWIDTH 432 0
DWIDTH 15 0
BBX 13 23 1 0
BITMAP
1030
0C60
0EC0
07C0
0780
0000
0000
07C0
18F0
3070
6038
6038
7FF8
E000
E000
E000
E000
F008
7008
7818
3E30
3FE0
0FC0
ENDCHAR
STARTCHAR 011C
ENCODING 284
SWIDTH 720 0
DWIDTH 25 0
BBX 24 31 1 -1
BITMAP
003C00
003C00
006E00
004700
008100
010080
000000
000000
01FF90
0380F0
0E0038
1E0018
1C0018
380008
780008
780000
700000
F00000
F001FF
F0007C
F00038
F00038
780038
780038
780038
3C0038
3C0038
1E0038
0F0038
078078
01FFE0
ENDCHAR
STARTCHAR 011D
ENCODING 285
SWIDTH 489 0
DWIDTH 17 0
BBX 16 30 1 -7
BITMAP
03C0
07C0
0C60
0830
1010
0000
0000
07C0
187F
383F
3038
7038
701C
7018
3838
3838
1C70
0FC0
1000
3000
3800
3FFC
1FFE
101E
2003
6002
E002
F004
7FF8
3FF0
ENDCHAR
STARTCHAR 011E
ENCODING 286
SWIDTH 720 0
DWIDTH 25 0
BBX 24 30 1 -1
BITMAP
008040
008080
007F80
007F00
001E00
000000
000000
01FF90
0380F0
0E0038
1E0018
1C0018
380008
780008
780000
700000
F00000
F001FF
F0007C
F00038
F00038
780038
780038
780038
3C0038
3C0038
1E0038
0F0038
078078
01FFE0
ENDCHAR
STARTCHAR 011F
ENCODING 287
SWIDTH 489 0
DWIDTH 17 0
BBX 16 30 1 -7
BITMAP
1008
1810
0FF0
07E0
0180
0000
0000
07C0
187F
383F
3038
7038
701C
7018
3838
3838
1C70
0FC0
1000
3000
3800
3FFC
1FFE
101E
2003
6002
E002
F004
7FF8
3FF0
ENDCHAR
STARTCHAR 0120
ENCODING 288
SWIDTH 720 0
DWIDTH 25 0
BBX 24 29 1 -1
BITMAP
001800
003C00
003C00
001800
000000
000000
01FF90
0380F0
0E0038
1E0018
1C0018
380008
780008
780000
700000
F00000
F001FF
F0007C
F00038
F00038
780038
780038
780038
3C0038
3C0038
1E0038
0F0038
078078
01FFE0
ENDCHAR
STARTCHAR 0121
ENCODING 289
SWIDTH 489 0
DWIDTH 17 0
BBX 16 30 1 -7
BITMAP
0100
0380
03C0
0380
0000
0000
0000
07C0
187F
383F
3038
7038
701C
7018
3838
3838
1C70
0FC0
1000
3000
3800
3FFC
1FFE
101E
2003
6002
E002
F004
7FF8
3FF0
ENDCHAR
STARTCHAR 0122
ENCODING 290
SWIDTH 720 0
DWIDTH 25 0
BBX 24 30 1 -6
BITMAP
01FF90
0380F0
0E0038
1E0018
1C0018
380008
780008
780000
700000
F00000
F001FF
F0007C
F00038
F00038
780038
780038
780038
3C0038
3C0038
1E0038
0F0038
078078
01FFE0
001800
001800
003C00
000C00
000C00
001800
006000
ENDCHAR
STARTCHAR 0123
ENCODING 291
SWIDTH 489 0
DWIDTH 17 0
BBX 16 32 1 -7
BITMAP
0180
0200
0200
0380
03C0
0380
0000
0000
0000
07C0
187F
383F
3038
7038
701C
7018
3838
3838
1C70
0FC0
1000
3000
3800
3FFC
1FFE
101E
2003
6002
E002
F004
7FF8
3FF0
ENDCHAR
STARTCHAR 0124
ENCODING 292
SWIDTH 720 0
DWIDTH 25 0
BBX 23 31 1 0
BITMAP
003800
007C00
006C00
00C600
018300
010100
000000
000000
FF83FE
3E00F0
1C0070
1C0070
1C0070
1C0070
1C0070
1C0070
1C0070
1C0070
1C0070
1FFFF0
1C0070
1C0070
1C0070
1C0070
1C0070
1C0070
1C0070
1C0070
1C0070
3E00F0
FF83FE
ENDCHAR
STARTCHAR 0125
ENCODING 293
SWIDTH 489 0
DWIDTH 17 0
BBX 17 31 0 0
BITMAP
01C000
03E000
037000
063000
041800
080000
000000
1C0000
7C0000
3C0000
1C0000
1C0000
1C0000
1C0000
1C0000
1C7800
1DFC00
1F1C00
1C0E00
1C0E00
1C0E00
1C0E00
1C0E00
1C0E00
1C0E00
1C0E00
1C0E00
1C0E00
1C0E00
1C0E00
FF7F80
ENDCHAR
STARTCHAR 0126
ENCODING 294
SWIDTH 720 0
DWIDTH 25 0
BBX 23 23 1 0
BITMAP
FF83FE
3E00F0
1C0070
1C0070
FFFFFE
1C0070
1C0070
1C0070
1C0070
1C0070
1C0070
1FFFF0
1C0070
1C0070
1C0070
1C0070
1C0070
1C0070
1C0070
1C0070
1C0070
1E00F0
FF83FE
ENDCHAR
STARTCHAR 0127
ENCODING 295
SWIDTH 489 0
DWIDTH 17 0
BBX 17 24 0 0
BITMAP
1C0000
7C0000
3C0000
1C0000
1C0000
FFE000
1C0000
1C0000
1C7800
1DFC00
1F1C00
1C0E00
1C0E00
1C0E00
1C0E00
1C0E00
1C0E00
1C0E00
1C0E00
1C0E00
1C0E00
1C0E00
1C0E00
FF7F80
ENDCHAR
STARTCHAR 0128
ENCODING 296
SWIDTH 345 0
DWIDTH 12 0
BBX 11 30 0 0
BITMAP
1000
7E20
5F60
87C0
8180
0000
0000
7FE0
0F00
0F00
0E00
0E00
0E00
0E00
0E00
0E00
0E00
0E00
0E00
0E00
0E00
0E00
0E00
0E00
0E00
0E00
0E00
0F00
0F00
7FE0
ENDCHAR
STARTCHAR 0129
ENCODING 297
SWIDTH 288 0
DWIDTH 10 0
BBX 11 23 -1 0
BITMAP
3800
7E20
4FE0
87C0
0000
0000
0000
0200
1E00
0E00
0600
0600
0600
0600
0600
0600
0600
0600
0600
0600
0700
0F00
3FC0
ENDCHAR
STARTCHAR 012A
ENCODING 298
SWIDTH 345 0
DWIDTH 12 0
BBX 11 28 0 0
BITMAP
FFE0
FFE0
0000
0000
0000
7FE0
0F00
0F00
0E00
0E00
0E00
0E00
0E00
0E00
0E00
0E00
0E00
0E00
0E00
0E00
0E00
0E00
0E00
0E00
0E00
0F00
0F00
7FE0
ENDCHAR
STARTCHAR 012B
ENCODING 299
SWIDTH 288 0
DWIDTH 10 0
BBX 11 21 -1 0
BITMAP
FFE0
FFE0
0000
0000
0000
0200
1E00
0E00
0600
0600
0600
0600
0600
0600
0600
0600
0600
0600
0700
0F00
3FC0
ENDCHAR
STARTCHAR 012C
ENCODING 300
SWIDTH 345 0
DWIDTH 12 0
BBX 10 30 1 0
BITMAP
8040
C080
7F80
3F00
1C00
0000
0000
FFC0
1E00
1E00
1C00
1C00
1C00
1C00
1C00
1C00
1C00
1C00
1C00
1C00
1C00
1C00
1C00
1C00
1C00
1C00
1C00
1E00
1E00
FFC0
ENDCHAR
STARTCHAR 012D
ENCODING 301
SWIDTH 288 0
DWIDTH 10 0
BBX 10 23 0 0
BITMAP
8040
C080
7F80
3F00
0C00
0000
0000
0400
3C00
1C00
0C00
0C00
0C00
0C00
0C00
0C00
0C00
0C00
0C00
0C00
0E00
1E00
7F80
ENDCHAR
STARTCHAR 012E
ENCODING 302
SWIDTH 345 0
DWIDTH 12 0
BBX 10 29 1 -6
BITMAP
FFC0
1E00
1E00
1C00
1C00
1C00
1C00
1C00
1C00
1C00
1C00
1C00
1C00
1C00
1C00
1C00
1C00
1C00
1C00
1C00
1E00
1E00
FFC0
1800
1800
1800
1800
1E40
0F80
ENDCHAR
STARTCHAR 012F
ENCODING 303
SWIDTH 288 0
DWIDTH 10 0
BBX 10 30 1 -6
BITMAP
1800
3C00
1800
0000
0000
0000
0000
0000
1800
7800
3800
1800
1800
1800
1800
1800
1800
1800
1800
1800
1800
1C00
3C00
FF00
1000
3000
3000
3800
1E40
0F80
ENDCHAR
STARTCHAR 0130
ENCODING 304
SWIDTH 345 0
DWIDTH 12 0
BBX 10 29 1 0
BITMAP
0C00
1E00
1E00
0C00
0000
0000
FFC0
1E00
1E00
1C00
1C00
1C00
1C00
1C00
1C00
1C00
1C00
1C00
1C00
1C00
1C00
1C00
1C00
1C00
1C00
1C00
1E00
1E00
FFC0
ENDCHAR
STARTCHAR 0131
ENCODING 305
SWIDTH 288 0
DWIDTH 10 0
BBX 8 16 1 0
BITMAP
18
78
38
18
18
18
18
18
18
18
18
18
18
18
3C
FF
ENDCHAR
STARTCHAR 0132
ENCODING 306
SWIDTH 720 0
DWIDTH 25 0
BBX 23 23 1 -1
BITMAP
FFC3FE
1E0078
1E0070
1C0070
1C0070
1C0070
1C0070
1C0070
1C0070
1C0070
1C0070
1C0070
1C0070
1C0070
1C0070
1C0070
1C0070
1C0070
1C0070
1C0C70
1E1C60
1E1E60
FFCF80
ENDCHAR
STARTCHAR 0133
ENCODING 307
SWIDTH 547 0
DWIDTH 19 0
BBX 15 31 1 -7
BITMAP
180E
3C0E
180E
0000
0000
0000
0000
0000
1806
781E
382E
180E
180E
180E
180E
180E
180E
180E
180E
180E
180E
1C0E
3C0E
FF0E
000E
000E
000E
000E
010C
0388
03F0
ENDCHAR
STARTCHAR 0134
ENCODING 308
SWIDTH 403 0
DWIDTH 14 0
BBX 12 31 1 -1
BITMAP
0780
07C0
0DC0
0860
1020
0010
0000
0000
3FF0
0780
0380
0380
0380
0380
0380
0380
0380
0380
0380
0380
0380
0380
0380
0380
0380
0380
0380
C300
E300
F200
FC00
ENDCHAR
STARTCHAR 0135
ENCODING 309
SWIDTH 288 0
DWIDTH 10 0
BBX 12 30 -3 -7
BITMAP
03C0
07C0
0460
0830
1010
0000
0000
0080
0780
0380
0180
0180
0180
0180
0180
0180
0180
0180
0180
0180
0180
0180
0180
0180
0180
0180
0180
4100
F300
7E00
ENDCHAR
STARTCHAR 0136
ENCODING 310
SWIDTH 720 0
DWIDTH 25 0
BBX 24 30 1 -7
BITMAP
FF87F8
3E01E0
1C0180
1C0300
1C0600
1C0C00
1C1800
1C3000
1C6000
1CC000
1DC000
1FE000
1DF000
1CF800
1C7C00
1C3E00
1C1F00
1C0F80
1C07C0
1C03E0
1C01F0
3E01F8
FF87FF
000000
003800
003C00
000C00
000C00
001800
006000
ENDCHAR
STARTCHAR 0137
ENCODING 311
SWIDTH 489 0
DWIDTH 17 0
BBX 18 31 0 -7
BITMAP
1C0000
7C0000
3C0000
1C0000
1C0000
1C0000
1C0000
1C0000
1C3F80
1C1C00
1C1800
1C3000
1C6000
1CC000
1D0000
1F8000
1DC000
1DE000
1CF000
1C7000
1C3800
1C3C00
1C1E00
FF3FC0
000000
01C000
01E000
006000
006000
00C000
030000
ENDCHAR
STARTCHAR 0138
ENCODING 312
SWIDTH 489 0
DWIDTH 17 0
BBX 18 16 0 0
BITMAP
FF3F80
3C1E00
1C1800
1C3000
1C6000
1CC000
1D0000
1F8000
1DC000
1DE000
1CF000
1C7000
1C3800
1C3C00
1C1E00
FF3FC0
ENDCHAR
STARTCHAR 0139
ENCODING 313
SWIDTH 604 0
DWIDTH 21 0
BBX 19 30 1 0
BITMAP
00E000
01C000
018000
010000
010000
000000
000000
FFC000
1E0000
1C0000
1C0000
1C0000
1C0000
1C0000
1C0000
1C0000
1C0000
1C0000
1C0000
1C0000
1C0000
1C0000
1C0000
1C0000
1C0020
1C0020
1C0060
1C00C0
1F8FC0
FFFFC0
ENDCHAR
STARTCHAR 013A
ENCODING 314
SWIDTH 288 0
DWIDTH 10 0
BBX 8 30 1 0
BITMAP
0E
1C
18
10
20
00
18
78
38
18
18
18
18
18
18
18
18
18
18
18
18
18
18
18
18
18
18
18
3C
FF
ENDCHAR
STARTCHAR 013B
ENCODING 315
SWIDTH 604 0
DWIDTH 21 0
BBX 19 30 1 -7
BITMAP
FFC000
1E0000
1C0000
1C0000
1C0000
1C0000
1C0000
1C0000
1C0000
1C0000
1C0000
1C0000
1C0000
1C0000
1C0000
1C0000
1C0000
1C0020
1C0020
1C0060
1C00C0
1F8FC0
FFFFC0
000000
00E000
00F000
003000
003000
006000
018000
ENDCHAR
STARTCHAR 013C
ENCODING 316
SWIDTH 288 0
DWIDTH 10 0
BBX 8 31 1 -7
BITMAP
18
78
38
18
18
18
18
18
18
18
18
18
18
18
18
18
18
18
18
18
18
18
3C
FF
00
38
3C
0C
0C
1C
70
ENDCHAR
STARTCHAR 013D
ENCODING 317
SWIDTH 604 0
DWIDTH 21 0
BBX 19 23 1 1
BITMAP
FFC780
1E07C0
1C07C0
1C0040
1C00C0
1C0080
1C0180
1C0200
1C0400
1C0000
1C0000
1C0000
1C0000
1C0000
1C0000
1C0000
1C0000
1C0020
1C0020
1C0060
1C00C0
1F8FC0
FFFFC0
ENDCHAR
STARTCHAR 013E
ENCODING 318
SWIDTH 403 0
DWIDTH 14 0
BBX 13 24 1 0
BITMAP
18F0
78F0
38F8
1858
1818
1810
1830
1860
1880
1800
1800
1800
1800
1800
1800
1800
1800
1800
1800
1800
1800
1800
3C00
FF00
ENDCHAR
STARTCHAR 013F
ENCODING 319
SWIDTH 604 0
DWIDTH 21 0
BBX 19 23 1 0
BITMAP
FFC000
1E0000
1C0000
1C0000
1C0000
1C0000
1C0000
1C0000
1C0000
1C0C00
1C1E00
1C1E00
1C0C00
1C0000
1C0000
1C0000
1C0000
1C0020
1C0020
1C0060
1C00C0
1F8FC0
FFFFC0
ENDCHAR
STARTCHAR 0140
ENCODING 320
SWIDTH 345 0
DWIDTH 12 0
BBX 11 24 1 0
BITMAP
1800
7800
3800
1800
1800
1800
1800
1800
1800
1800
1840
18E0
18E0
18C0
1800
1800
1800
1800
1800
1800
1800
1800
3C00
FF00
ENDCHAR
STARTCHAR 0141
ENCODING 321
SWIDTH 604 0
DWIDTH 21 0
BBX 20 23 0 0
BITMAP
7FE000
1F0000
0E0000
0E0000
0E0000
0E0000
0E0000
0E6000
0EC000
0F8000
0F0000
0E0000
1E0000
3E0000
6E0000
CE0000
8E0000
0E0010
0E0010
0E0020
0E0060
1FC7E0
7FFFE0
ENDCHAR
STARTCHAR 0142
ENCODING 322
SWIDTH 288 0
DWIDTH 10 0
BBX 8 24 1 0
BITMAP
08
78
B8
18
18
18
18
18
19
1B
1E
1C
18
78
D8
98
18
18
18
18
18
18
3C
FF
ENDCHAR
STARTCHAR 0143
ENCODING 323
SWIDTH 720 0
DWIDTH 25 0
BBX 25 30 0 0
BITMAP
000E0000
001C0000
00180000
00100000
00300000
00000000
00000000
FC007F80
1E001C00
0F000800
0F800800
0F800800
0FC00800
0DE00800
0CF00800
0C780800
0C7C0800
0C3C0800
0C1E0800
0C0F0800
0C078800
0C07C800
0C03C800
0C01E800
0C00F800
0C007800
0C003800
0C003800
0C001800
7F800800
ENDCHAR
STARTCHAR 0144
ENCODING 324
SWIDTH 489 0
DWIDTH 17 0
BBX 17 24 0 0
BITMAP
00F000
00E000
00C000
018000
018000
010000
000000
000000
0C7800
7DFC00
BF1C00
1C0E00
1C0E00
1C0E00
1C0E00
1C0E00
1C0E00
1C0E00
1C0E00
1C0E00
1C0E00
1C0E00
1C0E00
FF3F80
ENDCHAR
STARTCHAR 0145
ENCODING 325
SWIDTH 720 0
DWIDTH 25 0
BBX 25 30 0 -7
BITMAP
FC007F80
1E001C00
0F000800
0F800800
0F800800
0FC00800
0DE00800
0CF00800
0C780800
0C7C0800
0C3C0800
0C1E0800
0C0F0800
0C078800
0C07C800
0C03C800
0C01E800
0C00F800
0C007800
0C003800
0C003800
0C001800
7F800800
00000000
001C0000
001E0000
00060000
00060000
000C0000
00300000
ENDCHAR
STARTCHAR 0146
ENCODING 326
SWIDTH 489 0
DWIDTH 17 0
BBX 17 23 0 -7
BITMAP
0C7800
7DFC00
BF1C00
1C0E00
1C0E00
1C0E00
1C0E00
1C0E00
1C0E00
1C0E00
1C0E00
1C0E00
1C0E00
1C0E00
1C0E00
FF3F80
000000
01C000
01E000
006000
006000
00C000
030000
ENDCHAR
STARTCHAR 0147
ENCODING 327
SWIDTH 720 0
DWIDTH 25 0
BBX 25 30 0 0
BITMAP
00C08000
00610000
00330000
003E0000
001E0000
00000000
00000000
FC007F80
1E001C00
0F000800
0F800800
0F800800
0FC00800
0DE00800
0CF00800
0C780800
0C7C0800
0C3C0800
0C1E0800
0C0F0800
0C078800
0C07C800
0C03C800
0C01E800
0C00F800
0C007800
0C003800
0C003800
0C001800
7F800800
ENDCHAR
STARTCHAR 0148
ENCODING 328
SWIDTH 489 0
DWIDTH 17 0
BBX 17 23 0 0
BITMAP
081800
063000
076000
03E000
03C000
000000
000000
0C7800
7DFC00
BF1C00
1C0E00
1C0E00
1C0E00
1C0E00
1C0E00
1C0E00
1C0E00
1C0E00
1C0E00
1C0E00
1C0E00
1C0E00
FF3F80
ENDCHAR
STARTCHAR 0149
ENCODING 329
SWIDTH 604 0
DWIDTH 21 0
BBX 21 23 0 1
BITMAP
F00000
F80000
F80000
080000
080000
100000
300000
418700
079FC0
0BB1C0
03C1C0
0380C0
0380C0
0380C0
0380C0
0380C0
0380C0
0380C0
0380C0
0380C0
0380E0
0381E0
0FF7F8
ENDCHAR
STARTCHAR 014A
ENCODING 330
SWIDTH 691 0
DWIDTH 24 0
BBX 22 24 1 -1
BITMAP
000400
FC3FC0
1C63E0
1C80F0
1D0070
1E0078
1E0038
1C0038
1C003C
1C003C
1C003C
1C003C
1C003C
1C003C
1C003C
1C0038
1C0038
1C0038
1C0038
1C0830
1C1C30
1C3C60
1E1C40
FF9F80
ENDCHAR
STARTCHAR 014B
ENCODING 331
SWIDTH 489 0
DWIDTH 17 0
BBX 15 23 0 -7
BITMAP
0C78
7DFC
BF1C
1C0E
1C0E
1C0E
1C0E
1C0E
1C0E
1C0E
1C0E
1C0E
1C0E
1C0E
1C0E
FF0E
000E
000E
000E
000C
010C
0388
03F0
ENDCHAR
STARTCHAR 014C
ENCODING 332
SWIDTH 720 0
DWIDTH 25 0
BBX 23 29 1 -1
BITMAP
03FF80
03FF80
000000
000000
000000
01FF00
0701C0
0E00E0
1C0070
380078
380038
78003C
70003C
70001C
F0001E
F0001E
F0001E
F0001E
F0001E
70001C
78001C
78003C
380038
3C0038
1C0070
0E00E0
0701C0
01FF00
001000
ENDCHAR
STARTCHAR 014D
ENCODING 333
SWIDTH 489 0
DWIDTH 17 0
BBX 15 21 1 0
BITMAP
3FF8
3FF8
0000
0000
0000
07C0
1C70
3038
301C
701C
600E
E00E
E00E
E00E
F00E
F00E
700C
780C
3818
1C38
0FE0
ENDCHAR
STARTCHAR 014E
ENCODING 334
SWIDTH 720 0
DWIDTH 25 0
BBX 23 31 1 -1
BITMAP
010100
018100
01FF00
00FE00
003800
000000
000000
01FF00
0701C0
0E00E0
1C0070
380078
380038
78003C
70003C
70001C
F0001E
F0001E
F0001E
F0001E
F0001E
70001C
78001C
78003C
380038
3C0038
1C0070
0E00E0
0701C0
01FF00
001000
ENDCHAR
STARTCHAR 014F
ENCODING 335
SWIDTH 489 0
DWIDTH 17 0
BBX 15 23 1 0
BITMAP
2010
1030
1FE0
0FE0
0380
0000
0000
07C0
1C70
3038
301C
701C
600E
E00E
E00E
E00E
F00E
F00E
700C
780C
3818
1C38
0FE0
ENDCHAR
STARTCHAR 0150
ENCODING 336
SWIDTH 720 0
DWIDTH 25 0
BBX 23 31 1 -1
BITMAP
007380
006300
00C300
00C600
008400
000000
000000
01FF00
0701C0
0E00E0
1C0070
380078
380038
78003C
70003C
70001C
F0001E
F0001E
F0001E
F0001E
F0001E
70001C
78001C
78003C
380038
3C0038
1C0070
0E00E0
0701C0
01FF00
001000
ENDCHAR
STARTCHAR 0151
ENCODING 337
SWIDTH 489 0
DWIDTH 17 0
BBX 15 24 1 0
BITMAP
0738
0638
0630
0C20
0C60
0840
0000
0000
07C0
1C70
3038
301C
701C
600E
E00E
E00E
E00E
F00E
F00E
700C
780C
3818
1C38
0FE0
ENDCHAR
STARTCHAR 0152
ENCODING 338
SWIDTH 892 0
DWIDTH 31 0
BBX 29 23 1 0
BITMAP
01FFFFE0
0707C0E0
0E03C020
1C03C020
3C03C020
3803C000
7803C000
7803C080
7003C080
F003C080
F003FF80
F003FF80
F003C080
F003C080
7003C080
7803C000
7803C000
3803C008
3C03C010
1C03C010
0E03C030
0707C0F0
01FFFFE0
ENDCHAR
STARTCHAR 0153
ENCODING 339
SWIDTH 720 0
DWIDTH 25 0
BBX 23 16 1 0
BITMAP
07C1F0
18F238
30741C
703C1E
603C0E
601FFE
E01C00
E01C00
E01C00
F01C00
F01C02
701E02
701F04
383F9C
3C37F8
0FE3F0
ENDCHAR
STARTCHAR 0154
ENCODING 340
SWIDTH 662 0
DWIDTH 23 0
BBX 22 30 1 0
BITMAP
007000
00E000
00C000
008000
010000
000000
000000
FFF800
3E3E00
1C0F00
1C0780
1C0780
1C03C0
1C03C0
1C0380
1C0780
1C0F00
1C1E00
1FF800
1C7000
1C7800
1C3C00
1C1E00
1C0E00
1C0F00
1C0780
1C0380
1C03C0
3E01F0
FF80FC
ENDCHAR
STARTCHAR 0155
ENCODING 341
SWIDTH 345 0
DWIDTH 12 0
BBX 12 24 0 0
BITMAP
03C0
0380
0700
0600
0400
0800
0000
0000
0CE0
7DF0
BFF0
1C00
1C00
1C00
1C00
1C00
1C00
1C00
1C00
1C00
1C00
1C00
1C00
FF00
ENDCHAR
STARTCHAR 0156
ENCODING 342
SWIDTH 662 0
DWIDTH 23 0
BBX 22 30 1 -7
BITMAP
FFF800
3E3E00
1C0F00
1C0780
1C0780
1C03C0
1C03C0
1C0380
1C0780
1C0F00
1C1E00
1FF800
1C7000
1C7800
1C3C00
1C1E00
1C0E00
1C0F00
1C0780
1C0380
1C03C0
3E01F0
FF80FC
000000
007000
007800
001800
001800
003800
00C000
ENDCHAR
STARTCHAR 0157
ENCODING 343
SWIDTH 345 0
DWIDTH 12 0
BBX 12 23 0 -7
BITMAP
0CE0
7DF0
BFF0
1C00
1C00
1C00
1C00
1C00
1C00
1C00
1C00
1C00
1C00
1C00
1C00
FF00
0000
0E00
0E00
0700
0700
0E00
3800
ENDCHAR
STARTCHAR 0158
ENCODING 344
SWIDTH 662 0
DWIDTH 23 0
BBX 22 30 1 0
BITMAP
040400
021800
03B000
01F000
01E000
000000
000000
FFF800
3E3E00
1C0F00
1C0780
1C0780
1C03C0
1C03C0
1C0380
1C0780
1C0F00
1C1E00
1FF800
1C7000
1C7800
1C3C00
1C1E00
1C0E00
1C0F00
1C0780
1C0380
1C03C0
3E01F0
FF80FC
ENDCHAR
STARTCHAR 0159
ENCODING 345
SWIDTH 345 0
DWIDTH 12 0
BBX 12 23 0 0
BITMAP
2040
30C0
1D80
0F80
0F00
0000
0000
0CE0
7DF0
BFF0
1C00
1C00
1C00
1C00
1C00
1C00
1C00
1C00
1C00
1C00
1C00
1C00
FF00
ENDCHAR
STARTCHAR 015A
ENCODING 346
SWIDTH 547 0
DWIDTH 19 0
BBX 15 31 2 -1
BITMAP
01C0
0180
0300
0300
0200
0000
0004
1FE4
383C
601C
600C
E004
E004
F004
F800
7E00
3F00
1FC0
0FF0
03F8
00FC
003E
001E
800E
800E
C00E
C00E
E00C
F81C
9FF0
8000
ENDCHAR
STARTCHAR 015B
ENCODING 347
SWIDTH 403 0
DWIDTH 14 0
BBX 10 24 2 0
BITMAP
0780
0700
0E00
0C00
0800
1000
0000
0000
3E80
6380
C180
C080
C080
E000
F800
7E00
3F80
0FC0
03C0
81C0
80C0
80C0
C180
FF00
ENDCHAR
STARTCHAR 015C
ENCODING 348
SWIDTH 547 0
DWIDTH 19 0
BBX 15 32 2 -1
BITMAP
0380
07C0
06E0
0C60
0830
1000
0000
0004
1FE4
383C
601C
600C
E004
E004
F004
F800
7E00
3F00
1FC0
0FF0
03F8
00FC
003E
001E
800E
800E
C00E
C00E
E00C
F81C
9FF0
8000
ENDCHAR
STARTCHAR 015D
ENCODING 349
SWIDTH 403 0
DWIDTH 14 0
BBX 10 23 2 0
BITMAP
1E00
3E00
2300
4180
8080
0000
0000
3E80
6380
C180
C080
C080
E000
F800
7E00
3F80
0FC0
03C0
81C0
80C0
80C0
C180
FF00
ENDCHAR
STARTCHAR 015E
ENCODING 350
SWIDTH 547 0
DWIDTH 19 0
BBX 15 31 2 -7
BITMAP
0004
1FE4
383C
601C
600C
E004
E004
F004
F800
7E00
3F00
1FC0
0FF0
03F8
00FC
003E
001E
800E
800E
C00E
C00E
E00C
F81C
9FF0
8100
0380
03C0
01C0
01C0
0380
0E00
ENDCHAR
STARTCHAR 015F
ENCODING 351
SWIDTH 403 0
DWIDTH 14 0
BBX 10 23 2 -7
BITMAP
3E80
6380
C180
C080
C080
E000
F800
7E00
3F80
0FC0
03C0
81C0
80C0
80C0
C180
FF00
0800
0C00
1E00
0600
0600
0C00
3000
ENDCHAR
STARTCHAR 0160
ENCODING 352
SWIDTH 547 0
DWIDTH 19 0
BBX 15 31 2 -1
BITMAP
1010
0C20
0E60
07C0
03C0
0000
0004
1FE4
383C
601C
600C
E004
E004
F004
F800
7E00
3F00
1FC0
0FF0
03F8
00FC
003E
001E
800E
800E
C00E
C00E
E00C
F81C
9FF0
8000
ENDCHAR
STARTCHAR 0161
ENCODING 353
SWIDTH 403 0
DWIDTH 14 0
BBX 10 23 2 0
BITMAP
C080
6100
3300
3E00
1E00
0000
0000
3E80
6380
C180
C080
C080
E000
F800
7E00
3F80
0FC0
03C0
81C0
80C0
80C0
C180
FF00
ENDCHAR
STARTCHAR 0162
ENCODING 354
SWIDTH 604 0
DWIDTH 21 0
BBX 19 31 1 -8
BITMAP
FFFFE0
F8E1E0
C0E020
80E020
80E020
00E000
00E000
00E000
00E000
00E000
00E000
00E000
00E000
00E000
00E000
00E000
00E000
00E000
00E000
00E000
00E000
00F000
07FC00
000000
000000
00E000
00F000
003000
003000
002000
00C000
ENDCHAR
STARTCHAR 0163
ENCODING 355
SWIDTH 288 0
DWIDTH 10 0
BBX 9 29 0 -8
BITMAP
0400
0400
0C00
1C00
1C00
7F80
FF80
1C00
1C00
1C00
1C00
1C00
1C00
1C00
1C00
1C00
1C00
1C00
1C80
1F80
0F00
0000
0000
1E00
1E00
0A00
0200
0400
1800
ENDCHAR
STARTCHAR 0164
ENCODING 356
SWIDTH 604 0
DWIDTH 21 0
BBX 19 30 1 0
BITMAP
060400
030800
019800
01F000
00F000
000000
000000
FFFFE0
F8E1E0
C0E020
80E020
80E020
00E000
00E000
00E000
00E000
00E000
00E000
00E000
00E000
00E000
00E000
00E000
00E000
00E000
00E000
00E000
00E000
00F000
07FC00
ENDCHAR
STARTCHAR 0165
ENCODING 357
SWIDTH 432 0
DWIDTH 15 0
BBX 15 24 0 0
BITMAP
0038
007C
007C
0436
0404
0C04
1C08
1C10
7FA0
FF80
1C00
1C00
1C00
1C00
1C00
1C00
1C00
1C00
1C00
1C00
1C00
1C80
1F80
0F00
ENDCHAR
STARTCHAR 0166
ENCODING 358
SWIDTH 604 0
DWIDTH 21 0
BBX 19 23 1 0
BITMAP
FFFFE0
F8E1E0
C0E060
80E020
80E020
00E000
00E000
00E000
00E000
00E000
3FFF80
3FFF80
00E000
00E000
00E000
00E000
00E000
00E000
00E000
00E000
00E000
00F000
07FC00
ENDCHAR
STARTCHAR 0167
ENCODING 359
SWIDTH 288 0
DWIDTH 10 0
BBX 9 21 0 0
BITMAP
0400
0400
0C00
1C00
1C00
7F80
FF80
1C00
1C00
1C00
1C00
FF80
FF80
1C00
1C00
1C00
1C00
1C00
1C80
1F80
0F00
ENDCHAR
STARTCHAR 0168
ENCODING 360
SWIDTH 720 0
DWIDTH 25 0
BBX 25 31 0 -1
BITMAP
00302000
007C4000
009F4000
008FC000
00030000
00000000
00000000
FFC07F80
1E001C00
1E000C00
1E000800
0E000800
0E000800
0E000800
0E000800
0E000800
0E000800
0E000800
0E000800
0E000800
0E000800
0E000800
0E000800
0E000800
0E000800
0E001800
0F001000
07003000
03C0E000
01FF8000
00080000
ENDCHAR
STARTCHAR 0169
ENCODING 361
SWIDTH 489 0
DWIDTH 17 0
BBX 17 23 0 0
BITMAP
070400
0FC400
11FC00
10F800
000000
000000
000000
F87E00
381E00
180E00
180E00
180E00
180E00
180E00
180E00
180E00
180E00
180E00
1C0E00
1C0E00
1C3E00
1FEF80
0F8E00
ENDCHAR
STARTCHAR 016A
ENCODING 362
SWIDTH 720 0
DWIDTH 25 0
BBX 25 29 0 -1
BITMAP
00FFE000
00FFE000
00000000
00000000
00000000
FFC07F80
1E001C00
1E000C00
0E000800
0E000800
0E000800
0E000800
0E000800
0E000800
0E000800
0E000800
0E000800
0E000800
0E000800
0E000800
0E000800
0E000800
0E000800
0E001800
0F001000
07003000
03C0E000
01FF8000
00080000
ENDCHAR
STARTCHAR 016B
ENCODING 363
SWIDTH 489 0
DWIDTH 17 0
BBX 17 21 0 0
BITMAP
1FFC00
1FFC00
000000
000000
000000
F87E00
381E00
180E00
180E00
180E00
180E00
180E00
180E00
180E00
180E00
180E00
1C0E00
1C0E00
1C3E00
1FEF80
0F8E00
ENDCHAR
STARTCHAR 016C
ENCODING 364
SWIDTH 720 0
DWIDTH 25 0
BBX 25 31 0 -1
BITMAP
00808000
00C08000
00FF8000
007F0000
001C0000
00000000
00000000
FFC07F80
1E001C00
1E000C00
0E000800
0E000800
0E000800
0E000800
0E000800
0E000800
0E000800
0E000800
0E000800
0E000800
0E000800
0E000800
0E000800
0E000800
0E000800
0E001800
0F001000
07003000
03C0E000
01FF8000
00080000
ENDCHAR
STARTCHAR 016D
ENCODING 365
SWIDTH 489 0
DWIDTH 17 0
BBX 17 23 0 0
BITMAP
080800
0C0800
07F800
07F000
01C000
000000
000000
F87E00
381E00
180E00
180E00
180E00
180E00
180E00
180E00
180E00
180E00
180E00
1C0E00
1C0E00
1C3E00
1FEF80
0F8E00
ENDCHAR
STARTCHAR 016E
ENCODING 366
SWIDTH 720 0
DWIDTH 25 0
BBX 25 32 0 -1
BITMAP
000E0000
001B0000
00210000
00218000
00310000
001B0000
000E0000
00000000
FFC07F80
1E001C00
1E000C00
1E000800
0E000800
0E000800
0E000800
0E000800
0E000800
0E000800
0E000800
0E000800
0E000800
0E000800
0E000800
0E000800
0E000800
0E000800
0E001800
0F001000
07003000
03C0E000
01FF8000
00080000
ENDCHAR
STARTCHAR 016F
ENCODING 367
SWIDTH 489 0
DWIDTH 17 0
BBX 17 24 0 0
BITMAP
03C000
022000
043000
043000
062000
03C000
000000
000000
F87E00
381E00
180E00
180E00
180E00
180E00
180E00
180E00
180E00
180E00
180E00
1C0E00
1C0E00
1C3E00
1FEF80
0F8E00
ENDCHAR
STARTCHAR 0170
ENCODING 368
SWIDTH 720 0
DWIDTH 25 0
BBX 25 31 0 -1
BITMAP
0039C000
0031C000
00318000
00210000
00410000
00000000
00000000
FFC07F80
1E001C00
1E000C00
1E000800
0E000800
0E000800
0E000800
0E000800
0E000800
0E000800
0E000800
0E000800
0E000800
0E000800
0E000800
0E000800
0E000800
0E000800
0E001800
0F001000
07003000
03C0E000
01FF8000
00080000
ENDCHAR
STARTCHAR 0171
ENCODING 369
SWIDTH 489 0
DWIDTH 17 0
BBX 17 24 0 0
BITMAP
071C00
073800
063800
063000
042000
082000
000000
000000
F87E00
381E00
180E00
180E00
180E00
180E00
180E00
180E00
180E00
180E00
180E00
1C0E00
1C0E00
1C3E00
1FEF80
0F8E00
ENDCHAR
STARTCHAR 0172
ENCODING 370
SWIDTH 720 0
DWIDTH 25 0
BBX 25 29 0 -6
BITMAP
FFC07F80
1E001C00
1E000C00
1E000800
0E000800
0E000800
0E000800
0E000800
0E000800
0E000800
0E000800
0E000800
0E000800
0E000800
0E000800
0E000800
0E000800
0E000800
0E001800
0F001000
07003000
03C0E000
01FF8000
000C0000
000C0000
000C0000
000C0000
000F2000
0007C000
ENDCHAR
STARTCHAR 0173
ENCODING 371
SWIDTH 489 0
DWIDTH 17 0
BBX 19 22 0 -6
BITMAP
F87E00
381E00
180E00
180E00
180E00
180E00
180E00
180E00
180E00
180E00
180E00
1C0E00
1C0E00
1C3E00
1FEF80
0F8E00
000800
001800
001800
001C00
001E20
000FC0
ENDCHAR
STARTCHAR 0174
ENCODING 372
SWIDTH 950 0
DWIDTH 33 0
BBX 32 32 0 -1
BITMAP
0001C000
0003E000
0007E000
00063000
00081000
00000800
00000000
00000000
FF9FF03F
1E03C00C
1E03C00C
0E01C008
0E01C008
0F01E018
0700E010
0700E010
0781F030
03817020
03837820
03C33860
01C23840
01E63CC0
01E61CC0
00E41C80
00FC1F80
007C0F80
00780F00
00780F00
00300700
00300600
00300600
00000200
ENDCHAR
STARTCHAR 0175
ENCODING 373
SWIDTH 720 0
DWIDTH 25 0
BBX 25 23 0 0
BITMAP
003E0000
003E0000
00670000
00410000
00808000
00000000
00000000
FE7F0F80
783E0700
381C0600
1C0E0400
1C0E0400
1C0E0C00
0E0F0800
0E170800
06131000
07239000
0723B000
03E1E000
03C1E000
01C1E000
0180C000
0180C000
ENDCHAR
STARTCHAR 0176
ENCODING 374
SWIDTH 720 0
DWIDTH 25 0
BBX 25 31 0 0
BITMAP
001C0000
003E0000
00360000
00630000
00C18000
00808000
00000000
00000000
FFC07F80
1F001C00
1F001800
0F001000
07803000
07806000
03C04000
01E0C000
01E18000
00F10000
007B0000
007E0000
003E0000
001C0000
001C0000
001C0000
001C0000
001C0000
001C0000
001C0000
001C0000
003C0000
00FF8000
ENDCHAR
STARTCHAR 0177
ENCODING 375
SWIDTH 489 0
DWIDTH 17 0
BBX 17 30 0 -7
BITMAP
01E000
03F000
033000
041800
080800
000000
000000
FE0F80
7C0700
3C0200
1C0600
1C0400
0E0400
0E0C00
070800
071800
039000
03B000
01F000
01E000
00E000
00C000
00C000
00C000
008000
018000
010000
7B0000
7E0000
7C0000
ENDCHAR
STARTCHAR 0178
ENCODING 376
SWIDTH 720 0
DWIDTH 25 0
BBX 25 29 0 0
BITMAP
00618000
00F3C000
00F3C000
00618000
00000000
00000000
FFC07F80
1F001C00
1F001800
0F001000
07803000
07806000
03C04000
01E0C000
01E18000
00F10000
007B0000
007E0000
003E0000
001C0000
001C0000
001C0000
001C0000
001C0000
001C0000
001C0000
001C0000
003C0000
00FF8000
ENDCHAR
STARTCHAR 0179
ENCODING 377
SWIDTH 604 0
DWIDTH 21 0
BBX 20 30 0 0
BITMAP
003C00
003800
003000
006000
004000
000000
000000
1FFFF0
1E01E0
1003C0
1003C0
200780
200F00
000E00
001E00
003C00
007800
007800
00F000
01E000
01E000
03C000
078000
070000
0F0010
1E0010
3C0010
3C0030
7801E0
FFFFE0
ENDCHAR
STARTCHAR 017A
ENCODING 378
SWIDTH 432 0
DWIDTH 15 0
BBX 14 24 1 0
BITMAP
01C0
03C0
0380
0300
0600
0400
0000
0000
7FFC
7FFC
4078
4070
00E0
01E0
03C0
0380
0700
0E00
1E00
1C04
3804
7008
F008
FFF8
ENDCHAR
STARTCHAR 017B
ENCODING 379
SWIDTH 604 0
DWIDTH 21 0
BBX 20 29 0 0
BITMAP
003000
007800
007800
003000
000000
000000
1FFFF0
1E01E0
1003C0
1003C0
200780
200F00
000E00
001E00
003C00
007800
007800
00F000
01E000
01E000
03C000
078000
070000
0F0010
1E0010
3C0010
3C0030
7801E0
FFFFE0
ENDCHAR
STARTCHAR 017C
ENCODING 380
SWIDTH 432 0
DWIDTH 15 0
BBX 14 23 1 0
BITMAP
0100
0380
0780
0380
0000
0000
0000
7FFC
7FFC
4078
4070
00E0
01E0
03C0
0380
0700
0E00
1E00
1C04
3804
7008
F008
FFF8
ENDCHAR
STARTCHAR 017D
ENCODING 381
SWIDTH 604 0
DWIDTH 21 0
BBX 20 30 0 0
BITMAP
010200
018600
00CC00
00F800
007800
000000
000000
1FFFF0
1E01E0
1003C0
1003C0
200780
200F00
000E00
001E00
003C00
007800
007800
00F000
01E000
01E000
03C000
078000
070000
0F0010
1E0010
3C0010
3C0030
7801E0
FFFFE0
ENDCHAR
STARTCHAR 017E
ENCODING 382
SWIDTH 432 0
DWIDTH 15 0
BBX 14 23 1 0
BITMAP
1020
1860
0EC0
0F80
0780
0000
0000
7FFC
7FFC
4078
4070
00E0
01E0
03C0
0380
0700
0E00
1E00
1C04
3804
7008
F008
FFF8
ENDCHAR
STARTCHAR 017F
ENCODING 383
SWIDTH 288 0
DWIDTH 10 0
BBX 14 24 0 0
BITMAP
01F0
0278
041C
0C1C
0C00
1C00
1C00
1C00
1C00
1C00
1C00
1C00
1C00
1C00
1C00
1C00
1C00
1C00
1C00
1C00
1C00
1C00
1E00
FF80
ENDCHAR
STARTCHAR 018F
ENCODING 399
SWIDTH 720 0
DWIDTH 25 0
BBX 23 24 1 0
BITMAP
1BFF00
1F03C0
1C00E0
180070
180078
100038
10003C
00003C
00001C
00001E
00001E
FFFFFE
F0001E
F0001E
F0001C
F0003C
70003C
780038
380078
3C00F0
1E00E0
0703C0
03FF00
001000
ENDCHAR
STARTCHAR 0192
ENCODING 402
SWIDTH 489 0
DWIDTH 17 0
BBX 17 31 0 -7
BITMAP
000200
000D80
001980
001900
003000
003000
003000
007000
007000
03FE00
006000
00E000
00E000
00E000
00E000
01C000
01C000
01C000
01C000
038000
038000
038000
030000
030000
070000
070000
060000
060000
CC0000
C80000
F00000
ENDCHAR
STARTCHAR 01A0
ENCODING 416
SWIDTH 720 0
DWIDTH 25 0
BBX 23 27 1 -1
BITMAP
000018
00001C
00101C
01FF98
0701E0
0E00E0
1C0070
380078
380038
78003C
70003C
70001C
F0001E
F0001E
F0001E
F0001E
F0001E
70001C
78001C
78003C
380038
3C0038
1C0070
0E00E0
0701C0
01FF00
001000
ENDCHAR
STARTCHAR 01A1
ENCODING 417
SWIDTH 518 0
DWIDTH 18 0
BBX 17 16 1 1
BITMAP
07C380
1C7380
303980
301F00
701C00
600E00
E00E00
E00E00
E00E00
F00E00
F00E00
700C00
780C00
381800
1C3800
0FE000
ENDCHAR
STARTCHAR 01AF
ENCODING 431
SWIDTH 777 0
DWIDTH 27 0
BBX 28 28 0 -1
BITMAP
00000060
00000070
00000070
00000030
FFC07FC0
1E001C00
1E000C00
1E000800
0E000800
0E000800
0E000800
0E000800
0E000800
0E000800
0E000800
0E000800
0E000800
0E000800
0E000800
0E000800
0E000800
0E000800
0E001800
0F001000
07003000
03C0E000
01FF8000
00080000
ENDCHAR
STARTCHAR 01B0
ENCODING 432
SWIDTH 547 0
DWIDTH 19 0
BBX 19 16 0 1
BITMAP
F87EE0
381EE0
180EC0
180F80
180E00
180E00
180E00
180E00
180E00
180E00
180E00
1C0E00
1C0E00
1C3E00
1FEF80
0F8E00
ENDCHAR
STARTCHAR 01CD
ENCODING 461
SWIDTH 720 0
DWIDTH 25 0
BBX 25 30 0 0
BITMAP
00808000
00610000
00730000
003E0000
003C0000
00000000
00080000
00080000
001C0000
001C0000
003C0000
003E0000
002E0000
006F0000
00470000
00C78000
00878000
01838000
0183C000
0101C000
0301E000
03FFE000
0600E000
0400F000
0C007000
0C007800
08003800
18003C00
38003C00
FF00FF80
ENDCHAR
STARTCHAR 01CE
ENCODING 462
SWIDTH 432 0
DWIDTH 15 0
BBX 14 23 1 0
BITMAP
3020
1840
0CC0
0F80
0780
0000
0000
0F80
38E0
70E0
7070
7070
0070
01F0
0670
1870
7070
6070
E070
E070
F0F4
7F7C
3E78
ENDCHAR
STARTCHAR 01CF
ENCODING 463
SWIDTH 345 0
DWIDTH 12 0
BBX 10 30 1 0
BITMAP
C080
6100
3300
3E00
1E00
0000
0000
FFC0
1E00
1E00
1C00
1C00
1C00
1C00
1C00
1C00
1C00
1C00
1C00
1C00
1C00
1C00
1C00
1C00
1C00
1C00
1C00
1E00
1E00
FFC0
ENDCHAR
STARTCHAR 01D0
ENCODING 464
SWIDTH 288 0
DWIDTH 10 0
BBX 8 23 1 0
BITMAP
81
C3
66
7C
3C
00
00
18
78
38
18
18
18
18
18
18
18
18
18
18
18
3C
FF
ENDCHAR
STARTCHAR 01D1
ENCODING 465
SWIDTH 720 0
DWIDTH 25 0
BBX 23 31 1 -1
BITMAP
018100
00C200
006600
007C00
003C00
000000
000000
01FF00
0701C0
0E00E0
1C0070
380078
380038
78003C
70003C
70001C
F0001E
F0001E
F0001E
F0001E
F0001E
70001C
78001C
78003C
380038
3C0038
1C0070
0E00E0
0701C0
01FF00
001000
ENDCHAR
STARTCHAR 01D2
ENCODING 466
SWIDTH 489 0
DWIDTH 17 0
BBX 15 23 1 0
BITMAP
1810
0C20
0660
07C0
03C0
0000
0000
07C0
1C70
3038
301C
701C
600E
E00E
E00E
E00E
F00E
F00E
700C
780C
3818
1C38
0FE0
ENDCHAR
STARTCHAR 01D3
ENCODING 467
SWIDTH 720 0
DWIDTH 25 0
BBX 25 31 0 -1
BITMAP
00808000
00610000
00730000
003E0000
003C0000
00000000
00000000
FFC07F80
1E001C00
1E000C00
1E000800
0E000800
0E000800
0E000800
0E000800
0E000800
0E000800
0E000800
0E000800
0E000800
0E000800
0E000800
0E000800
0E000800
0E000800
0E001800
0F001000
07003000
03C0E000
01FF8000
00080000
ENDCHAR
STARTCHAR 01D4
ENCODING 468
SWIDTH 489 0
DWIDTH 17 0
BBX 17 23 0 0
BITMAP
0C0800
061000
033000
03E000
01E000
000000
000000
F87E00
381E00
180E00
180E00
180E00
180E00
180E00
180E00
180E00
180E00
180E00
1C0E00
1C0E00
1C3E00
1FEF80
0F8E00
ENDCHAR
STARTCHAR 01D5
ENCODING 469
SWIDTH 720 0
DWIDTH 25 0
BBX 25 32 0 -1
BITMAP
00FF8000
00FF8000
00000000
00000000
00E38000
00E38000
00000000
00000000
FFC07F80
1E001C00
1E000C00
1E000800
0E000800
0E000800
0E000800
0E000800
0E000800
0E000800
0E000800
0E000800
0E000800
0E000800
0E000800
0E000800
0E000800
0E000800
0E001800
0F001000
07003000
03C0E000
01FF8000
00080000
ENDCHAR
STARTCHAR 01D6
ENCODING 470
SWIDTH 489 0
DWIDTH 17 0
BBX 17 26 0 0
BITMAP
1FFC00
1FFC00
000000
000000
001000
0E3800
0E3800
0E3800
000000
000000
F87E00
381E00
180E00
180E00
180E00
180E00
180E00
180E00
180E00
180E00
180E00
1C0E00
1C0E00
1C3E00
1FEF80
0F8E00
ENDCHAR
STARTCHAR 01D7
ENCODING 471
SWIDTH 720 0
DWIDTH 25 0
BBX 25 32 0 -1
BITMAP
000E0000
000C0000
00080000
00000000
00E38000
00E38000
00000000
00000000
FFC07F80
1E001C00
1E000C00
1E000800
0E000800
0E000800
0E000800
0E000800
0E000800
0E000800
0E000800
0E000800
0E000800
0E000800
0E000800
0E000800
0E000800
0E000800
0E001800
0F001000
07003000
03C0E000
01FF8000
00080000
ENDCHAR
STARTCHAR 01D8
ENCODING 472
SWIDTH 489 0
DWIDTH 17 0
BBX 17 29 0 0
BITMAP
007000
00F000
00E000
00C000
018000
010000
000000
001000
0E3800
0E3800
0E3800
000000
000000
F87E00
381E00
180E00
180E00
180E00
180E00
180E00
180E00
180E00
180E00
180E00
1C0E00
1C0E00
1C3E00
1FEF80
0F8E00
ENDCHAR
STARTCHAR 01D9
ENCODING 473
SWIDTH 720 0
DWIDTH 25 0
BBX 25 32 0 -1
BITMAP
00410000
00360000
001C0000
00000000
00E38000
00E38000
00000000
00000000
FFC07F80
1E001C00
1E000C00
1E000800
0E000800
0E000800
0E000800
0E000800
0E000800
0E000800
0E000800
0E000800
0E000800
0E000800
0E000800
0E000800
0E000800
0E000800
0E001800
0F001000
07003000
03C0E000
01FF8000
00080000
ENDCHAR
STARTCHAR 01DA
ENCODING 474
SWIDTH 489 0
DWIDTH 17 0
BBX 17 28 0 0
BITMAP
0C0800
061000
073000
03E000
01E000
000000
001000
0E3800
0E3800
0E3800
000000
000000
F87E00
381E00
180E00
180E00
180E00
180E00
180E00
180E00
180E00
180E00
180E00
1C0E00
1C0E00
1C3E00
1FEF80
0F8E00
ENDCHAR
STARTCHAR 01DB
ENCODING 475
SWIDTH 720 0
DWIDTH 25 0
BBX 25 32 0 -1
BITMAP
00380000
00180000
00080000
00000000
00E38000
00E38000
00000000
00000000
FFC07F80
1E001C00
1E000C00
1E000800
0E000800
0E000800
0E000800
0E000800
0E000800
0E000800
0E000800
0E000800
0E000800
0E000800
0E000800
0E000800
0E000800
0E000800
0E001800
0F001000
07003000
03C0E000
01FF8000
00080000
ENDCHAR
STARTCHAR 01DC
ENCODING 476
SWIDTH 489 0
DWIDTH 17 0
BBX 17 29 0 0
BITMAP
078000
038000
018000
01C000
00C000
004000
000000
001000
0E3800
0E3800
0E3800
000000
000000
F87E00
381E00
180E00
180E00
180E00
180E00
180E00
180E00
180E00
180E00
180E00
1C0E00
1C0E00
1C3E00
1FEF80
0F8E00
ENDCHAR
STARTCHAR 01FA
ENCODING 506
SWIDTH 720 0
DWIDTH 25 0
BBX 25 35 0 0
BITMAP
000F0000
000E0000
000C0000
00180000
00180000
00100000
001C0000
00360000
00630000
00430000
00620000
003E0000
00180000
001C0000
001C0000
003C0000
003E0000
002E0000
006F0000
00470000
00C78000
00878000
01838000
0183C000
0101C000
0301E000
03FFE000
0600E000
0400F000
0C007000
0C007800
08003800
18003C00
38003C00
FF00FF80
ENDCHAR
STARTCHAR 01FB
ENCODING 507
SWIDTH 432 0
DWIDTH 15 0
BBX 14 31 1 0
BITMAP
01C0
0380
0300
0300
0200
0400
0000
0780
08C0
0840
0840
08C0
0780
0000
0000
0F80
38E0
70E0
7070
7070
0070
01F0
0670
1870
7070
6070
E070
E070
F0F4
7F7C
3E78
ENDCHAR
STARTCHAR 01FC
ENCODING 508
SWIDTH 892 0
DWIDTH 31 0
BBX 30 31 0 0
BITMAP
0001E000
0001C000
00018000
00030000
00020000
00000000
00000000
00000000
007FFFF0
000F8070
000F8010
000B8010
00138010
00338000
00238000
00638040
00438040
00C38040
0083FFC0
0183FFC0
01038040
03FF8040
02038040
06038000
04038000
0C038004
08038008
18038008
30038018
3003C078
FE1FFFF0
ENDCHAR
STARTCHAR 01FD
ENCODING 509
SWIDTH 662 0
DWIDTH 23 0
BBX 21 24 1 0
BITMAP
001C00
003800
003800
003000
006000
004000
000000
000000
0F87C0
30E8E0
70F070
707038
707038
007FF8
01E000
066000
186000
307000
607008
E07008
E07810
F07C30
79BFE0
7F1FC0
ENDCHAR
STARTCHAR 01FE
ENCODING 510
SWIDTH 720 0
DWIDTH 25 0
BBX 23 32 1 -1
BITMAP
001E00
001C00
001800
003000
002000
002000
000000
000008
01FF08
0701D0
0E00F0
1C0070
3800F8
3800B8
78013C
70033C
70061E
F00C1E
F0081E
F0101E
F0301E
F0601E
70C01C
79801C
79003C
3B0038
3E0038
1C0070
1E00E0
1701C0
21FF00
201000
ENDCHAR
STARTCHAR 01FF
ENCODING 511
SWIDTH 489 0
DWIDTH 17 0
BBX 15 25 1 -1
BITMAP
00E0
01E0
01C0
0180
0300
0200
0000
0000
07C2
0C74
383C
301C
703E
606E
E0CE
E08E
F10E
F20E
740E
7C0E
780C
3818
7C38
CFE0
8000
ENDCHAR
STARTCHAR 0218
ENCODING 536
SWIDTH 547 0
DWIDTH 19 0
BBX 15 32 2 -8
BITMAP
0004
1FE4
383C
601C
600C
E004
E004
F004
F800
7E00
3F00
1FC0
0FF0
03F8
00FC
003E
001E
800E
800E
C00E
C00E
E00C
F81C
9FF0
8000
0000
03C0
03C0
0140
0040
0080
0300
ENDCHAR
STARTCHAR 0219
ENCODING 537
SWIDTH 403 0
DWIDTH 14 0
BBX 10 24 2 -8
BITMAP
3E80
6380
C180
C080
C080
E000
F800
7E00
3F80
0FC0
03C0
81C0
80C0
80C0
C180
FF00
0000
0000
1E00
1E00
0A00
0200
0400
1800
ENDCHAR
STARTCHAR 021A
ENCODING 538
SWIDTH 604 0
DWIDTH 21 0
BBX 19 31 1 -8
BITMAP
FFFFE0
F8E1E0
C0E020
80E020
80E020
00E000
00E000
00E000
00E000
00E000
00E000
00E000
00E000
00E000
00E000
00E000
00E000
00E000
00E000
00E000
00E000
00F000
07FC00
000000
000000
00E000
00F000
003000
003000
002000
00C000
ENDCHAR
STARTCHAR 021B
ENCODING 539
SWIDTH 288 0
DWIDTH 10 0
BBX 9 29 0 -8
BITMAP
0400
0400
0C00
1C00
1C00
7F80
FF80
1C00
1C00
1C00
1C00
1C00
1C00
1C00
1C00
1C00
1C00
1C00
1C80
1F80
0F00
0000
0000
1E00
1E00
0A00
0200
0400
1800
ENDCHAR
STARTCHAR 0259
ENCODING 601
SWIDTH 432 0
DWIDTH 15 0
BBX 13 16 1 0
BITMAP
0F80
1FE0
3FF0
60F0
4078
8038
0038
0018
0018
0018
FFF8
F018
7018
7030
3860
1FC0
ENDCHAR
STARTCHAR 02C6
ENCODING 710
SWIDTH 345 0
DWIDTH 12 0
BBX 9 5 1 18
BITMAP
1E00
3E00
2300
4180
8080
ENDCHAR
STARTCHAR 02C7
ENCODING 711
SWIDTH 345 0
DWIDTH 12 0
BBX 8 5 2 18
BITMAP
81
C2
66
7C
3C
ENDCHAR
STARTCHAR 02C9
ENCODING 713
SWIDTH 345 0
DWIDTH 12 0
BBX 11 2 0 21
BITMAP
FFE0
FFE0
ENDCHAR
STARTCHAR 02D8
ENCODING 728
SWIDTH 345 0
DWIDTH 12 0
BBX 10 5 1 18
BITMAP
8040
C080
7F80
3F00
0C00
ENDCHAR
STARTCHAR 02D9
ENCODING 729
SWIDTH 345 0
DWIDTH 12 0
BBX 4 4 4 19
BITMAP
60
F0
F0
E0
ENDCHAR
STARTCHAR 02DA
ENCODING 730
SWIDTH 345 0
DWIDTH 12 0
BBX 6 6 3 18
BITMAP
78
CC
84
84
8C
78
ENDCHAR
STARTCHAR 02DB
ENCODING 731
SWIDTH 345 0
DWIDTH 12 0
BBX 7 6 3 -6
BITMAP
C0
80
C0
C0
F2
7C
ENDCHAR
STARTCHAR 02DC
ENCODING 732
SWIDTH 345 0
DWIDTH 12 0
BBX 11 4 0 19
BITMAP
3800
7E20
4FE0
87C0
ENDCHAR
STARTCHAR 02DD
ENCODING 733
SWIDTH 345 0
DWIDTH 12 0
BBX 10 6 1 18
BITMAP
79C0
7180
6380
6300
4200
8200
ENDCHAR
STARTCHAR 0300
ENCODING 768
SWIDTH 0 0
DWIDTH 0 0
BBX 5 6 -8 25
BITMAP
F0
70
30
18
08
08
ENDCHAR
STARTCHAR 0301
ENCODING 769
SWIDTH 0 0
DWIDTH 0 0
BBX 5 6 -7 25
BITMAP
38
38
70
60
40
80
ENDCHAR
STARTCHAR 0303
ENCODING 771
SWIDTH 0 0
DWIDTH 0 0
BBX 11 5 -13 25
BITMAP
3020
7C20
FF40
8FC0
8380
ENDCHAR
STARTCHAR 0309
ENCODING 777
SWIDTH 0 0
DWIDTH 0 0
BBX 5 6 -7 25
BITMAP
70
98
98
10
20
20
ENDCHAR
STARTCHAR 0323
ENCODING 803
SWIDTH 0 0
DWIDTH 0 0
BBX 3 4 -15 -6
BITMAP
E0
E0
E0
C0
ENDCHAR
STARTCHAR 037E
ENCODING 894
SWIDTH 288 0
DWIDTH 10 0
BBX 5 22 2 -6
BITMAP
70
78
78
30
00
00
00
00
00
00
00
00
00
70
F8
78
08
08
08
10
20
C0
ENDCHAR
STARTCHAR 0384
ENCODING 900
SWIDTH 345 0
DWIDTH 12 0
BBX 6 6 4 18
BITMAP
3C
78
70
60
40
80
ENDCHAR
STARTCHAR 0385
ENCODING 901
SWIDTH 345 0
DWIDTH 12 0
BBX 12 6 0 18
BITMAP
0380
0780
0700
E670
ECF0
E870
ENDCHAR
STARTCHAR 0386
ENCODING 902
SWIDTH 720 0
DWIDTH 25 0
BBX 25 24 0 0
BITMAP
07080000
0E080000
0E1C0000
0C1C0000
183C0000
103E0000
002E0000
006F0000
00470000
00C78000
00878000
01838000
0183C000
0101C000
0301E000
03FFE000
0600E000
0400F000
0C007000
0C007800
08003800
18003C00
38003C00
FF00FF80
ENDCHAR
STARTCHAR 0387
ENCODING 903
SWIDTH 288 0
DWIDTH 10 0
BBX 4 4 3 12
BITMAP
60
F0
F0
60
ENDCHAR
STARTCHAR 0388
ENCODING 904
SWIDTH 691 0
DWIDTH 24 0
BBX 26 24 -3 0
BITMAP
3C000000
39FFFF00
70780700
60380100
40380100
80380080
00380000
00380000
00380000
00380400
00380400
003FFC00
003FFC00
00380400
00380400
00380400
00380000
00380000
00380040
00380040
00380080
00380180
007C0780
01FFFF00
ENDCHAR
STARTCHAR 0389
ENCODING 905
SWIDTH 806 0
DWIDTH 28 0
BBX 30 24 -3 0
BITMAP
3C000000
39FF0FFC
707C01E0
603800E0
403800E0
803800E0
003800E0
003800E0
003800E0
003800E0
003800E0
003800E0
003FFFE0
003800E0
003800E0
003800E0
003800E0
003800E0
003800E0
003800E0
003800E0
003800E0
007C01E0
01FF0FFC
ENDCHAR
STARTCHAR 038A
ENCODING 906
SWIDTH 403 0
DWIDTH 14 0
BBX 16 24 -3 0
BITMAP
3C00
39FF
707C
6038
4038
8038
0038
0038
0038
0038
0038
0038
0038
0038
0038
0038
0038
0038
0038
0038
0038
0038
003C
01FF
ENDCHAR
STARTCHAR 038C
ENCODING 908
SWIDTH 720 0
DWIDTH 25 0
BBX 25 25 -1 -1
BITMAP
78000000
707FC000
71C07000
63803800
C7001C00
8E001E00
0E000E00
1E000F00
1C000F00
1C000700
3C000780
3C000780
3C000780
3C000780
3C000780
1C000700
1E000700
1E000F00
0E000E00
0F000E00
07001C00
03803800
01C07000
007FC000
00040000
ENDCHAR
STARTCHAR 038E
ENCODING 910
SWIDTH 806 0
DWIDTH 28 0
BBX 31 24 -3 0
BITMAP
3C000000
39FF01FE
707C0070
603C0060
403C0060
801E00C0
000F0080
000F0180
00078300
0003C200
0003C600
0001EC00
0000E800
0000F800
00007000
00007000
00007000
00007000
00007000
00007000
00007000
00007000
00007800
0003FF00
ENDCHAR
STARTCHAR 038F
ENCODING 911
SWIDTH 748 0
DWIDTH 26 0
BBX 26 24 -1 0
BITMAP
78000000
707FE000
71E07800
63C03C00
C7801E00
8F000F00
0F000F00
1E000780
1E000780
1E000780
1E000780
1E000780
1E000780
1E000780
0E000700
0F000F00
07000E00
03801C00
01C03800
20606040
302040C0
3FE07FC0
3FE0FFC0
3FE0FFC0
ENDCHAR
STARTCHAR 0390
ENCODING 912
SWIDTH 259 0
DWIDTH 9 0
BBX 12 24 -1 0
BITMAP
0380
0780
0700
E670
ECF0
E870
0000
0000
0600
1E00
2E00
0E00
0E00
0E00
0E00
0E00
0E00
0E00
0E00
0E00
0E00
0E40
0F40
07C0
ENDCHAR
STARTCHAR 0391
ENCODING 913
SWIDTH 720 0
DWIDTH 25 0
BBX 25 24 0 0
BITMAP
00080000
00080000
001C0000
001C0000
003C0000
003E0000
002E0000
006F0000
00470000
00C78000
00878000
01838000
0183C000
0101C000
0301E000
03FFE000
0600E000
0400F000
0C007000
0C007800
08003800
18003C00
38003C00
FF00FF80
ENDCHAR
STARTCHAR 0392
ENCODING 914
SWIDTH 662 0
DWIDTH 23 0
BBX 20 23 1 0
BITMAP
FFFC00
3C0F80
1C03C0
1C01E0
1C01E0
1C00E0
1C00E0
1C01E0
1C01E0
1C03C0
1E1F80
1FFF00
1C07C0
1C01E0
1C00F0
1C00F0
1C00F0
1C00F0
1C00F0
1C00E0
1C01E0
3E0FC0
FFFE00
ENDCHAR
STARTCHAR 0393
ENCODING 915
SWIDTH 576 0
DWIDTH 20 0
BBX 18 23 1 0
BITMAP
FFFFC0
3C01C0
1C0040
1C0040
1C0040
1C0000
1C0000
1C0000
1C0000
1C0000
1C0000
1C0000
1C0000
1C0000
1C0000
1C0000
1C0000
1C0000
1C0000
1C0000
1C0000
3E0000
FF8000
ENDCHAR
STARTCHAR 0394
ENCODING 916
SWIDTH 633 0
DWIDTH 22 0
BBX 20 24 1 0
BITMAP
002000
002000
007000
007000
00F000
00F800
00B800
01BC00
011C00
031C00
021E00
060E00
060F00
0C0700
0C0780
080380
180380
1003C0
3001C0
2001E0
6000E0
6000E0
4000F0
FFFFF0
ENDCHAR
STARTCHAR 0395
ENCODING 917
SWIDTH 604 0
DWIDTH 21 0
BBX 19 23 1 0
BITMAP
FFFF80
1C01C0
1C00C0
1C0040
1C0040
1C0000
1C0000
1C0100
1C0100
1C0300
1FFF00
1FFF00
1C0300
1C0100
1C0100
1C0000
1C0000
1C0000
1C0020
1C0060
1C00C0
1E01C0
FFFFC0
ENDCHAR
STARTCHAR 0396
ENCODING 918
SWIDTH 604 0
DWIDTH 21 0
BBX 20 23 0 0
BITMAP
1FFFF0
1E01E0
1003C0
1003C0
200780
200F00
000E00
001E00
003C00
007800
007800
00F000
01E000
01E000
03C000
078000
070000
0F0010
1E0010
3C0010
3C0030
7801E0
FFFFE0
ENDCHAR
STARTCHAR 0397
ENCODING 919
SWIDTH 720 0
DWIDTH 25 0
BBX 23 23 1 0
BITMAP
FF83FE
3E00F0
1C0070
1C0070
1C0070
1C0070
1C0070
1C0070
1C0070
1C0070
1C0070
1FFFF0
1C0070
1C0070
1C0070
1C0070
1C0070
1C0070
1C0070
1C0070
1C0070
3E00F0
FF83FE
ENDCHAR
STARTCHAR 0398
ENCODING 920
SWIDTH 720 0
DWIDTH 25 0
BBX 23 24 1 0
BITMAP
01FF00
0701C0
0E00E0
1C0070
3C0078
38003C
78003C
79011C
71011E
F1831E
F1FF1E
F1FF1E
F1FF1E
F1831E
71011E
79011C
78003C
380038
3C0038
1C0070
0E00E0
0701C0
01FF00
001000
ENDCHAR
STARTCHAR 0399
ENCODING 921
SWIDTH 345 0
DWIDTH 12 0
BBX 10 23 1 0
BITMAP
FFC0
1E00
1E00
1C00
1C00
1C00
1C00
1C00
1C00
1C00
1C00
1C00
1C00
1C00
1C00
1C00
1C00
1C00
1C00
1C00
1E00
1E00
FFC0
ENDCHAR
STARTCHAR 039A
ENCODING 922
SWIDTH 720 0
DWIDTH 25 0
BBX 24 23 1 0
BITMAP
FF87F8
3E01E0
1C0180
1C0300
1C0600
1C0C00
1C1800
1C3000
1C6000
1CC000
1DC000
1FE000
1DF000
1CF800
1C7C00
1C3E00
1C1F00
1C0F80
1C07C0
1C03E0
1C01F0
3E01F8
FF87FF
ENDCHAR
STARTCHAR 039B
ENCODING 923
SWIDTH 720 0
DWIDTH 25 0
BBX 25 24 0 0
BITMAP
00080000
00080000
00180000
001C0000
003C0000
003E0000
006E0000
006F0000
00470000
00C78000
00878000
01838000
0183C000
0101C000
0301E000
0200E000
0600F000
0600F000
04007000
0C007800
08003800
18003C00
38003C00
FF01FF80
ENDCHAR
STARTCHAR 039C
ENCODING 924
SWIDTH 892 0
DWIDTH 31 0
BBX 29 23 1 0
BITMAP
FC0003F8
3E0003C0
1E0007C0
1F0007C0
170005C0
17800DC0
138009C0
13C019C0
11C011C0
11C031C0
11E031C0
10E061C0
10F061C0
1070C1C0
1078C1C0
103881C0
103D81C0
101D01C0
101F01C0
100E01C0
100E01C0
380C03C0
FF041FF8
ENDCHAR
STARTCHAR 039D
ENCODING 925
SWIDTH 720 0
DWIDTH 25 0
BBX 25 23 0 0
BITMAP
FC007F80
1E001C00
0F000800
0F800800
0F800800
0FC00800
0DE00800
0CF00800
0C780800
0C7C0800
0C3C0800
0C1E0800
0C0F0800
0C078800
0C07C800
0C03C800
0C01E800
0C00F800
0C007800
0C003800
0C003800
0C001800
7F800800
ENDCHAR
STARTCHAR 039E
ENCODING 926
SWIDTH 633 0
DWIDTH 22 0
BBX 20 23 1 0
BITMAP
7FFFE0
7FFFE0
7FFFE0
600060
400020
400000
000000
000000
080100
080100
0FFF00
0FFF00
0FFF00
080100
080100
000000
000000
800010
800010
C00030
FFFFF0
FFFFF0
FFFFF0
ENDCHAR
STARTCHAR 039F
ENCODING 927
SWIDTH 720 0
DWIDTH 25 0
BBX 23 24 1 0
BITMAP
01FF00
0701C0
0E00E0
1C0070
380078
380038
78003C
70003C
70001C
F0001E
F0001E
F0001E
F0001E
F0001E
70001C
78001C
78003C
380038
3C0038
1C0070
0E00E0
0701C0
01FF00
001000
ENDCHAR
STARTCHAR 03A0
ENCODING 928
SWIDTH 720 0
DWIDTH 25 0
BBX 23 23 1 0
BITMAP
FFFFFE
3C0078
1C0070
1C0070
1C0070
1C0070
1C0070
1C0070
1C0070
1C0070
1C0070
1C0070
1C0070
1C0070
1C0070
1C0070
1C0070
1C0070
1C0070
1C0070
1C0070
3E00F8
FFC3FE
ENDCHAR
STARTCHAR 03A1
ENCODING 929
SWIDTH 547 0
DWIDTH 19 0
BBX 17 23 1 0
BITMAP
FFF000
3F7E00
1C0F00
1C0F00
1C0780
1C0780
1C0780
1C0780
1C0780
1C0700
1C0F00
1F7E00
1CE000
1C0000
1C0000
1C0000
1C0000
1C0000
1C0000
1C0000
1C0000
3E0000
FF8000
ENDCHAR
STARTCHAR 03A3
ENCODING 931
SWIDTH 576 0
DWIDTH 20 0
BBX 18 23 1 0
BITMAP
FFFF80
F00F80
780080
3C0080
1E0080
1F0000
0F0000
078000
03C000
03E000
01E000
00C000
00C000
018000
030000
060000
040040
080040
1800C0
3001C0
7FFFC0
FFFFC0
FFFF80
ENDCHAR
STARTCHAR 03A4
ENCODING 932
SWIDTH 604 0
DWIDTH 21 0
BBX 19 23 1 0
BITMAP
FFFFE0
F8E1E0
C0E020
80E020
80E020
00E000
00E000
00E000
00E000
00E000
00E000
00E000
00E000
00E000
00E000
00E000
00E000
00E000
00E000
00E000
00E000
00F000
07FC00
ENDCHAR
STARTCHAR 03A5
ENCODING 933
SWIDTH 720 0
DWIDTH 25 0
BBX 25 23 0 0
BITMAP
FFC07F80
1F001C00
1F001800
0F001000
07803000
07806000
03C04000
01E0C000
01E18000
00F10000
007B0000
007E0000
003E0000
001C0000
001C0000
001C0000
001C0000
001C0000
001C0000
001C0000
001C0000
003C0000
00FF8000
ENDCHAR
STARTCHAR 03A6
ENCODING 934
SWIDTH 720 0
DWIDTH 25 0
BBX 23 23 1 0
BITMAP
01FF80
007C00
003800
00FF00
0739E0
1C3870
383838
78381C
70381E
F0381E
F0381E
F0381E
F0381E
F0381E
70381E
78381C
383838
1C3870
0F39E0
01FF00
003800
007C00
01FF80
ENDCHAR
STARTCHAR 03A7
ENCODING 935
SWIDTH 720 0
DWIDTH 25 0
BBX 25 23 0 0
BITMAP
7FE0FF00
0F803C00
07803000
03C02000
03C06000
01E0C000
00F18000
00F10000
007B0000
003E0000
003C0000
001E0000
001F0000
003F0000
00678000
00C3C000
0083C000
0101E000
0300F000
0600F000
0C007800
1C007C00
FF01FF80
ENDCHAR
STARTCHAR 03A8
ENCODING 936
SWIDTH 748 0
DWIDTH 26 0
BBX 24 23 1 0
BITMAP
E1FF87
703C0E
703C0E
70381E
78381E
78381E
78381C
78381C
38381C
38383C
1C3838
0F38F0
03FFC0
003800
003800
003800
003800
003800
003800
003800
003C00
003C00
01FF80
ENDCHAR
STARTCHAR 03A9
ENCODING 937
SWIDTH 748 0
DWIDTH 26 0
BBX 24 23 1 1
BITMAP
01FF80
0781E0
0F00F0
1E0078
3C003C
3C003C
78001E
78001E
78001E
78001E
78001E
78001E
78001E
38001C
3C003C
1C0038
0E0070
0700E0
818181
C08103
FF81FF
FF83FF
FF83FF
ENDCHAR
STARTCHAR 03AA
ENCODING 938
SWIDTH 345 0
DWIDTH 12 0
BBX 10 29 1 0
BITMAP
6180
F3C0
F380
6180
0000
0000
FFC0
1E00
1E00
1C00
1C00
1C00
1C00
1C00
1C00
1C00
1C00
1C00
1C00
1C00
1C00
1C00
1C00
1C00
1C00
1C00
1E00
1E00
FFC0
ENDCHAR
STARTCHAR 03AB
ENCODING 939
SWIDTH 720 0
DWIDTH 25 0
BBX 25 29 0 0
BITMAP
00618000
00F3C000
00F3C000
00618000
00000000
00000000
FFC07F80
1F001C00
1F001800
0F001000
07803000
07806000
03C04000
01E0C000
01E18000
00F10000
007B0000
007E0000
003E0000
001C0000
001C0000
001C0000
001C0000
001C0000
001C0000
001C0000
001C0000
003C0000
00FF8000
ENDCHAR
STARTCHAR 03AC
ENCODING 940
SWIDTH 518 0
DWIDTH 18 0
BBX 17 24 1 0
BITMAP
00F000
00E000
01C000
018000
010000
020000
000000
000000
0F0E00
1DCE00
384E00
706E00
703C00
703C00
701C00
701C00
F01800
703800
703800
703800
703880
307C80
38E780
1FC700
ENDCHAR
STARTCHAR 03AD
ENCODING 941
SWIDTH 432 0
DWIDTH 15 0
BBX 13 24 1 0
BITMAP
01E0
01C0
0180
0300
0200
0200
0000
0000
0FC0
38F0
7070
7030
7000
7000
3000
0FC0
1800
7000
F000
F010
F038
7038
7870
1FE0
ENDCHAR
STARTCHAR 03AE
ENCODING 942
SWIDTH 518 0
DWIDTH 18 0
BBX 16 31 0 -7
BITMAP
0078
0070
00E0
00C0
0080
0080
0000
0000
383C
7CFE
9D8E
8E06
0C07
0C07
0C07
0C07
0C07
0C07
0C07
0C07
0C07
0C07
0C07
0C07
0007
0007
0007
0007
0007
0007
0007
ENDCHAR
STARTCHAR 03AF
ENCODING 943
SWIDTH 259 0
DWIDTH 9 0
BBX 8 24 1 0
BITMAP
0F
1E
1C
18
10
20
00
00
18
78
B8
38
38
38
38
38
38
38
38
38
38
39
3D
1F
ENDCHAR
STARTCHAR 03B0
ENCODING 944
SWIDTH 489 0
DWIDTH 17 0
BBX 16 24 0 0
BITMAP
00F0
00E0
00C0
1CDE
3D9E
1D1C
0000
0000
7830
FC18
9C0C
9C0E
1C06
1C07
1C07
1C07
1C07
1C07
1C07
1C06
0C0E
0E0C
0E18
07F0
ENDCHAR
STARTCHAR 03B1
ENCODING 945
SWIDTH 518 0
DWIDTH 18 0
BBX 17 16 1 0
BITMAP
0F0E00
1DCE00
384E00
706E00
703C00
703C00
701C00
701C00
F01800
703800
703800
703800
703880
307C80
38E780
1FC700
ENDCHAR
STARTCHAR 03B2
ENCODING 946
SWIDTH 518 0
DWIDTH 18 0
BBX 15 31 2 -7
BITMAP
0FC0
38E0
3070
7038
6038
6038
6038
E038
E030
E060
E7C0
E070
E038
E01C
E01C
E01C
E01E
E01C
E01C
E01C
E01C
F038
F030
EFE0
E000
E000
E000
E000
E000
E000
E000
ENDCHAR
STARTCHAR 03B3
ENCODING 947
SWIDTH 432 0
DWIDTH 15 0
BBX 15 23 0 -7
BITMAP
300E
7C1E
FC1C
861C
8638
8638
0230
0270
0360
0360
0140
01C0
0180
0180
0100
0100
0100
0300
0300
0300
0300
0700
0300
ENDCHAR
STARTCHAR 03B4
ENCODING 948
SWIDTH 460 0
DWIDTH 16 0
BBX 14 24 1 0
BITMAP
0FE0
10F0
2078
2038
3000
1800
0E00
0700
0380
01E0
0EF0
1878
3038
703C
701C
E01C
E01C
E01C
E01C
F01C
7018
7030
3860
1FC0
ENDCHAR
STARTCHAR 03B5
ENCODING 949
SWIDTH 432 0
DWIDTH 15 0
BBX 13 16 1 0
BITMAP
0FC0
38F0
7070
7030
7000
7000
3000
0FC0
1800
7000
F000
F010
F038
7038
7870
1FE0
ENDCHAR
STARTCHAR 03B6
ENCODING 950
SWIDTH 403 0
DWIDTH 14 0
BBX 13 31 1 -7
BITMAP
0800
1030
30F0
31E0
1F80
0400
0800
1000
1000
2000
2000
4000
4000
4000
C000
C000
C000
C000
C000
C000
6000
7FC0
7FF0
3FF8
07F8
0008
0008
0008
0018
03F0
03E0
ENDCHAR
STARTCHAR 03B7
ENCODING 951
SWIDTH 518 0
DWIDTH 18 0
BBX 16 23 0 -7
BITMAP
383C
7CFE
9D8E
8E06
0C07
0C07
0C07
0C07
0C07
0C07
0C07
0C07
0C07
0C07
0C07
0C07
0007
0007
0007
0007
0007
0007
0007
ENDCHAR
STARTCHAR 03B8
ENCODING 952
SWIDTH 489 0
DWIDTH 17 0
BBX 14 24 1 0
BITMAP
07C0
0C60
1830
3030
3038
7018
701C
701C
701C
701C
F01C
E01C
FFFC
F01C
F01C
701C
701C
701C
7018
3018
3038
1830
1860
0FC0
ENDCHAR
STARTCHAR 03B9
ENCODING 953
SWIDTH 259 0
DWIDTH 9 0
BBX 8 16 1 0
BITMAP
18
78
B8
38
38
38
38
38
38
38
38
38
38
39
3D
1F
ENDCHAR
STARTCHAR 03BA
ENCODING 954
SWIDTH 518 0
DWIDTH 18 0
BBX 17 16 1 0
BITMAP
180F00
F81F00
786700
38C000
388000
390000
3A0000
3F0000
3F8000
3BC000
39C000
38E000
38F000
387800
383C00
381F80
ENDCHAR
STARTCHAR 03BB
ENCODING 955
SWIDTH 489 0
DWIDTH 17 0
BBX 16 24 1 0
BITMAP
3800
7C00
7C00
8600
8200
0200
0300
0300
0100
0300
0380
0780
0780
0E80
0E80
1CC0
1C40
3840
3840
3861
7061
7033
E03E
E01E
ENDCHAR
STARTCHAR 03BC
ENCODING 956
SWIDTH 547 0
DWIDTH 19 0
BBX 17 23 2 -7
BITMAP
703800
703800
703800
703800
703800
703800
703800
703800
703800
703800
703800
703800
703800
707880
7F9D00
7F1F00
400000
400000
600000
E00000
E00000
E00000
E00000
ENDCHAR
STARTCHAR 03BD
ENCODING 957
SWIDTH 460 0
DWIDTH 16 0
BBX 15 16 0 0
BITMAP
300E
F80E
380E
380E
1C0C
1C0C
0C08
0E18
0E10
0630
0720
0760
0340
03C0
0380
0180
ENDCHAR
STARTCHAR 03BE
ENCODING 958
SWIDTH 432 0
DWIDTH 15 0
BBX 14 31 1 -7
BITMAP
1800
30E0
31E0
1BC0
0E00
0800
0800
1000
1000
08F8
0FF8
0C00
1000
2000
6000
4000
C000
C000
C000
C000
6000
7FF0
3FF8
1FFC
031C
0004
0004
0004
000C
01F8
01F0
ENDCHAR
STARTCHAR 03BF
ENCODING 959
SWIDTH 489 0
DWIDTH 17 0
BBX 15 16 1 0
BITMAP
07C0
1C70
3038
301C
701C
600E
E00E
E00E
E00E
F00E
F00E
700C
780C
3818
1C38
0FE0
ENDCHAR
STARTCHAR 03C0
ENCODING 960
SWIDTH 518 0
DWIDTH 18 0
BBX 17 16 0 0
BITMAP
03FF80
3FFF80
7FFF80
461800
863800
063800
063800
063800
063800
0E3000
0C3000
1C3800
1C3880
3C3980
3C3F00
381E00
ENDCHAR
STARTCHAR 03C1
ENCODING 961
SWIDTH 489 0
DWIDTH 17 0
BBX 14 23 2 -7
BITMAP
07C0
1FF0
30F8
6078
603C
E01C
E01C
E01C
E01C
E01C
E01C
E018
E018
E030
F060
FFC0
E000
E000
E000
E000
E000
E000
E000
ENDCHAR
STARTCHAR 03C2
ENCODING 962
SWIDTH 403 0
DWIDTH 14 0
BBX 12 23 1 -7
BITMAP
03E0
0FF0
18F0
3000
2000
4000
4000
C000
C000
C000
C000
C000
6000
7FC0
3FE0
1FF0
0230
0010
0010
0010
0030
07E0
07C0
ENDCHAR
STARTCHAR 03C3
ENCODING 963
SWIDTH 547 0
DWIDTH 19 0
BBX 17 16 1 0
BITMAP
007F80
0FFF80
3FFF80
3C2000
701800
701C00
E00C00
E00E00
E00E00
E00E00
600E00
700E00
700E00
381C00
1C1800
0FF000
ENDCHAR
STARTCHAR 03C4
ENCODING 964
SWIDTH 403 0
DWIDTH 14 0
BBX 13 16 0 0
BITMAP
07F8
3FF8
7FF8
4300
8300
0300
0300
0300
0700
0700
0700
0700
0710
0790
07E0
03E0
ENDCHAR
STARTCHAR 03C5
ENCODING 965
SWIDTH 489 0
DWIDTH 17 0
BBX 16 16 0 0
BITMAP
7830
FC18
9C0C
9C0E
1C06
1C07
1C07
1C07
1C07
1C07
1C07
1C06
0C0E
0E0C
0E18
07F0
ENDCHAR
STARTCHAR 03C6
ENCODING 966
SWIDTH 576 0
DWIDTH 20 0
BBX 18 23 1 -7
BITMAP
063C00
187E00
30C700
70C380
70C380
E0C1C0
E0C1C0
E0C1C0
E0C1C0
E0C1C0
70C180
70C180
70C380
38C300
1CC600
0FF800
00C000
00C000
00C000
00C000
00C000
00C000
00C000
ENDCHAR
STARTCHAR 03C7
ENCODING 967
SWIDTH 432 0
DWIDTH 15 0
BBX 16 23 0 -7
BITMAP
180E
7C0E
7C1C
461C
8238
8238
0270
0370
01E0
01E0
01C0
01C0
0380
0380
0780
06C0
0E40
0C40
1C40
1861
3831
303F
701E
ENDCHAR
STARTCHAR 03C8
ENCODING 968
SWIDTH 633 0
DWIDTH 22 0
BBX 21 23 0 -7
BITMAP
F03038
383070
3830E0
1C30E0
1C30E0
1C30E0
1C30E0
1C30E0
1C31E0
1C31C0
0E31C0
0E31C0
0E3180
063380
033300
01FC00
003000
003000
003000
003000
003000
003000
003000
ENDCHAR
STARTCHAR 03C9
ENCODING 969
SWIDTH 662 0
DWIDTH 23 0
BBX 21 16 1 0
BITMAP
078F00
1C0180
3800E0
302060
707070
707070
F07070
E07078
E07078
E07078
E02070
702070
702070
705070
38D8E0
1F8FC0
ENDCHAR
STARTCHAR 03CA
ENCODING 970
SWIDTH 259 0
DWIDTH 9 0
BBX 9 21 0 0
BITMAP
E380
E380
E380
0000
0000
0C00
3C00
5C00
1C00
1C00
1C00
1C00
1C00
1C00
1C00
1C00
1C00
1C00
1C80
1E80
0F80
ENDCHAR
STARTCHAR 03CB
ENCODING 971
SWIDTH 489 0
DWIDTH 17 0
BBX 16 21 0 0
BITMAP
0E38
1E78
0E38
0000
0000
7830
FC18
9C0C
9C0E
1C06
1C07
1C07
1C07
1C07
1C07
1C07
1C06
0C0E
0E0C
0E18
07F0
ENDCHAR
STARTCHAR 03CC
ENCODING 972
SWIDTH 489 0
DWIDTH 17 0
BBX 15 24 1 0
BITMAP
01E0
01C0
0180
0180
0300
0200
0000
0000
07C0
1C70
3038
301C
701C
600E
E00E
E00E
E00E
F00E
F00E
700C
780C
3818
1C38
0FE0
ENDCHAR
STARTCHAR 03CD
ENCODING 973
SWIDTH 489 0
DWIDTH 17 0
BBX 16 24 0 0
BITMAP
00F0
00E0
00C0
00C0
0180
0100
0000
0000
7830
FC18
9C0C
9C0E
1C06
1C07
1C07
1C07
1C07
1C07
1C07
1C06
0C0E
0E0C
0E18
07F0
ENDCHAR
STARTCHAR 03CE
ENCODING 974
SWIDTH 662 0
DWIDTH 23 0
BBX 21 24 1 0
BITMAP
003C00
003800
003000
007000
006000
004000
000000
000000
078F00
1C0180
3800E0
302060
707070
707070
F07070
E07078
E07078
E07078
E02070
702070
702070
705070
38D8E0
1F8FC0
ENDCHAR
STARTCHAR 0401
ENCODING 1025
SWIDTH 604 0
DWIDTH 21 0
BBX 19 29 1 0
BITMAP
071C00
071C00
071C00
030800
000000
000000
FFFF80
1C01C0
1C00C0
1C0040
1C0040
1C0000
1C0000
1C0100
1C0100
1C0300
1FFF00
1FFF00
1C0300
1C0100
1C0100
1C0000
1C0000
1C0000
1C0020
1C0060
1C00C0
1E01C0
FFFFC0
ENDCHAR
STARTCHAR 0402
ENCODING 1026
SWIDTH 748 0
DWIDTH 26 0
BBX 24 23 1 0
BITMAP
FFFFC0
F9CFC0
C1C0C0
81C040
81C040
01C000
01C000
01C1F0
01C7F8
01DCFC
01F03E
01E01E
01C00F
01C00F
01C00F
01C00F
01C00F
01C00F
01C00E
01C00E
01C00E
01E01C
0FF9F8
ENDCHAR
STARTCHAR 0403
ENCODING 1027
SWIDTH 576 0
DWIDTH 20 0
BBX 18 31 1 0
BITMAP
007000
00E000
00E000
00C000
008000
010000
000000
000000
FFFFC0
3C01C0
1C0040
1C0040
1C0040
1C0000
1C0000
1C0000
1C0000
1C0000
1C0000
1C0000
1C0000
1C0000
1C0000
1C0000
1C0000
1C0000
1C0000
1C0000
1C0000
3E0000
FF8000
ENDCHAR
STARTCHAR 0404
ENCODING 1028
SWIDTH 662 0
DWIDTH 23 0
BBX 21 24 1 0
BITMAP
01FFB0
0781F0
0E0070
1C0030
1C0030
380010
780010
780000
700000
F00000
F00000
FFF800
F00000
F00000
700000
780000
780000
380000
3C0008
1E0010
0F0020
0780C0
01FF00
001000
ENDCHAR
STARTCHAR 0405
ENCODING 1029
SWIDTH 547 0
DWIDTH 19 0
BBX 15 25 2 -1
BITMAP
0004
1FE4
383C
601C
600C
E004
E004
F004
F800
7E00
3F00
1FC0
0FF0
03F8
00FC
003E
001E
800E
800E
C00E
C00E
E00C
F81C
9FF0
8000
ENDCHAR
STARTCHAR 0406
ENCODING 1030
SWIDTH 345 0
DWIDTH 12 0
BBX 10 23 1 0
BITMAP
FFC0
1E00
1E00
1C00
1C00
1C00
1C00
1C00
1C00
1C00
1C00
1C00
1C00
1C00
1C00
1C00
1C00
1C00
1C00
1C00
1E00
1E00
FFC0
ENDCHAR
STARTCHAR 0407
ENCODING 1031
SWIDTH 345 0
DWIDTH 12 0
BBX 10 29 1 0
BITMAP
6180
F3C0
F380
6180
0000
0000
FFC0
1E00
1E00
1C00
1C00
1C00
1C00
1C00
1C00
1C00
1C00
1C00
1C00
1C00
1C00
1C00
1C00
1C00
1C00
1C00
1E00
1E00
FFC0
ENDCHAR
STARTCHAR 0408
ENCODING 1032
SWIDTH 403 0
DWIDTH 14 0
BBX 12 23 1 -1
BITMAP
3FF0
0780
0380
0380
0380
0380
0380
0380
0380
0380
0380
0380
0380
0380
0380
0380
0380
0380
0380
C300
E300
F200
FC00
ENDCHAR
STARTCHAR 0409
ENCODING 1033
SWIDTH 864 0
DWIDTH 30 0
BBX 29 23 0 0
BITMAP
0FFFFC00
0180E000
0080E000
0080E000
0080E000
0080E000
0080E000
0080E000
0080E000
0080E000
0080E000
0080FFC0
0080E3E0
0080E0F0
0180E078
0180E078
0180E078
0100E078
0100E078
0300E070
E600E0F0
FE01E3C0
7C0FFF00
ENDCHAR
STARTCHAR 040A
ENCODING 1034
SWIDTH 864 0
DWIDTH 30 0
BBX 28 23 1 0
BITMAP
FFDFF800
1E03C000
1C03C000
1C01C000
1C01C000
1C01C000
1C01C000
1C01C000
1C01C000
1C01C000
1C01C000
1FFFFF80
1C01C7C0
1C01C1E0
1C01C0F0
1C01C0F0
1C01C0F0
1C01C0F0
1C01C0F0
1C01C0E0
1C01C1E0
1E03C780
FFDFFE00
ENDCHAR
STARTCHAR 040B
ENCODING 1035
SWIDTH 748 0
DWIDTH 26 0
BBX 24 23 1 0
BITMAP
FFFFC0
F9CFC0
C1C0C0
81C040
81C040
01C000
01C000
01C3E0
01C7F0
01DCF8
01F038
01E038
01C038
01C038
01C038
01C038
01C038
01C038
01C038
01C03C
01C03C
01E03C
0FF9FF
ENDCHAR
STARTCHAR 040C
ENCODING 1036
SWIDTH 662 0
DWIDTH 23 0
BBX 22 30 1 0
BITMAP
003C00
003800
003000
006000
004000
000000
000000
FFC0F8
3E03F8
1C0378
1C0200
1C0600
1C0400
1C0C00
1C0800
1C1800
1C3000
1DE000
1FE000
1CF000
1C7800
1C3C00
1C1C00
1C0E00
1C0F00
1C0780
1C0380
1C03C0
3E01E0
FFC0FC
ENDCHAR
STARTCHAR 040D
ENCODING 1037
SWIDTH 720 0
DWIDTH 25 0
BBX 23 30 1 0
BITMAP
00E000
006000
003000
003000
001000
000000
000000
FFC7FE
3E00F8
1C0070
1C0070
1C00F0
1C00F0
1C0170
1C0270
1C0670
1C0C70
1C0870
1C1070
1C3070
1C6070
1C4070
1C8070
1D0070
1F0070
1E0070
1C0070
1C0070
3E00F8
FFC7FE
ENDCHAR
STARTCHAR 040E
ENCODING 1038
SWIDTH 720 0
DWIDTH 25 0
BBX 24 31 0 -1
BITMAP
010000
0380E0
0380E0
01C1E0
00E3C0
001C00
000000
000000
FFC07F
3E001C
1E0018
0F0010
070030
078030
038020
03C060
01E040
01E0C0
00F080
007080
007980
003900
003F00
001E00
001E00
000C00
000C00
000800
031800
07F000
07E000
ENDCHAR
STARTCHAR 040F
ENCODING 1039
SWIDTH 720 0
DWIDTH 25 0
BBX 23 30 1 -7
BITMAP
FFC3FE
3E00F8
1C0070
1C0070
1C0070
1C0070
1C0070
1C0070
1C0070
1C0070
1C0070
1C0070
1C0070
1C0070
1C0070
1C0070
1C0070
1C0070
1C0070
1C0070
1C0070
3E00F8
FFFFFE
00FE00
003800
003800
001000
001000
001000
001000
ENDCHAR
STARTCHAR 0410
ENCODING 1040
SWIDTH 720 0
DWIDTH 25 0
BBX 25 24 0 0
BITMAP
00080000
00080000
001C0000
001C0000
003C0000
003E0000
002E0000
006F0000
00470000
00C78000
00878000
01838000
0183C000
0101C000
0301E000
03FFE000
0600E000
0400F000
0C007000
0C007800
08003800
18003C00
38003C00
FF00FF80
ENDCHAR
STARTCHAR 0411
ENCODING 1041
SWIDTH 576 0
DWIDTH 20 0
BBX 18 23 1 0
BITMAP
FFFF00
3C0700
1C0100
1C0100
1C0100
1C0000
1C0000
1C0000
1C0000
1C0000
1FE000
1FFE00
1C0F00
1C0780
1C0380
1C03C0
1C03C0
1C03C0
1C0380
1C0780
1C0F00
3C1E00
FFF800
ENDCHAR
STARTCHAR 0412
ENCODING 1042
SWIDTH 662 0
DWIDTH 23 0
BBX 20 23 1 0
BITMAP
FFFC00
3C0F80
1C03C0
1C01E0
1C01E0
1C00E0
1C00E0
1C01E0
1C01E0
1C03C0
1E1F80
1FFF00
1C07C0
1C01E0
1C00F0
1C00F0
1C00F0
1C00F0
1C00F0
1C00E0
1C01E0
3E0FC0
FFFE00
ENDCHAR
STARTCHAR 0413
ENCODING 1043
SWIDTH 576 0
DWIDTH 20 0
BBX 18 23 1 0
BITMAP
FFFFC0
3C01C0
1C0040
1C0040
1C0040
1C0000
1C0000
1C0000
1C0000
1C0000
1C0000
1C0000
1C0000
1C0000
1C0000
1C0000
1C0000
1C0000
1C0000
1C0000
1C0000
3E0000
FF8000
ENDCHAR
STARTCHAR 0414
ENCODING 1044
SWIDTH 691 0
DWIDTH 24 0
BBX 23 30 0 -7
BITMAP
0FFFFE
01C0F0
00C0F0
00C0F0
00C0F0
0080F0
0080F0
0080F0
0080F0
0080F0
0180F0
0180F0
0180F0
0100F0
0100F0
0300F0
0300F0
0200F0
0600F0
0400F0
0C00F0
1801F0
FFFFFE
FC003E
F0000E
E00006
C00006
C00002
800002
800002
ENDCHAR
STARTCHAR 0415
ENCODING 1045
SWIDTH 604 0
DWIDTH 21 0
BBX 19 23 1 0
BITMAP
FFFF80
1C01C0
1C00C0
1C0040
1C0040
1C0000
1C0000
1C0100
1C0100
1C0300
1FFF00
1FFF00
1C0300
1C0100
1C0100
1C0000
1C0000
1C0000
1C0020
1C0060
1C00C0
1E01C0
FFFFC0
ENDCHAR
STARTCHAR 0416
ENCODING 1046
SWIDTH 892 0
DWIDTH 31 0
BBX 31 23 0 0
BITMAP
7C1FF07C
7E07C0FC
7303819C
01038180
01038100
01838300
00838300
00838200
00C38600
00438400
00739C00
003FF800
00739C00
00E38E00
00E38E00
01C38700
01C38780
03838380
078381C0
070381C0
0E0380E0
1E07C0F0
FC1FF07E
ENDCHAR
STARTCHAR 0417
ENCODING 1047
SWIDTH 489 0
DWIDTH 17 0
BBX 15 23 1 0
BITMAP
5FF0
7078
603C
401C
401C
801C
001C
001C
0038
0070
0FE0
0FE0
0078
003C
001C
001E
001E
001E
001E
801C
403C
3078
1FF0
ENDCHAR
STARTCHAR 0418
ENCODING 1048
SWIDTH 720 0
DWIDTH 25 0
BBX 23 23 1 0
BITMAP
FFC7FE
3E00F8
1C0070
1C0070
1C00F0
1C00F0
1C0170
1C0270
1C0670
1C0C70
1C0870
1C1070
1C3070
1C6070
1C4070
1C8070
1D0070
1F0070
1E0070
1C0070
1C0070
3E00F8
FFC7FE
ENDCHAR
STARTCHAR 0419
ENCODING 1049
SWIDTH 720 0
DWIDTH 25 0
BBX 23 31 1 0
BITMAP
020000
0701C0
0701C0
0383C0
01C780
003800
000000
000000
FFC7FE
3E00F8
1C0070
1C0070
1C00F0
1C00F0
1C0170
1C0270
1C0670
1C0C70
1C0870
1C1070
1C3070
1C6070
1C4070
1C8070
1D0070
1F0070
1E0070
1C0070
1C0070
3E00F8
FFC7FE
ENDCHAR
STARTCHAR 041A
ENCODING 1050
SWIDTH 662 0
DWIDTH 23 0
BBX 22 23 1 0
BITMAP
FFC0F8
3E03F8
1C0378
1C0200
1C0600
1C0400
1C0C00
1C0800
1C1800
1C3000
1DE000
1FE000
1CF000
1C7800
1C3C00
1C1C00
1C0E00
1C0F00
1C0780
1C0380
1C03C0
3E01E0
FFC0FC
ENDCHAR
STARTCHAR 041B
ENCODING 1051
SWIDTH 691 0
DWIDTH 24 0
BBX 23 23 0 0
BITMAP
0FFFFE
0180F0
0080F0
0080F0
0080F0
0080F0
0080F0
0080F0
0080F0
0080F0
0080F0
0080F0
0080F0
0080F0
0080F0
0180F0
0180F0
0180F0
0100F0
0300F0
7600F0
FE00F0
7C07FE
ENDCHAR
STARTCHAR 041C
ENCODING 1052
SWIDTH 892 0
DWIDTH 31 0
BBX 29 23 1 0
BITMAP
FC0003F8
3E0003C0
1E0007C0
1F0007C0
170005C0
17800DC0
138009C0
13C019C0
11C011C0
11C031C0
11E031C0
10E061C0
10F061C0
1070C1C0
1078C1C0
103881C0
103D81C0
101D01C0
101F01C0
100E01C0
100E01C0
380C03C0
FF041FF8
ENDCHAR
STARTCHAR 041D
ENCODING 1053
SWIDTH 720 0
DWIDTH 25 0
BBX 23 23 1 0
BITMAP
FF83FE
3E00F0
1C0070
1C0070
1C0070
1C0070
1C0070
1C0070
1C0070
1C0070
1C0070
1FFFF0
1C0070
1C0070
1C0070
1C0070
1C0070
1C0070
1C0070
1C0070
1C0070
3E00F0
FF83FE
ENDCHAR
STARTCHAR 041E
ENCODING 1054
SWIDTH 720 0
DWIDTH 25 0
BBX 23 24 1 0
BITMAP
01FF00
0701C0
0E00E0
1C0070
380078
380038
78003C
70003C
70001C
F0001E
F0001E
F0001E
F0001E
F0001E
70001C
78001C
78003C
380038
3C0038
1C0070
0E00E0
0701C0
01FF00
001000
ENDCHAR
STARTCHAR 041F
ENCODING 1055
SWIDTH 720 0
DWIDTH 25 0
BBX 23 23 1 0
BITMAP
FFFFFE
3C0078
1C0070
1C0070
1C0070
1C0070
1C0070
1C0070
1C0070
1C0070
1C0070
1C0070
1C0070
1C0070
1C0070
1C0070
1C0070
1C0070
1C0070
1C0070
1C0070
3E00F8
FFC3FE
ENDCHAR
STARTCHAR 0420
ENCODING 1056
SWIDTH 547 0
DWIDTH 19 0
BBX 17 23 1 0
BITMAP
FFF000
3F7E00
1C0F00
1C0F00
1C0780
1C0780
1C0780
1C0780
1C0780
1C0700
1C0F00
1F7E00
1CE000
1C0000
1C0000
1C0000
1C0000
1C0000
1C0000
1C0000
1C0000
3E0000
FF8000
ENDCHAR
STARTCHAR 0421
ENCODING 1057
SWIDTH 662 0
DWIDTH 23 0
BBX 21 25 1 -1
BITMAP
000010
01FF10
0780F0
0E0070
1C0030
3C0010
380010
780010
780000
700000
F00000
F00000
F00000
F00000
F00000
700000
780000
780000
380008
3C0010
1E0010
0F0020
07C0C0
03FF00
001000
ENDCHAR
STARTCHAR 0422
ENCODING 1058
SWIDTH 604 0
DWIDTH 21 0
BBX 19 23 1 0
BITMAP
FFFFE0
F8E1E0
C0E020
80E020
80E020
00E000
00E000
00E000
00E000
00E000
00E000
00E000
00E000
00E000
00E000
00E000
00E000
00E000
00E000
00E000
00E000
00F000
07FC00
ENDCHAR
STARTCHAR 0423
ENCODING 1059
SWIDTH 720 0
DWIDTH 25 0
BBX 24 23 0 -1
BITMAP
FFC07F
3E001C
1E0018
0F0010
070030
078030
038020
03C060
01E040
01E0C0
00F080
007080
007980
003900
003F00
001E00
001E00
000C00
000C00
000800
031800
07F000
07E000
ENDCHAR
STARTCHAR 0424
ENCODING 1060
SWIDTH 777 0
DWIDTH 27 0
BBX 25 23 1 0
BITMAP
00FFC000
001E0000
001C0000
007F8000
07FFF800
1E1C1C00
381C0E00
781C0700
701C0780
701C0380
F01C0380
F01C0380
F01C0380
701C0380
701C0780
781C0700
381C0E00
1C1C1E00
0FDDF800
01FFC000
001C0000
001E0000
00FFC000
ENDCHAR
STARTCHAR 0425
ENCODING 1061
SWIDTH 720 0
DWIDTH 25 0
BBX 25 23 0 0
BITMAP
7FE0FF00
0F803C00
07803000
03C02000
03C06000
01E0C000
00F18000
00F10000
007B0000
003E0000
003C0000
001E0000
001F0000
003F0000
00678000
00C3C000
0083C000
0101E000
0300F000
0600F000
0C007800
1C007C00
FF01FF80
ENDCHAR
STARTCHAR 0426
ENCODING 1062
SWIDTH 720 0
DWIDTH 25 0
BBX 23 29 1 -7
BITMAP
FFC7FE
3E00F8
1C0070
1C0070
1C0070
1C0070
1C0070
1C0070
1C0070
1C0070
1C0070
1C0070
1C0070
1C0070
1C0070
1C0070
1C0070
1C0070
1C0070
1C0070
1C0070
3E00F8
FFFFFE
00003E
00000E
000006
000002
000002
000002
ENDCHAR
STARTCHAR 0427
ENCODING 1063
SWIDTH 662 0
DWIDTH 23 0
BBX 22 23 0 0
BITMAP
FFCFFC
1E01E0
1E01E0
1E01E0
1C01E0
1C01E0
1C01E0
1C01E0
1E01E0
1E01E0
1E01E0
1E01E0
0F9FE0
07F9E0
0001E0
0001E0
0001E0
0001E0
0001E0
0001E0
0001E0
0001E0
000FFC
ENDCHAR
STARTCHAR 0428
ENCODING 1064
SWIDTH 1008 0
DWIDTH 35 0
BBX 33 23 1 0
BITMAP
FF8FF8FF80
3E03E03E00
1C01C01C00
1C01C01C00
1C01C01C00
1C01C01C00
1C01C01C00
1C01C01C00
1C01C01C00
1C01C01C00
1C01C01C00
1C01C01C00
1C01C01C00
1C01C01C00
1C01C01C00
1C01C01C00
1C01C01C00
1C01C01C00
1C01C01C00
1C01C01C00
1C01C01C00
1E03E03C00
FFFFFFFF80
ENDCHAR
STARTCHAR 0429
ENCODING 1065
SWIDTH 1008 0
DWIDTH 35 0
BBX 33 30 1 -7
BITMAP
FF8FF8FF80
3E03E03E00
1C01C01C00
1C01C01C00
1C01C01C00
1C01C01C00
1C01C01C00
1C01C01C00
1C01C01C00
1C01C01C00
1C01C01C00
1C01C01C00
1C01C01C00
1C01C01C00
1C01C01C00
1C01C01C00
1C01C01C00
1C01C01C00
1C01C01C00
1C01C01C00
1C01C01C00
1E03E03C00
FFFFFFFF80
0000000F80
0000000380
0000000180
0000000180
0000000080
0000000080
0000000080
ENDCHAR
STARTCHAR 042A
ENCODING 1066
SWIDTH 720 0
DWIDTH 25 0
BBX 22 23 1 0
BITMAP
FFFC00
E1E000
81E000
81E000
81E000
01E000
01E000
01E000
01E000
01E000
01FE00
01FFE0
01E0F8
01E07C
01E03C
01E03C
01E01C
01E03C
01E03C
01E03C
01E078
01E1F0
0FFFC0
ENDCHAR
STARTCHAR 042B
ENCODING 1067
SWIDTH 864 0
DWIDTH 30 0
BBX 29 23 1 0
BITMAP
FFC01FF8
3E0003C0
1C000380
1C000380
1C000380
1C000380
1C000380
1C000380
1C000380
1C000380
1FE00380
1FFE0380
1C0F0380
1C078380
1C038380
1C03C380
1C03C380
1C03C380
1C03C380
1C078380
1C0F0380
3C1E03C0
FFF81FF8
ENDCHAR
STARTCHAR 042C
ENCODING 1068
SWIDTH 576 0
DWIDTH 20 0
BBX 18 23 1 0
BITMAP
FFC000
3E0000
1C0000
1C0000
1C0000
1C0000
1C0000
1C0000
1C0000
1C0000
1FE000
1FFE00
1C0F00
1C0780
1C0380
1C03C0
1C03C0
1C03C0
1C0380
1C0780
1C0F00
3C1E00
FFF800
ENDCHAR
STARTCHAR 042D
ENCODING 1069
SWIDTH 662 0
DWIDTH 23 0
BBX 21 23 1 0
BITMAP
6FFC00
7C0E00
700380
6001C0
6001C0
4000E0
4000F0
0000F0
000070
000078
000078
00FFF8
000078
000078
000070
0000F0
0000F0
0000E0
8001E0
4003C0
200780
180F00
07FC00
ENDCHAR
STARTCHAR 042E
ENCODING 1070
SWIDTH 1036 0
DWIDTH 36 0
BBX 33 23 1 0
BITMAP
FF803FE000
1E00E07800
1C01C01C00
1C03800E00
1C07000E00
1C0F000700
1C0E000780
1C0E000780
1C1E000780
1C1E000780
1C1E000380
1FFE000380
1C1E000380
1C1E000380
1C1E000780
1C1E000780
1C0E000700
1C0F000700
1C07000E00
1C03800E00
1C03C01C00
1E00E03800
FF807FE000
ENDCHAR
STARTCHAR 042F
ENCODING 1071
SWIDTH 662 0
DWIDTH 23 0
BBX 23 23 0 0
BITMAP
007FFE
01F1F0
03C0E0
0780E0
0780E0
0780E0
0700E0
0780E0
0780E0
03C0E0
01E0E0
007FE0
0038E0
0078E0
00F0E0
00E0E0
01E0E0
03C0E0
0780E0
0700E0
0F00E0
1E00F0
FC07FE
ENDCHAR
STARTCHAR 0430
ENCODING 1072
SWIDTH 432 0
DWIDTH 15 0
BBX 14 16 1 0
BITMAP
0F80
38E0
70E0
7070
7070
0070
01F0
0670
1870
7070
6070
E070
E070
F0F4
7F7C
3E78
ENDCHAR
STARTCHAR 0431
ENCODING 1073
SWIDTH 518 0
DWIDTH 18 0
BBX 16 24 1 0
BITMAP
0003
03FE
0FFC
1FC0
1800
3000
2000
6000
43E0
4C70
5838
701C
F01E
F00E
F00E
F00E
F00E
700E
700E
700E
380C
381C
1C18
0FF0
ENDCHAR
STARTCHAR 0432
ENCODING 1074
SWIDTH 460 0
DWIDTH 16 0
BBX 14 16 1 0
BITMAP
FE00
7FF0
3878
3838
3838
3838
3870
3FE0
3FF0
3838
381C
381C
381C
383C
3878
FFE0
ENDCHAR
STARTCHAR 0433
ENCODING 1075
SWIDTH 403 0
DWIDTH 14 0
BBX 13 16 1 0
BITMAP
FFF0
7FF8
3818
3808
3808
3800
3800
3800
3800
3800
3800
3800
3800
3800
3800
FE00
ENDCHAR
STARTCHAR 0434
ENCODING 1076
SWIDTH 518 0
DWIDTH 18 0
BBX 17 20 0 -4
BITMAP
1FFF80
07FE00
020E00
020E00
020E00
020E00
020E00
020E00
040E00
040E00
040E00
040E00
080E00
080E00
100E00
FFFF80
E00380
C00180
C00080
800080
ENDCHAR
STARTCHAR 0435
ENCODING 1077
SWIDTH 432 0
DWIDTH 15 0
BBX 13 16 1 0
BITMAP
07C0
18F0
3070
6038
6038
7FF8
E000
E000
E000
E000
F008
7008
7818
3E30
3FE0
0FC0
ENDCHAR
STARTCHAR 0436
ENCODING 1078
SWIDTH 691 0
DWIDTH 24 0
BBX 24 16 0 0
BITMAP
30FF0C
783C1E
7C3C3E
041820
021840
021840
011880
00FF00
0399C0
0718E0
0718E0
0E1870
0E1870
1C1C38
3C3C3C
F8FF1F
ENDCHAR
STARTCHAR 0437
ENCODING 1079
SWIDTH 403 0
DWIDTH 14 0
BBX 13 16 0 0
BITMAP
4F80
70E0
6070
6070
4070
00E0
00C0
0700
01E0
0070
0070
0078
0078
8070
60F0
1FE0
ENDCHAR
STARTCHAR 0438
ENCODING 1080
SWIDTH 547 0
DWIDTH 19 0
BBX 17 16 1 0
BITMAP
FE3F80
7C1E00
380E00
380C00
381C00
382C00
384C00
38CC00
398C00
3B0C00
3A0C00
3C0C00
380C00
380C00
381E00
FE7F80
ENDCHAR
STARTCHAR 0439
ENCODING 1081
SWIDTH 547 0
DWIDTH 19 0
BBX 17 23 1 0
BITMAP
180C00
1C1C00
1C1800
0E7000
03C000
000000
000000
FE3F80
7C1E00
380E00
380C00
381C00
382C00
384C00
38CC00
398C00
3B0C00
3A0C00
3C0C00
380C00
380C00
381E00
FE7F80
ENDCHAR
STARTCHAR 043A
ENCODING 1082
SWIDTH 489 0
DWIDTH 17 0
BBX 16 16 1 0
BITMAP
FF0C
7C3E
383E
3840
3840
38C0
3880
3F80
3BC0
39C0
38E0
38F0
3870
3878
383C
FF1F
ENDCHAR
STARTCHAR 043B
ENCODING 1083
SWIDTH 489 0
DWIDTH 17 0
BBX 17 16 0 0
BITMAP
1FFF80
0FFE00
041C00
041C00
041C00
041C00
041C00
041C00
041C00
041C00
041C00
041C00
041C00
4C1C00
F81C00
F87F80
ENDCHAR
STARTCHAR 043C
ENCODING 1084
SWIDTH 633 0
DWIDTH 22 0
BBX 20 16 1 0
BITMAP
F801F0
7C01C0
3C03C0
2E03C0
2E05C0
2E05C0
270DC0
2709C0
2389C0
2391C0
21D1C0
21E1C0
21E1C0
20E1C0
30C1C0
FC47F0
ENDCHAR
STARTCHAR 043D
ENCODING 1085
SWIDTH 547 0
DWIDTH 19 0
BBX 17 16 1 0
BITMAP
FE7F80
7C1E00
380E00
380C00
380C00
380C00
380C00
3FFC00
3FFC00
380C00
380C00
380C00
380C00
380C00
381E00
FE7F80
ENDCHAR
STARTCHAR 043E
ENCODING 1086
SWIDTH 489 0
DWIDTH 17 0
BBX 15 16 1 0
BITMAP
07C0
1C70
3038
301C
701C
600E
E00E
E00E
E00E
F00E
F00E
700C
780C
3818
1C38
0FE0
ENDCHAR
STARTCHAR 043F
ENCODING 1087
SWIDTH 547 0
DWIDTH 19 0
BBX 17 16 1 0
BITMAP
FFFF80
7FFE00
380E00
380C00
380C00
380C00
380C00
380C00
380C00
380C00
380C00
380C00
380C00
380C00
381E00
FE7F80
ENDCHAR
STARTCHAR 0440
ENCODING 1088
SWIDTH 489 0
DWIDTH 17 0
BBX 16 23 0 -7
BITMAP
08F8
79FC
BBFE
3A1E
1C0F
1807
1807
1807
1807
1807
1807
1807
1806
1C0E
1C1C
1BF8
1800
1800
1800
1800
1800
3C00
FF00
ENDCHAR
STARTCHAR 0441
ENCODING 1089
SWIDTH 432 0
DWIDTH 15 0
BBX 13 16 1 0
BITMAP
07C0
18F0
3078
7078
6038
6000
E000
E000
E000
E000
F000
7008
7810
3C30
3FE0
0FC0
ENDCHAR
STARTCHAR 0442
ENCODING 1090
SWIDTH 432 0
DWIDTH 15 0
BBX 15 16 0 0
BITMAP
7FFC
7FFC
4386
8382
8382
0380
0380
0380
0380
0380
0380
0380
0380
0380
0380
0FF0
ENDCHAR
STARTCHAR 0443
ENCODING 1091
SWIDTH 489 0
DWIDTH 17 0
BBX 17 23 0 -7
BITMAP
FE0F80
7C0700
3C0200
1C0600
1C0400
0E0400
0E0C00
070800
071800
039000
03B000
01F000
01E000
00E000
00C000
00C000
00C000
008000
018000
010000
7B0000
7E0000
7C0000
ENDCHAR
STARTCHAR 0444
ENCODING 1092
SWIDTH 662 0
DWIDTH 23 0
BBX 20 31 1 -7
BITMAP
007000
01F000
00F000
007000
007000
007000
007000
007000
0F7780
1CF9C0
3870E0
7070E0
707060
707070
707070
E07070
E07070
607070
707070
707070
707060
3070E0
38F0C0
1F7F80
007000
007000
007000
007000
007000
007000
01FC00
ENDCHAR
STARTCHAR 0445
ENCODING 1093
SWIDTH 489 0
DWIDTH 17 0
BBX 17 16 0 0
BITMAP
FF3E00
3E1C00
1E1800
0E3000
072000
07E000
03C000
01C000
01E000
02E000
067000
047800
083800
181C00
301E00
7C3F80
ENDCHAR
STARTCHAR 0446
ENCODING 1094
SWIDTH 547 0
DWIDTH 19 0
BBX 17 20 1 -4
BITMAP
FE7F80
7C1E00
380E00
380C00
380C00
380C00
380C00
380C00
380C00
380C00
380C00
380C00
380C00
380E00
381E00
FFFF80
000380
000180
000080
000080
ENDCHAR
STARTCHAR 0447
ENCODING 1095
SWIDTH 489 0
DWIDTH 17 0
BBX 16 16 1 0
BITMAP
FEFF
783C
3838
3018
3018
3018
3018
3838
3FF8
1F18
0018
0018
0018
0018
003C
00FF
ENDCHAR
STARTCHAR 0448
ENCODING 1096
SWIDTH 777 0
DWIDTH 27 0
BBX 25 16 1 0
BITMAP
FE7F7F80
7C3C1E00
381C0E00
381C0E00
381C0E00
381C0E00
381C0E00
381C0E00
381C0E00
381C0E00
381C0E00
381C0E00
381C0E00
381C0E00
381C0E00
FFFFFF80
ENDCHAR
STARTCHAR 0449
ENCODING 1097
SWIDTH 777 0
DWIDTH 27 0
BBX 25 20 1 -4
BITMAP
FE7F7F80
7C3C1E00
381C0E00
381C0E00
381C0E00
381C0E00
381C0E00
381C0E00
381C0E00
381C0E00
381C0E00
381C0E00
381C0E00
381C0E00
381C0E00
FFFFFF80
00000380
00000180
00000080
00000080
ENDCHAR
STARTCHAR 044A
ENCODING 1098
SWIDTH 518 0
DWIDTH 18 0
BBX 17 16 0 0
BITMAP
7FE000
7F8000
470000
870000
870000
070000
070000
07F000
071E00
070700
070780
070380
070380
070700
070F00
1FFC00
ENDCHAR
STARTCHAR 044B
ENCODING 1099
SWIDTH 662 0
DWIDTH 23 0
BBX 22 16 1 0
BITMAP
FF03FC
7C00F0
3800E0
3800E0
3800E0
3800E0
3800E0
3F80E0
3BF0E0
3838E0
383CE0
381CE0
383CE0
3838E0
3870E0
FFE3FC
ENDCHAR
STARTCHAR 044C
ENCODING 1100
SWIDTH 460 0
DWIDTH 16 0
BBX 14 16 1 0
BITMAP
FF00
7C00
3800
3800
3800
3800
3800
3F80
3BF0
3838
383C
381C
383C
3838
3870
FFE0
ENDCHAR
STARTCHAR 044D
ENCODING 1101
SWIDTH 432 0
DWIDTH 15 0
BBX 13 16 1 0
BITMAP
1F00
71C0
40E0
40F0
8070
0070
0078
0FF8
0038
0038
0070
0070
0070
8060
40C0
3F80
ENDCHAR
STARTCHAR 044E
ENCODING 1102
SWIDTH 748 0
DWIDTH 26 0
BBX 24 16 1 0
BITMAP
FE03E0
7C0C78
38181C
38301E
38300E
38700E
38700F
3FF00F
387007
387007
387006
38780E
38380E
383C0C
381E18
FE0FF0
ENDCHAR
STARTCHAR 044F
ENCODING 1103
SWIDTH 460 0
DWIDTH 16 0
BBX 15 16 0 0
BITMAP
00FE
0FFC
1C38
3C38
3838
3C38
1C38
0F38
03F8
0738
0738
0E38
1C38
3C38
3838
F0FE
ENDCHAR
STARTCHAR 0451
ENCODING 1105
SWIDTH 432 0
DWIDTH 15 0
BBX 13 23 1 0
BITMAP
0820
1C70
1C70
1C70
0000
0000
0000
07C0
18F0
3070
6038
6038
7FF8
E000
E000
E000
E000
F008
7008
7818
3E30
3FE0
0FC0
ENDCHAR
STARTCHAR 0452
ENCODING 1106
SWIDTH 489 0
DWIDTH 17 0
BBX 15 31 0 -7
BITMAP
0C00
7C00
3C00
1C00
FFF8
1C00
1C00
1C00
1CF0
1DF8
1F3C
1C1C
1C1C
1C1E
1C1E
1C0E
1C0E
1C0E
1C0E
1C0E
1C0E
1C0E
3C1C
FF1C
001C
001C
0018
0038
0030
0060
01C0
ENDCHAR
STARTCHAR 0453
ENCODING 1107
SWIDTH 403 0
DWIDTH 14 0
BBX 13 24 1 0
BITMAP
03C0
0380
0700
0600
0400
0400
0000
0000
FFF0
7FF8
3818
3808
3808
3800
3800
3800
3800
3800
3800
3800
3800
3800
3800
FE00
ENDCHAR
STARTCHAR 0454
ENCODING 1108
SWIDTH 432 0
DWIDTH 15 0
BBX 13 16 1 0
BITMAP
07C0
1C70
3810
7810
7010
7000
F000
FF80
E000
E000
E000
7000
7000
3008
1810
0FE0
ENDCHAR
STARTCHAR 0455
ENCODING 1109
SWIDTH 403 0
DWIDTH 14 0
BBX 10 16 2 0
BITMAP
3E80
6380
C180
C080
C080
E000
F800
7E00
3F80
0FC0
03C0
81C0
80C0
80C0
C180
FF00
ENDCHAR
STARTCHAR 0456
ENCODING 1110
SWIDTH 288 0
DWIDTH 10 0
BBX 8 24 1 0
BITMAP
18
3C
18
00
00
00
00
00
18
78
38
18
18
18
18
18
18
18
18
18
18
1C
3C
FF
ENDCHAR
STARTCHAR 0457
ENCODING 1111
SWIDTH 288 0
DWIDTH 10 0
BBX 10 23 0 0
BITMAP
6180
F3C0
F3C0
6180
0000
0000
0000
0C00
3C00
1C00
0C00
0C00
0C00
0C00
0C00
0C00
0C00
0C00
0C00
0C00
0C00
1E00
7F80
ENDCHAR
STARTCHAR 0458
ENCODING 1112
SWIDTH 288 0
DWIDTH 10 0
BBX 10 31 -3 -7
BITMAP
0180
03C0
01C0
0000
0000
0000
0000
0000
0080
0780
0380
0180
0180
0180
0180
0180
0180
0180
0180
0180
0180
0180
0180
0180
0180
0180
0180
0180
4180
F300
7E00
ENDCHAR
STARTCHAR 0459
ENCODING 1113
SWIDTH 720 0
DWIDTH 25 0
BBX 24 16 0 0
BITMAP
0FFFC0
07FF00
020600
020600
020600
020600
020600
0207E0
02067E
02060F
020607
020607
020607
620E0F
FC0E1E
783FF8
ENDCHAR
STARTCHAR 045A
ENCODING 1114
SWIDTH 720 0
DWIDTH 25 0
BBX 23 16 1 0
BITMAP
FF7F80
7C1E00
381C00
381C00
381C00
381C00
381C00
3FFF80
3FFFF8
381C1C
381C0E
381C0E
381C0E
381C1C
381C3C
FF7FF0
ENDCHAR
STARTCHAR 045B
ENCODING 1115
SWIDTH 489 0
DWIDTH 17 0
BBX 17 24 0 0
BITMAP
0C0000
7C0000
3C0000
1C0000
1C0000
FFF800
1C0000
1C0000
1C7800
1DFC00
1F1C00
1C0E00
1C0E00
1C0E00
1C0E00
1C0E00
1C0E00
1C0E00
1C0E00
1C0E00
1C0E00
1C0E00
1C0E00
FF7F80
ENDCHAR
STARTCHAR 045C
ENCODING 1116
SWIDTH 489 0
DWIDTH 17 0
BBX 16 24 1 0
BITMAP
01E0
01C0
0180
0180
0300
0200
0000
0000
FF0C
7C3E
383E
3840
3840
38C0
3880
3F80
3BC0
39C0
38E0
38F0
3870
3878
383C
FF1F
ENDCHAR
STARTCHAR 045D
ENCODING 1117
SWIDTH 547 0
DWIDTH 19 0
BBX 17 24 1 0
BITMAP
0F0000
070000
030000
018000
018000
008000
000000
000000
FE3F80
7C1E00
380E00
380C00
381C00
382C00
384C00
38CC00
398C00
3B0C00
3A0C00
3C0C00
380C00
380C00
381E00
FE7F80
ENDCHAR
STARTCHAR 045E
ENCODING 1118
SWIDTH 489 0
DWIDTH 17 0
BBX 17 30 0 -7
BITMAP
0C0C00
1C0E00
0E1C00
073800
01E000
000000
000000
FE0F80
7C0700
3C0200
1C0600
1C0400
0E0C00
0E0C00
070800
071800
039000
03B000
01F000
01E000
00E000
00C000
00C000
00C000
008000
018000
010000
7B0000
7E0000
7C0000
ENDCHAR
STARTCHAR 045F
ENCODING 1119
SWIDTH 547 0
DWIDTH 19 0
BBX 17 20 1 -4
BITMAP
FE7F80
7C1E00
380E00
380C00
380C00
380C00
380C00
380C00
380C00
380C00
380C00
380C00
380C00
380C00
381E00
FFFF80
03E000
018000
008000
008000
ENDCHAR
STARTCHAR 0490
ENCODING 1168
SWIDTH 460 0
DWIDTH 16 0
BBX 14 27 1 0
BITMAP
0004
0004
0004
000C
FFFC
3C00
1C00
1C00
1C00
1C00
1C00
1C00
1C00
1C00
1C00
1C00
1C00
1C00
1C00
1C00
1C00
1C00
1C00
1C00
1C00
3E00
FF80
ENDCHAR
STARTCHAR 0491
ENCODING 1169
SWIDTH 345 0
DWIDTH 12 0
BBX 11 18 1 0
BITMAP
0020
0020
FFE0
7FE0
3800
3800
3800
3800
3800
3800
3800
3800
3800
3800
3800
3800
3800
FE00
ENDCHAR
STARTCHAR 0492
ENCODING 1170
SWIDTH 576 0
DWIDTH 20 0
BBX 18 23 1 0
BITMAP
FFFFC0
3C01C0
1C0040
1C0040
1C0040
1C0000
1C0000
1C0000
1C0000
1C0000
FFF800
FFF800
1C0000
1C0000
1C0000
1C0000
1C0000
1C0000
1C0000
1C0000
1C0000
3E0000
FF8000
ENDCHAR
STARTCHAR 0493
ENCODING 1171
SWIDTH 403 0
DWIDTH 14 0
BBX 13 16 1 0
BITMAP
FFF0
7FF8
3818
3808
3808
3800
3800
FF00
FF00
3800
3800
3800
3800
3800
3800
FE00
ENDCHAR
STARTCHAR 0496
ENCODING 1174
SWIDTH 892 0
DWIDTH 31 0
BBX 31 30 0 -7
BITMAP
7C1FF07C
7E07C0FC
7303819C
01038180
01038100
01838300
01838300
00838200
00C38600
00438400
00739C00
003FF800
00739C00
00E38E00
00E38F00
01C38700
01C38780
03838380
078381C0
070381C0
0E0380E0
1E07C0F0
FC1FF07E
0000001E
0000000E
00000006
00000002
00000002
00000002
00000002
ENDCHAR
STARTCHAR 0497
ENCODING 1175
SWIDTH 691 0
DWIDTH 24 0
BBX 24 20 0 -4
BITMAP
30FF0C
783C1E
7C3C3E
061820
021840
021840
011880
00FF00
0399C0
0718E0
0718E0
0E1870
0E1870
1C1C38
3C3C3C
F8FF1F
000007
000003
000001
000001
ENDCHAR
STARTCHAR 049A
ENCODING 1178
SWIDTH 662 0
DWIDTH 23 0
BBX 22 30 1 -7
BITMAP
FFC0F8
3E01F8
1C0378
1C0600
1C0600
1C0400
1C0C00
1C0800
1C1800
1C3000
1CE000
1FE000
1CF000
1C7800
1C3C00
1C1C00
1C0E00
1C0F00
1C0780
1C0380
1C03C0
3E01E0
FFC0FC
00003C
00000C
00000C
000004
000004
000004
000004
ENDCHAR
STARTCHAR 049B
ENCODING 1179
SWIDTH 489 0
DWIDTH 17 0
BBX 16 20 1 -4
BITMAP
FF0C
7C3E
383E
3860
3840
38C0
3980
3F80
3BC0
39C0
38E0
38F0
3870
3878
383C
FF1F
0007
0003
0001
0001
ENDCHAR
STARTCHAR 049C
ENCODING 1180
SWIDTH 662 0
DWIDTH 23 0
BBX 22 23 1 0
BITMAP
FFC0F8
3E01F8
1C0378
1C0600
1CC600
1CC400
1CCC00
1CC800
1CD800
1CF000
1CE000
1FE000
1CF000
1CF800
1CFC00
1CDC00
1CCE00
1CCF00
1CC780
1C0380
1C03C0
3E01E0
FFC0FC
ENDCHAR
STARTCHAR 049D
ENCODING 1181
SWIDTH 489 0
DWIDTH 17 0
BBX 16 16 1 0
BITMAP
FF0C
7C3E
383E
3960
3940
39C0
3980
3F80
3BC0
39C0
39E0
39F0
3970
3878
383C
FF1F
ENDCHAR
STARTCHAR 04A2
ENCODING 1186
SWIDTH 720 0
DWIDTH 25 0
BBX 23 29 1 -7
BITMAP
FF83FE
3E00F0
1C0070
1C0070
1C0070
1C0070
1C0070
1C0070
1C0070
1C0070
1C0070
1FFFF0
1C0070
1C0070
1C0070
1C0070
1C0070
1C0070
1C0070
1C0070
1C0070
3E00F0
FF83FE
00003E
00000E
000006
000002
000002
000002
ENDCHAR
STARTCHAR 04A3
ENCODING 1187
SWIDTH 547 0
DWIDTH 19 0
BBX 17 20 1 -4
BITMAP
FE7F80
7C1E00
380E00
380C00
380C00
380C00
380C00
3FFC00
3FFC00
380C00
380C00
380C00
380C00
380C00
381E00
FE7F80
000380
000180
000080
000080
ENDCHAR
STARTCHAR 04AE
ENCODING 1198
SWIDTH 720 0
DWIDTH 25 0
BBX 25 23 0 0
BITMAP
FFC07F80
1F001C00
1F001800
0F001000
07803000
07806000
03C04000
01E0C000
01E18000
00F10000
007B0000
007E0000
003E0000
001C0000
001C0000
001C0000
001C0000
001C0000
001C0000
001C0000
001C0000
003C0000
00FF8000
ENDCHAR
STARTCHAR 04AF
ENCODING 1199
SWIDTH 489 0
DWIDTH 17 0
BBX 17 23 0 -7
BITMAP
FF1F80
7C0700
3C0600
1C0600
1C0400
0E0C00
0E0800
0E1800
071000
071000
03B000
03A000
03E000
01C000
01C000
01C000
01C000
01C000
01C000
01C000
01C000
01C000
07F800
ENDCHAR
STARTCHAR 04B0
ENCODING 1200
SWIDTH 720 0
DWIDTH 25 0
BBX 25 23 0 0
BITMAP
FFC07F80
3F001C00
1F001800
0F001000
07803000
07806000
03C04000
01E0C000
01E18000
00F10000
007B0000
007E0000
003E0000
001C0000
0FFFF000
001C0000
001C0000
001C0000
001C0000
001C0000
001C0000
003C0000
00FF8000
ENDCHAR
STARTCHAR 04B1
ENCODING 1201
SWIDTH 489 0
DWIDTH 17 0
BBX 17 23 0 -7
BITMAP
FF1F80
7C0700
3C0600
1C0600
1C0400
0E0C00
0E0800
0E1800
071000
071000
03B000
03A000
03E000
01C000
01C000
FFFF80
01C000
01C000
01C000
01C000
01C000
01C000
07F800
ENDCHAR
STARTCHAR 04B2
ENCODING 1202
SWIDTH 720 0
DWIDTH 25 0
BBX 25 30 0 -7
BITMAP
7FE0FF00
0F803C00
07803000
03C03000
03C06000
01E0C000
00F18000
00F10000
007B0000
003E0000
003C0000
001E0000
001F0000
003F0000
00678000
00C3C000
0083C000
0101E000
0300F000
0600F000
0C007800
1C007C00
FF01FF80
00000F80
00000780
00000380
00000180
00000180
00000080
00000080
ENDCHAR
STARTCHAR 04B3
ENCODING 1203
SWIDTH 489 0
DWIDTH 17 0
BBX 17 20 0 -4
BITMAP
FF3E00
3E1C00
1E1800
0E3000
072000
07E000
03C000
01C000
01E000
02E000
067000
047800
083800
181C00
301E00
7C3F80
000380
000080
000080
000080
ENDCHAR
STARTCHAR 04B8
ENCODING 1208
SWIDTH 662 0
DWIDTH 23 0
BBX 22 23 0 0
BITMAP
FFCFFC
1E01E0
1E01E0
1E01E0
1C01E0
1C31E0
1C31E0
1C31E0
1E31E0
1E31E0
1E31E0
1E31E0
0FBFE0
07F9E0
0031E0
0031E0
0031E0
0031E0
0031E0
0001E0
0001E0
0001E0
000FFC
ENDCHAR
STARTCHAR 04B9
ENCODING 1209
SWIDTH 489 0
DWIDTH 17 0
BBX 16 16 1 0
BITMAP
FEFF
783C
3838
3018
3118
3118
3118
3938
3FF8
1F18
0118
0118
0018
0018
003C
00FF
ENDCHAR
STARTCHAR 04BA
ENCODING 1210
SWIDTH 662 0
DWIDTH 23 0
BBX 22 23 1 0
BITMAP
FFC000
3E0000
1C0000
1C0000
1C0000
1C0000
1C0000
1C0000
1C0000
1C7F80
1FEFC0
1E03C0
1C01C0
1C01C0
1C01C0
1C01C0
1C01C0
1C01C0
1C01C0
1C01C0
1C01C0
1E01E0
FFCFFC
ENDCHAR
STARTCHAR 04BB
ENCODING 1211
SWIDTH 489 0
DWIDTH 17 0
BBX 17 24 0 0
BITMAP
1C0000
7C0000
3C0000
1C0000
1C0000
1C0000
1C0000
1C0000
1C7800
1DFC00
1F1C00
1C0E00
1C0E00
1C0E00
1C0E00
1C0E00
1C0E00
1C0E00
1C0E00
1C0E00
1C0E00
1C0E00
1C0E00
FF7F80
ENDCHAR
STARTCHAR 04D8
ENCODING 1240
SWIDTH 720 0
DWIDTH 25 0
BBX 23 24 1 0
BITMAP
1BFF00
1F03C0
1C00E0
180070
180078
100038
10003C
00003C
00001C
00001E
00001E
FFFFFE
F0001E
F0001E
F0001C
F0003C
70003C
780038
380078
3C00F0
1E00E0
0703C0
03FF00
001000
ENDCHAR
STARTCHAR 04D9
ENCODING 1241
SWIDTH 432 0
DWIDTH 15 0
BBX 13 16 1 0
BITMAP
0F80
1FE0
3FF0
60F0
4078
8038
0038
0018
0018
0018
FFF8
F018
7018
7030
3860
1FC0
ENDCHAR
STARTCHAR 04E8
ENCODING 1256
SWIDTH 720 0
DWIDTH 25 0
BBX 23 24 1 0
BITMAP
01FF00
0701C0
0E00E0
1C0070
380078
380038
78003C
70003C
70001C
F0001E
F0001E
FFFFFE
F0001E
F0001E
70001C
78001C
78003C
380038
3C0038
1C0070
0E00E0
0701C0
01FF00
001000
ENDCHAR
STARTCHAR 04E9
ENCODING 1257
SWIDTH 489 0
DWIDTH 17 0
BBX 15 16 1 0
BITMAP
07C0
1C70
3038
301C
701C
600E
E00E
FFFE
E00E
F00E
F00E
700C
780C
3818
1C38
0FE0
ENDCHAR
STARTCHAR 05B0
ENCODING 1456
SWIDTH 345 0
DWIDTH 12 0
BBX 3 6 4 -7
BITMAP
60
E0
40
00
60
E0
ENDCHAR
STARTCHAR 05B1
ENCODING 1457
SWIDTH 345 0
DWIDTH 12 0
BBX 11 6 0 -7
BITMAP
6660
EEE0
6440
0000
18E0
38E0
ENDCHAR
STARTCHAR 05B2
ENCODING 1458
SWIDTH 345 0
DWIDTH 12 0
BBX 10 6 1 -7
BITMAP
F980
F9C0
0080
0000
01C0
01C0
ENDCHAR
STARTCHAR 05B3
ENCODING 1459
SWIDTH 345 0
DWIDTH 12 0
BBX 11 6 0 -7
BITMAP
FE60
FEE0
1040
1800
3860
10E0
ENDCHAR
STARTCHAR 05B4
ENCODING 1460
SWIDTH 345 0
DWIDTH 12 0
BBX 3 2 4 -4
BITMAP
E0
E0
ENDCHAR
STARTCHAR 05B5
ENCODING 1461
SWIDTH 345 0
DWIDTH 12 0
BBX 7 2 2 -4
BITMAP
EE
6E
ENDCHAR
STARTCHAR 05B6
ENCODING 1462
SWIDTH 345 0
DWIDTH 12 0
BBX 7 6 2 -7
BITMAP
66
EE
44
00
38
38
ENDCHAR
STARTCHAR 05B7
ENCODING 1463
SWIDTH 345 0
DWIDTH 12 0
BBX 7 2 2 -5
BITMAP
FE
FE
ENDCHAR
STARTCHAR 05B8
ENCODING 1464
SWIDTH 345 0
DWIDTH 12 0
BBX 7 5 2 -7
BITMAP
FE
FE
10
18
38
ENDCHAR
STARTCHAR 05B9
ENCODING 1465
SWIDTH 345 0
DWIDTH 12 0
BBX 3 3 4 20
BITMAP
60
E0
40
ENDCHAR
STARTCHAR 05BA
ENCODING 1466
SWIDTH 345 0
DWIDTH 12 0
BBX 3 3 4 20
BITMAP
60
E0
40
ENDCHAR
STARTCHAR 05BB
ENCODING 1467
SWIDTH 345 0
DWIDTH 12 0
BBX 11 6 0 -7
BITMAP
6000
E000
6600
0E00
00E0
00E0
ENDCHAR
STARTCHAR 05BC
ENCODING 1468
SWIDTH 345 0
DWIDTH 12 0
BBX 3 3 4 7
BITMAP
60
E0
40
ENDCHAR
STARTCHAR 05BD
ENCODING 1469
SWIDTH 345 0
DWIDTH 12 0
BBX 2 5 5 -7
BITMAP
C0
C0
C0
C0
C0
ENDCHAR
STARTCHAR 05BE
ENCODING 1470
SWIDTH 345 0
DWIDTH 12 0
BBX 10 4 1 14
BITMAP
FFC0
FFC0
FFC0
FFC0
ENDCHAR
STARTCHAR 05BF
ENCODING 1471
SWIDTH 345 0
DWIDTH 12 0
BBX 7 1 2 21
BITMAP
FE
ENDCHAR
STARTCHAR 05C0
ENCODING 1472
SWIDTH 288 0
DWIDTH 10 0
BBX 2 22 4 -2
BITMAP
C0
C0
C0
C0
C0
C0
C0
C0
C0
C0
C0
C0
C0
C0
C0
C0
C0
C0
C0
C0
C0
C0
ENDCHAR
STARTCHAR 05C1
ENCODING 1473
SWIDTH 345 0
DWIDTH 12 0
BBX 2 2 12 20
BITMAP
C0
C0
ENDCHAR
STARTCHAR 05C2
ENCODING 1474
SWIDTH 345 0
DWIDTH 12 0
BBX 3 3 -3 20
BITMAP
60
E0
40
ENDCHAR
STARTCHAR 05C3
ENCODING 1475
SWIDTH 288 0
DWIDTH 10 0
BBX 4 18 3 0
BITMAP
E0
F0
F0
00
00
00
00
00
00
00
00
00
00
00
00
E0
F0
F0
ENDCHAR
STARTCHAR 05D0
ENCODING 1488
SWIDTH 489 0
DWIDTH 17 0
BBX 14 19 2 0
BITMAP
8080
C0F0
C0F8
E0F8
F078
7820
3C60
1E40
3F40
4FC0
C7C0
C3C0
C1E0
E0F0
E078
F038
703C
7018
F008
ENDCHAR
STARTCHAR 05D1
ENCODING 1489
SWIDTH 460 0
DWIDTH 16 0
BBX 14 19 1 0
BITMAP
4000
7FC0
FFF0
FFF0
7FF8
0038
0018
0018
0018
0018
0018
0018
0010
0010
0010
0020
FFFC
FFFC
FFFC
ENDCHAR
STARTCHAR 05D2
ENCODING 1490
SWIDTH 345 0
DWIDTH 12 0
BBX 10 19 1 0
BITMAP
6000
7C00
7E00
7E00
3E00
0600
0200
0200
0200
0200
0200
0300
0300
0580
0D80
79C0
F8C0
F8C0
F040
ENDCHAR
STARTCHAR 05D3
ENCODING 1491
SWIDTH 432 0
DWIDTH 15 0
BBX 12 19 1 0
BITMAP
4000
FFF0
FFF0
FFF0
7FF0
0020
0040
0040
00C0
00C0
00C0
00C0
00C0
00C0
00C0
00C0
00C0
00C0
0080
ENDCHAR
STARTCHAR 05D4
ENCODING 1492
SWIDTH 460 0
DWIDTH 16 0
BBX 14 19 1 0
BITMAP
4000
FFF8
FFFC
FFFC
7FFC
0008
0008
0018
0018
0018
0018
3018
6018
6018
6018
6018
6018
6018
6018
ENDCHAR
STARTCHAR 05D5
ENCODING 1493
SWIDTH 288 0
DWIDTH 10 0
BBX 7 19 1 0
BITMAP
40
F8
FC
FE
3E
06
06
06
06
06
06
06
06
06
06
06
06
06
04
ENDCHAR
STARTCHAR 05D6
ENCODING 1494
SWIDTH 288 0
DWIDTH 10 0
BBX 8 19 1 0
BITMAP
40
FE
FF
FF
7F
10
10
10
10
10
10
18
18
18
18
18
18
18
10
ENDCHAR
STARTCHAR 05D7
ENCODING 1495
SWIDTH 489 0
DWIDTH 17 0
BBX 13 19 2 0
BITMAP
8000
FFF0
FFF8
FFF8
7FF8
2010
4010
4010
C030
C030
C030
C030
C030
C030
C030
C038
C038
C030
C030
ENDCHAR
STARTCHAR 05D8
ENCODING 1496
SWIDTH 489 0
DWIDTH 17 0
BBX 14 19 1 0
BITMAP
4000
F070
F8F8
F9F8
79FC
210C
220C
2204
2004
6004
6004
2004
2008
3008
3008
3018
3FF8
1FF0
1FF0
ENDCHAR
STARTCHAR 05D9
ENCODING 1497
SWIDTH 259 0
DWIDTH 9 0
BBX 7 11 1 8
BITMAP
40
FC
FC
FE
7E
06
06
06
04
04
08
ENDCHAR
STARTCHAR 05DA
ENCODING 1498
SWIDTH 460 0
DWIDTH 16 0
BBX 13 25 1 -6
BITMAP
4000
FFF0
FFF8
FFF8
7FF8
0030
0030
0030
0030
0030
0030
0030
0030
0030
0030
0030
0030
0030
0030
0030
0030
0030
0030
0030
0030
ENDCHAR
STARTCHAR 05DB
ENCODING 1499
SWIDTH 432 0
DWIDTH 15 0
BBX 12 19 1 0
BITMAP
4000
7F80
FFE0
FFE0
7FF0
0030
0010
0010
0010
0010
0010
0010
0010
0010
0030
01F0
FFE0
FFE0
FF80
ENDCHAR
STARTCHAR 05DC
ENCODING 1500
SWIDTH 432 0
DWIDTH 15 0
BBX 13 25 0 1
BITMAP
E000
7000
2000
2000
2000
2000
2000
7FF0
7FF8
7FF8
3FF8
0008
0008
0008
0008
0008
0018
0030
0060
00C0
0080
0100
0300
0300
0300
ENDCHAR
STARTCHAR 05DD
ENCODING 1501
SWIDTH 518 0
DWIDTH 18 0
BBX 14 19 2 0
BITMAP
8000
FFE0
FFF8
FFF8
7FFC
101C
200C
600C
C00C
C00C
C00C
C00C
C00C
C00C
C00C
C00C
FFFC
FFFC
FFFC
ENDCHAR
STARTCHAR 05DE
ENCODING 1502
SWIDTH 489 0
DWIDTH 17 0
BBX 14 19 1 0
BITMAP
4000
F860
F8F0
78F8
3BF8
0F3C
0C0C
180C
1004
2004
2004
6004
4004
4004
4004
4004
C7FC
C7F8
C7F8
ENDCHAR
STARTCHAR 05DF
ENCODING 1503
SWIDTH 288 0
DWIDTH 10 0
BBX 7 25 1 -6
BITMAP
40
FC
FE
FE
3E
06
04
04
0C
0C
0C
0C
0C
0C
0C
0C
0C
0C
0C
0C
0C
0C
0C
0C
08
ENDCHAR
STARTCHAR 05E0
ENCODING 1504
SWIDTH 316 0
DWIDTH 11 0
BBX 8 19 1 0
BITMAP
60
7E
7F
7F
1F
02
02
02
02
02
02
02
02
03
03
03
FF
FF
FF
ENDCHAR
STARTCHAR 05E1
ENCODING 1505
SWIDTH 489 0
DWIDTH 17 0
BBX 13 19 2 0
BITMAP
8000
FF80
FFE0
FFF0
7FF0
4030
4018
C018
8008
8008
8008
8008
8018
C018
C010
F070
7FF0
3FE0
1FC0
ENDCHAR
STARTCHAR 05E2
ENCODING 1506
SWIDTH 460 0
DWIDTH 16 0
BBX 14 19 1 0
BITMAP
4040
F8F8
FCFC
FC7C
3C38
1008
1008
1010
1810
1C20
0C20
0420
0460
0460
0460
07E0
7FC0
7F80
FE00
ENDCHAR
STARTCHAR 05E3
ENCODING 1507
SWIDTH 460 0
DWIDTH 16 0
BBX 13 25 1 -6
BITMAP
4000
7FC0
7FF0
7FF0
7FF0
2038
4018
4018
C018
F018
F818
F818
4018
0018
0018
0018
0018
0018
0018
0018
0018
0018
0018
0018
0018
ENDCHAR
STARTCHAR 05E4
ENCODING 1508
SWIDTH 432 0
DWIDTH 15 0
BBX 12 19 2 0
BITMAP
4000
FF00
FFC0
FFE0
7FE0
4060
8020
C030
F030
F830
F030
8030
0030
0020
0060
01E0
FFE0
FFC0
FF00
ENDCHAR
STARTCHAR 05E5
ENCODING 1509
SWIDTH 489 0
DWIDTH 17 0
BBX 15 25 1 -6
BITMAP
4040
F87C
FC7E
FC7E
3C3C
0C10
0860
08C0
0980
1B00
1E00
1C00
1C00
1800
1800
1800
1800
1800
1800
1800
1C00
1C00
1C00
1800
1800
ENDCHAR
STARTCHAR 05E6
ENCODING 1510
SWIDTH 460 0
DWIDTH 16 0
BBX 14 19 1 0
BITMAP
C040
F8F8
F8FC
F8FC
7878
0820
0840
0840
0C80
0E80
0F80
07C0
01C0
00F0
0078
0018
7FF8
7FF8
7FF8
ENDCHAR
STARTCHAR 05E7
ENCODING 1511
SWIDTH 460 0
DWIDTH 16 0
BBX 13 25 2 -6
BITMAP
C000
FFE0
FFF0
FFF8
7FF8
0018
0018
0018
4018
C018
C010
C070
C0C0
C380
C600
C400
CC00
CC00
CC00
C000
C000
C000
C000
C000
8000
ENDCHAR
STARTCHAR 05E8
ENCODING 1512
SWIDTH 460 0
DWIDTH 16 0
BBX 13 19 1 0
BITMAP
4000
FFE0
FFF0
FFF8
7FF8
0018
0018
0008
0008
0008
0008
0008
0008
0008
0008
0008
0008
0008
0008
ENDCHAR
STARTCHAR 05E9
ENCODING 1513
SWIDTH 604 0
DWIDTH 21 0
BBX 19 19 1 0
BITMAP
408100
F1E3C0
F9F3E0
F9F3E0
78F1E0
204060
204040
208080
208080
208100
218300
210200
210600
320400
320C00
1C0C00
1FF800
1FF800
1FF800
ENDCHAR
STARTCHAR 05EA
ENCODING 1514
SWIDTH 489 0
DWIDTH 17 0
BBX 14 19 1 0
BITMAP
2000
7FF0
7FFC
7FFC
3FFC
080C
080C
1004
1004
1004
3004
3004
3004
3004
3004
3004
F804
F804
F804
ENDCHAR
STARTCHAR 05F0
ENCODING 1520
SWIDTH 547 0
DWIDTH 19 0
BBX 16 19 1 0
BITMAP
4030
F83E
FC3F
FE3F
3E1F
0603
0601
0601
0601
0601
0601
0601
0601
0601
0601
0601
0601
0601
0401
ENDCHAR
STARTCHAR 05F1
ENCODING 1521
SWIDTH 547 0
DWIDTH 19 0
BBX 16 19 1 0
BITMAP
4020
FC7C
FC7F
FE3F
7E1F
0603
0603
0603
0403
0403
0803
0003
0003
0003
0003
0003
0003
0003
0003
ENDCHAR
STARTCHAR 05F2
ENCODING 1522
SWIDTH 547 0
DWIDTH 19 0
BBX 16 11 1 8
BITMAP
4020
FC3E
FC7F
FE3F
7E1F
0603
0601
0601
0403
0402
0804
ENDCHAR
STARTCHAR 05F3
ENCODING 1523
SWIDTH 201 0
DWIDTH 7 0
BBX 4 8 2 11
BITMAP
20
F0
E0
E0
E0
C0
C0
80
ENDCHAR
STARTCHAR 05F4
ENCODING 1524
SWIDTH 374 0
DWIDTH 13 0
BBX 9 8 2 11
BITMAP
2000
F380
E380
E380
E300
C300
C600
8600
ENDCHAR
STARTCHAR 060C
ENCODING 1548
SWIDTH 316 0
DWIDTH 11 0
BBX 5 10 3 5
BITMAP
30
60
40
C0
C0
E0
F8
F8
F8
78
ENDCHAR
STARTCHAR 061B
ENCODING 1563
SWIDTH 316 0
DWIDTH 11 0
BBX 5 16 3 5
BITMAP
10
60
40
C0
80
C0
F8
F8
F8
78
00
00
30
78
78
70
ENDCHAR
STARTCHAR 061F
ENCODING 1567
SWIDTH 345 0
DWIDTH 12 0
BBX 10 20 1 5
BITMAP
0E00
3B80
70C0
61C0
F3C0
F3C0
FBC0
F800
7C00
3C00
1C00
0C00
0400
0400
0400
0000
0C00
1E00
1E00
0E00
ENDCHAR
STARTCHAR 0621
ENCODING 1569
SWIDTH 403 0
DWIDTH 14 0
BBX 10 11 2 2
BITMAP
0E00
1F00
3F00
6100
4000
E040
FBC0
7FC0
3E00
3800
2000
ENDCHAR
STARTCHAR 0622
ENCODING 1570
SWIDTH 201 0
DWIDTH 7 0
BBX 7 24 0 5
BITMAP
60
BE
00
00
10
10
38
18
18
18
18
18
18
18
18
0C
0C
0C
0C
0C
0C
0C
08
08
ENDCHAR
STARTCHAR 0623
ENCODING 1571
SWIDTH 201 0
DWIDTH 7 0
BBX 5 25 1 6
BITMAP
30
40
78
70
80
20
20
70
30
30
30
30
30
30
30
30
18
18
18
18
18
18
18
10
10
ENDCHAR
STARTCHAR 0624
ENCODING 1572
SWIDTH 432 0
DWIDTH 15 0
BBX 14 22 1 -3
BITMAP
0180
0200
0300
0180
0600
0000
0038
007C
007C
00CC
00C4
00FC
007C
003C
0004
000C
0018
0038
0070
81E0
7FC0
0700
ENDCHAR
STARTCHAR 0625
ENCODING 1573
SWIDTH 201 0
DWIDTH 7 0
BBX 5 28 1 -2
BITMAP
20
20
70
30
30
30
30
30
30
30
30
18
18
18
18
18
18
18
10
10
00
00
00
30
70
C0
70
C0
ENDCHAR
STARTCHAR 0626
ENCODING 1574
SWIDTH 633 0
DWIDTH 22 0
BBX 20 20 1 -2
BITMAP
300000
400000
600000
3800E0
C003F0
0007F0
000610
200C00
200800
401000
401800
401FE0
801FE0
800060
800060
C001C0
E00FC0
FCFF80
7FFE00
3FF800
ENDCHAR
STARTCHAR 0627
ENCODING 1575
SWIDTH 201 0
DWIDTH 7 0
BBX 4 20 2 6
BITMAP
40
40
E0
60
60
60
60
60
60
60
60
30
30
30
30
30
30
30
20
20
ENDCHAR
STARTCHAR 0628
ENCODING 1576
SWIDTH 720 0
DWIDTH 25 0
BBX 24 18 1 -2
BITMAP
400004
400006
80000E
800007
800003
C00003
C00003
F00003
7FFFFF
3FFFFF
0FFFFF
000000
000000
000000
001800
003C00
001800
000800
ENDCHAR
STARTCHAR 0629
ENCODING 1577
SWIDTH 288 0
DWIDTH 10 0
BBX 9 17 0 5
BITMAP
0600
4F00
7E00
F200
6000
0000
0000
0800
1C00
1F00
1F80
3380
2180
2080
7380
7F80
3F00
ENDCHAR
STARTCHAR 062A
ENCODING 1578
SWIDTH 720 0
DWIDTH 25 0
BBX 24 17 1 5
BITMAP
000400
000F00
006E00
00F600
00E000
002000
400004
400006
80000E
800007
800003
C00003
C00003
F00003
7FFFFF
3FFFFF
0FFFFF
ENDCHAR
STARTCHAR 062B
ENCODING 1579
SWIDTH 720 0
DWIDTH 25 0
BBX 24 19 1 6
BITMAP
007000
007000
002400
000F00
006E00
00F600
00E000
002000
400004
400006
80000E
800007
800003
C00003
C00003
F00003
7FFFFF
3FFFFF
0FFFFF
ENDCHAR
STARTCHAR 062C
ENCODING 1580
SWIDTH 576 0
DWIDTH 20 0
BBX 17 22 1 -7
BITMAP
1FE000
7FFF00
7FFF00
C1FE00
07C000
0E0000
180000
300000
600000
404000
807000
80F000
802000
800000
800000
C00000
E00000
700000
7C0000
3FFF80
1FFF00
07FC00
ENDCHAR
STARTCHAR 062D
ENCODING 1581
SWIDTH 576 0
DWIDTH 20 0
BBX 17 22 1 -7
BITMAP
1FE000
7FFF00
7FFF00
C1FE00
07C000
0E0000
180000
300000
600000
400000
800000
800000
800000
800000
800000
C00000
E00000
700000
7C0000
3FFF80
1FFF00
07FC00
ENDCHAR
STARTCHAR 062E
ENCODING 1582
SWIDTH 576 0
DWIDTH 20 0
BBX 17 29 1 -7
BITMAP
018000
01C000
01C000
000000
000000
000000
000000
1FE000
7FFF00
7FFF00
C1FE00
07C000
0E0000
180000
300000
600000
400000
800000
800000
800000
800000
800000
C00000
E00000
700000
7C0000
3FFF80
1FFF00
07FC00
ENDCHAR
STARTCHAR 062F
ENCODING 1583
SWIDTH 345 0
DWIDTH 12 0
BBX 10 14 2 5
BITMAP
0400
0E00
0F00
0700
0180
0180
0080
00C0
00C0
0040
8040
FFC0
FFC0
FFC0
ENDCHAR
STARTCHAR 0630
ENCODING 1584
SWIDTH 345 0
DWIDTH 12 0
BBX 10 21 2 5
BITMAP
3000
7800
3000
0000
0000
0000
0000
0400
0E00
0F00
0700
0180
0180
0080
00C0
00C0
0040
8040
FFC0
FFC0
FFC0
ENDCHAR
STARTCHAR 0631
ENCODING 1585
SWIDTH 489 0
DWIDTH 17 0
BBX 16 18 1 -3
BITMAP
0004
0006
000E
0007
0003
0003
0003
0001
0001
0003
0003
0007
000E
001E
003C
80F8
7FF0
0FC0
ENDCHAR
STARTCHAR 0632
ENCODING 1586
SWIDTH 489 0
DWIDTH 17 0
BBX 16 25 1 -3
BITMAP
0030
0038
0038
0000
0000
0000
0000
0004
0006
000E
0007
0003
0003
0003
0001
0001
0003
0003
0007
000E
001E
003C
80F8
7FF0
0FC0
ENDCHAR
STARTCHAR 0633
ENCODING 1587
SWIDTH 835 0
DWIDTH 29 0
BBX 28 16 1 -3
BITMAP
00010000
00018260
00038260
20018220
20018210
40008310
4000FFF0
4000FFF0
8000FCF0
80008000
C0008000
C0018000
E0070000
FCFE0000
7FFC0000
3FF80000
ENDCHAR
STARTCHAR 0634
ENCODING 1588
SWIDTH 835 0
DWIDTH 29 0
BBX 28 27 1 -3
BITMAP
00000800
00001E00
00001C00
00000D00
000001C0
00001BC0
00001C80
00001C00
00000000
00000000
00000000
00010000
00018260
00038260
20018220
20018210
40008310
4000FFF0
4000FFF0
8000FCF0
80008000
C0008000
C0018000
E0070000
FCFE0000
7FFC0000
3FF80000
ENDCHAR
STARTCHAR 0635
ENCODING 1589
SWIDTH 1094 0
DWIDTH 38 0
BBX 37 16 1 -3
BITMAP
00010007E0
0001800FF0
0003803FF8
2001807078
200181C038
4000870038
4000FFFFF8
4000FFFFF8
8000FFFFF8
8000800000
C000800000
C001000000
E007000000
FCFE000000
7FFC000000
3FF8000000
ENDCHAR
STARTCHAR 0636
ENCODING 1590
SWIDTH 1094 0
DWIDTH 38 0
BBX 37 22 1 -3
BITMAP
0000018000
000003C000
0000018000
0000000000
0000000000
0000000000
00010007E0
0001800FF0
0003803FF8
2001807078
200181C038
4000870038
4000FFFFF8
4000FFFFF8
8000FFFFF8
8000800000
C000800000
C001000000
E007000000
FCFE000000
7FFC000000
3FF8000000
ENDCHAR
STARTCHAR 0637
ENCODING 1591
SWIDTH 576 0
DWIDTH 20 0
BBX 21 22 -1 6
BITMAP
020000
078000
078000
078000
038000
030000
010000
018000
018000
018000
008000
008000
008000
0083E0
008FF0
00BFF8
00F038
01C038
070038
FFFFF8
FFFFF8
FFFFF8
ENDCHAR
STARTCHAR 0638
ENCODING 1592
SWIDTH 576 0
DWIDTH 20 0
BBX 21 22 -1 6
BITMAP
020000
078000
078000
078000
038000
030600
010700
018700
018000
018000
008000
008000
008000
0083E0
008FF0
00BFF8
00F038
01C038
070038
FFFFF8
FFFFF8
FFFFF8
ENDCHAR
STARTCHAR 0639
ENCODING 1593
SWIDTH 547 0
DWIDTH 19 0
BBX 17 26 1 -7
BITMAP
040000
3F8000
7FC000
600000
C00000
800000
C01C00
F0F800
7FF000
3FC000
1F0000
1C0000
300000
600000
400000
C00000
800000
800000
800000
C00000
C00000
E00000
780000
7FFF80
1FFE00
07FC00
ENDCHAR
STARTCHAR 063A
ENCODING 1594
SWIDTH 547 0
DWIDTH 19 0
BBX 17 32 1 -6
BITMAP
0E0000
0E0000
060000
000000
000000
000000
040000
3F8000
7FC000
600000
C00000
800000
C01C00
F0F800
7FF000
3FC000
1F0000
1C0000
300000
600000
400000
C00000
800000
800000
800000
C00000
C00000
E00000
780000
7FFF80
1FFE00
07FC00
ENDCHAR
STARTCHAR 0640
ENCODING 1600
SWIDTH 201 0
DWIDTH 7 0
BBX 8 3 -1 5
BITMAP
FF
FF
FF
ENDCHAR
STARTCHAR 0641
ENCODING 1601
SWIDTH 777 0
DWIDTH 27 0
BBX 26 19 1 5
BITMAP
00000800
00000C00
00001E00
00000C00
00000000
00000000
00000000
00000100
40000780
800007C0
80000FC0
80000CC0
80000C40
80000E40
C0000FC0
F80003C0
7FFFFFC0
3FFFFFC0
07FFFFC0
ENDCHAR
STARTCHAR 0642
ENCODING 1602
SWIDTH 576 0
DWIDTH 20 0
BBX 19 27 1 -3
BITMAP
000200
000380
003780
003900
003800
000000
000000
000000
000000
000780
000FC0
000FC0
0008E0
2008E0
201FE0
400FE0
400FE0
400020
C00020
C00020
C00060
C000E0
E001E0
7F7FC0
7FFF80
1FFE00
018000
ENDCHAR
STARTCHAR 0643
ENCODING 1603
SWIDTH 604 0
DWIDTH 21 0
BBX 20 21 1 6
BITMAP
000080
0001E0
0001E0
0000E0
0008E0
0018C0
0020C0
004040
004040
00FC60
00FC60
400C60
401860
87F060
808020
800030
C00030
E00030
FFFFF0
7FFFF0
1FFFF0
ENDCHAR
STARTCHAR 0644
ENCODING 1604
SWIDTH 518 0
DWIDTH 18 0
BBX 17 27 1 0
BITMAP
000400
000400
000F00
000F00
000700
000700
000600
000200
000200
000300
000300
000300
000300
100300
200100
200100
400100
400100
400180
800180
C00180
C00100
E00700
783F00
7FFE00
3FFC00
0FE000
ENDCHAR
STARTCHAR 0645
ENCODING 1605
SWIDTH 345 0
DWIDTH 12 0
BBX 11 18 1 -7
BITMAP
1F00
1F80
33C0
01C0
07E0
3FE0
7FE0
F000
C000
8000
8000
8000
C000
C000
4000
6000
6000
2000
ENDCHAR
STARTCHAR 0646
ENCODING 1606
SWIDTH 518 0
DWIDTH 18 0
BBX 17 22 1 -3
BITMAP
00C000
01E000
00C000
000000
000000
000100
000180
000380
200180
200180
400080
400080
400080
C00080
C00080
C00180
C00180
E00780
7EFF00
7FFE00
3FF800
010000
ENDCHAR
STARTCHAR 0647
ENCODING 1607
SWIDTH 288 0
DWIDTH 10 0
BBX 8 10 1 5
BITMAP
20
38
7E
7F
4F
43
C1
C7
FE
FE
ENDCHAR
STARTCHAR 0648
ENCODING 1608
SWIDTH 432 0
DWIDTH 15 0
BBX 14 16 1 -3
BITMAP
0038
007C
007C
00CC
00C4
00FC
007C
003C
0004
000C
0018
0038
0070
81E0
7FC0
0700
ENDCHAR
STARTCHAR 0649
ENCODING 1609
SWIDTH 633 0
DWIDTH 22 0
BBX 20 17 1 -2
BITMAP
0000E0
0003F0
0007F0
000610
200C00
200800
401000
401800
401FE0
801FE0
800060
800060
C001C0
E00FC0
FCFF80
7FFE00
3FF800
ENDCHAR
STARTCHAR 064A
ENCODING 1610
SWIDTH 633 0
DWIDTH 22 0
BBX 20 23 1 -7
BITMAP
0000E0
0003F0
0007F0
000610
200C00
200800
401000
401800
401FE0
801FE0
800060
800060
C001C0
E00FC0
FCFF80
7FFE00
3FF800
000000
003000
003C00
03B800
038000
018000
ENDCHAR
STARTCHAR 064B
ENCODING 1611
SWIDTH 201 0
DWIDTH 7 0
BBX 6 6 1 21
BITMAP
04
38
C0
0C
70
80
ENDCHAR
STARTCHAR 064C
ENCODING 1612
SWIDTH 230 0
DWIDTH 8 0
BBX 7 6 1 22
BITMAP
0E
4A
EE
26
3A
60
ENDCHAR
STARTCHAR 064D
ENCODING 1613
SWIDTH 201 0
DWIDTH 7 0
BBX 6 5 1 -4
BITMAP
0C
70
84
38
60
ENDCHAR
STARTCHAR 064E
ENCODING 1614
SWIDTH 201 0
DWIDTH 7 0
BBX 6 4 1 23
BITMAP
04
18
60
80
ENDCHAR
STARTCHAR 064F
ENCODING 1615
SWIDTH 201 0
DWIDTH 7 0
BBX 5 7 2 21
BITMAP
38
28
38
38
18
60
C0
ENDCHAR
STARTCHAR 0650
ENCODING 1616
SWIDTH 201 0
DWIDTH 7 0
BBX 6 4 1 -1
BITMAP
04
18
60
80
ENDCHAR
STARTCHAR 0651
ENCODING 1617
SWIDTH 201 0
DWIDTH 7 0
BBX 6 5 1 21
BITMAP
14
14
9C
FC
60
ENDCHAR
STARTCHAR 0652
ENCODING 1618
SWIDTH 172 0
DWIDTH 6 0
BBX 5 5 1 21
BITMAP
70
98
88
F0
70
ENDCHAR
STARTCHAR 0653
ENCODING 1619
SWIDTH 201 0
DWIDTH 7 0
BBX 6 2 1 24
BITMAP
C0
7C
ENDCHAR
STARTCHAR 0654
ENCODING 1620
SWIDTH 201 0
DWIDTH 7 0
BBX 5 5 1 26
BITMAP
30
40
78
70
80
ENDCHAR
STARTCHAR 0655
ENCODING 1621
SWIDTH 201 0
DWIDTH 7 0
BBX 4 5 2 -3
BITMAP
60
80
C0
70
80
ENDCHAR
STARTCHAR 0660
ENCODING 1632
SWIDTH 518 0
DWIDTH 18 0
BBX 6 7 6 9
BITMAP
20
78
7C
7C
F8
38
18
ENDCHAR
STARTCHAR 0661
ENCODING 1633
SWIDTH 518 0
DWIDTH 18 0
BBX 6 19 5 6
BITMAP
60
70
F0
78
78
38
1C
1C
0C
0C
0C
04
04
04
04
04
04
04
04
ENDCHAR
STARTCHAR 0662
ENCODING 1634
SWIDTH 518 0
DWIDTH 18 0
BBX 11 20 3 5
BITMAP
4020
4020
F060
FCE0
7FC0
3FC0
3F80
1C00
0E00
0E00
0E00
0600
0600
0700
0300
0300
0300
0300
0100
0100
ENDCHAR
STARTCHAR 0663
ENCODING 1635
SWIDTH 518 0
DWIDTH 18 0
BBX 14 20 2 5
BITMAP
4044
4044
60E4
FFFC
FFFC
7F78
3800
3800
1C00
1C00
0C00
0C00
0600
0600
0600
0600
0600
0400
0400
0400
ENDCHAR
STARTCHAR 0664
ENCODING 1636
SWIDTH 518 0
DWIDTH 18 0
BBX 9 19 5 6
BITMAP
0600
0E00
1C00
3000
6000
6000
F800
FE00
7E00
1C00
0800
1000
3000
2000
7000
7F00
FF80
7F00
1F00
ENDCHAR
STARTCHAR 0665
ENCODING 1637
SWIDTH 518 0
DWIDTH 18 0
BBX 12 12 3 10
BITMAP
0F80
1FC0
3FE0
21F0
4070
4030
4010
C010
E030
FFE0
FFC0
7F80
ENDCHAR
STARTCHAR 0666
ENCODING 1638
SWIDTH 518 0
DWIDTH 18 0
BBX 11 20 3 5
BITMAP
8000
8000
FF80
FF80
FF00
7F00
0100
0100
0100
0100
0180
0180
0180
01C0
01C0
01E0
00E0
00E0
0060
0020
ENDCHAR
STARTCHAR 0667
ENCODING 1639
SWIDTH 518 0
DWIDTH 18 0
BBX 14 19 2 6
BITMAP
4004
600C
E00C
F01C
F01C
7838
3830
1C20
1C60
0E40
0640
0680
0780
0380
0380
0100
0100
0100
0100
ENDCHAR
STARTCHAR 0668
ENCODING 1640
SWIDTH 518 0
DWIDTH 18 0
BBX 13 18 3 6
BITMAP
0200
0200
0600
0600
0B00
0B00
0B00
0980
1980
11C0
30E0
30F0
60F0
E078
C038
C038
8018
8008
ENDCHAR
STARTCHAR 0669
ENCODING 1641
SWIDTH 518 0
DWIDTH 18 0
BBX 10 20 4 5
BITMAP
1E00
3E00
7F00
6300
C300
8300
E300
FF00
FF00
7F00
0100
0180
0180
0180
0180
01C0
01C0
01C0
00C0
0080
ENDCHAR
STARTCHAR 066A
ENCODING 1642
SWIDTH 518 0
DWIDTH 18 0
BBX 14 24 2 3
BITMAP
380C
7818
7818
7830
0030
0060
0060
00C0
00C0
0180
0180
0300
0300
0600
0600
0C00
0C00
1800
1800
3000
3078
6078
6078
C038
ENDCHAR
STARTCHAR 066B
ENCODING 1643
SWIDTH 316 0
DWIDTH 11 0
BBX 5 8 3 1
BITMAP
70
F8
F8
78
10
30
60
C0
ENDCHAR
STARTCHAR 066C
ENCODING 1644
SWIDTH 316 0
DWIDTH 11 0
BBX 5 10 3 5
BITMAP
30
60
40
C0
C0
E0
F8
F8
F8
78
ENDCHAR
STARTCHAR 066D
ENCODING 1645
SWIDTH 518 0
DWIDTH 18 0
BBX 12 12 3 14
BITMAP
0600
0600
76C0
37C0
1D80
F6F0
FBF0
0D00
3FC0
76C0
2640
0600
ENDCHAR
STARTCHAR 066E
ENCODING 1646
SWIDTH 720 0
DWIDTH 25 0
BBX 24 11 1 5
BITMAP
400004
400006
80000E
800007
800003
C00003
C00003
F00003
7FFFFF
3FFFFF
0FFFFF
ENDCHAR
STARTCHAR 066F
ENCODING 1647
SWIDTH 576 0
DWIDTH 20 0
BBX 19 18 1 -3
BITMAP
000780
000FC0
000FC0
0008E0
2008E0
201FE0
400FE0
400FE0
400020
C00020
C00020
C00060
C000E0
E001E0
7F7FC0
7FFF80
1FFE00
018000
ENDCHAR
STARTCHAR 0670
ENCODING 1648
SWIDTH 0 0
DWIDTH 0 0
BBX 2 8 -1 19
BITMAP
80
80
C0
40
40
40
40
40
ENDCHAR
STARTCHAR 0671
ENCODING 1649
SWIDTH 201 0
DWIDTH 7 0
BBX 7 26 0 5
BITMAP
0E
12
26
FC
80
00
10
10
38
18
18
18
18
18
18
18
18
0C
0C
0C
0C
0C
0C
0C
08
08
ENDCHAR
STARTCHAR 0672
ENCODING 1650
SWIDTH 201 0
DWIDTH 7 0
BBX 6 26 0 5
BITMAP
08
18
20
1C
F0
00
10
10
38
18
18
18
18
18
18
18
18
0C
0C
0C
0C
0C
0C
0C
08
08
ENDCHAR
STARTCHAR 0673
ENCODING 1651
SWIDTH 201 0
DWIDTH 7 0
BBX 5 28 1 -2
BITMAP
20
20
70
30
30
30
30
30
30
30
30
18
18
18
18
18
18
18
10
10
00
00
00
18
28
20
18
E0
ENDCHAR
STARTCHAR 0674
ENCODING 1652
SWIDTH 201 0
DWIDTH 7 0
BBX 5 5 1 26
BITMAP
30
40
78
70
80
ENDCHAR
STARTCHAR 0675
ENCODING 1653
SWIDTH 201 0
DWIDTH 7 0
BBX 8 20 2 6
BITMAP
47
48
EE
67
68
60
60
60
60
60
60
30
30
30
30
30
30
30
20
20
ENDCHAR
STARTCHAR 0676
ENCODING 1654
SWIDTH 432 0
DWIDTH 15 0
BBX 17 24 1 -3
BITMAP
000100
000700
000400
000780
000600
000800
000000
000000
003800
007C00
007C00
00CC00
00C400
00FC00
007C00
003C00
000400
000C00
001800
003800
007000
81E000
7FC000
070000
ENDCHAR
STARTCHAR 0677
ENCODING 1655
SWIDTH 432 0
DWIDTH 15 0
BBX 17 24 1 -3
BITMAP
018100
028700
038400
018780
01C600
020800
0C0000
000000
003800
007C00
007C00
00CC00
00C400
00FC00
007C00
003C00
000400
000C00
001800
003800
007000
81E000
7FC000
070000
ENDCHAR
STARTCHAR 0678
ENCODING 1656
SWIDTH 633 0
DWIDTH 22 0
BBX 22 25 1 -2
BITMAP
000008
000018
000020
00003C
000030
000000
000000
000000
0000E0
0003F0
0007F0
000610
200C00
200800
401000
401800
401FE0
801FE0
800060
800060
C001C0
E00FC0
FCFF80
7FFE00
3FF800
ENDCHAR
STARTCHAR 0679
ENCODING 1657
SWIDTH 720 0
DWIDTH 25 0
BBX 24 24 1 5
BITMAP
004000
006000
002000
002000
002000
002000
002000
002F80
003180
00C180
01FF80
000000
000000
400004
400006
80000E
800007
800003
C00003
C00003
F00003
7FFFFF
3FFFFF
0FFFFF
ENDCHAR
STARTCHAR 067A
ENCODING 1658
SWIDTH 720 0
DWIDTH 25 0
BBX 24 21 1 5
BITMAP
003000
003800
003800
000000
001000
001C00
003C00
000800
000000
000000
400004
400006
80000E
800007
800003
C00003
C00003
F00003
7FFFFF
3FFFFF
0FFFFF
ENDCHAR
STARTCHAR 067B
ENCODING 1659
SWIDTH 720 0
DWIDTH 25 0
BBX 24 22 1 -6
BITMAP
400004
400006
80000E
800007
800003
C00003
C00003
F00003
7FFFFF
3FFFFF
0FFFFF
000000
000000
000000
001800
001C00
001C00
000000
000C00
000E00
001E00
000400
ENDCHAR
STARTCHAR 067C
ENCODING 1660
SWIDTH 720 0
DWIDTH 25 0
BBX 24 21 1 1
BITMAP
000400
000F00
006E00
00F600
00E000
002000
400004
400006
80000E
800007
800003
C00003
C00003
F00003
7FFFFF
3FFFFF
0FFFFF
002600
002200
003E00
001C00
ENDCHAR
STARTCHAR 067D
ENCODING 1661
SWIDTH 720 0
DWIDTH 25 0
BBX 24 21 1 5
BITMAP
000400
000F00
00EE00
00F200
006800
000C00
001E00
000C00
000000
000000
400004
400006
80000E
800007
800003
C00003
C00003
F00003
7FFFFF
3FFFFF
0FFFFF
ENDCHAR
STARTCHAR 067E
ENCODING 1662
SWIDTH 720 0
DWIDTH 25 0
BBX 24 22 1 -6
BITMAP
400004
400006
80000E
800007
800003
C00003
C00003
F00003
7FFFFF
3FFFFF
0FFFFF
000000
000000
000000
000600
004700
007700
00F000
002400
000E00
000E00
000600
ENDCHAR
STARTCHAR 067F
ENCODING 1663
SWIDTH 720 0
DWIDTH 25 0
BBX 24 21 1 5
BITMAP
000C00
008E00
00FE00
00E400
006400
000700
006F00
00F200
006000
000000
400004
400006
80000E
800007
800003
C00003
C00003
F00003
7FFFFF
3FFFFF
0FFFFF
ENDCHAR
STARTCHAR 0680
ENCODING 1664
SWIDTH 720 0
DWIDTH 25 0
BBX 24 23 1 -7
BITMAP
400004
400006
80000E
800007
800003
C00003
C00003
F00003
7FFFFF
3FFFFF
0FFFFF
000000
000000
000000
000600
004F00
007600
00F200
002200
000780
003700
007900
003000
ENDCHAR
STARTCHAR 0681
ENCODING 1665
SWIDTH 576 0
DWIDTH 20 0
BBX 17 31 1 -7
BITMAP
002000
006000
008000
00F000
00C000
000000
000000
000000
000000
1FE000
7FFF00
7FFF00
C1FE00
07C000
0E0000
180000
300000
600000
400000
800000
800000
800000
800000
800000
C00000
E00000
700000
7C0000
3FFF80
1FFF00
07FC00
ENDCHAR
STARTCHAR 0682
ENCODING 1666
SWIDTH 576 0
DWIDTH 20 0
BBX 17 33 1 -7
BITMAP
010000
03C000
038000
008000
008000
01E000
01C000
00C000
000000
000000
000000
1FE000
7FFF00
7FFF00
C1FE00
07C000
0E0000
180000
300000
600000
400000
800000
800000
800000
800000
800000
C00000
E00000
700000
7C0000
3FFF80
1FFF00
07FC00
ENDCHAR
STARTCHAR 0683
ENCODING 1667
SWIDTH 576 0
DWIDTH 20 0
BBX 17 22 1 -7
BITMAP
1FE000
7FFF00
7FFF00
C1FE00
07C000
0E0000
180000
300000
600000
400000
803800
813800
83D800
838000
808000
C00000
E00000
700000
7C0000
3FFF80
1FFF00
07FC00
ENDCHAR
STARTCHAR 0684
ENCODING 1668
SWIDTH 576 0
DWIDTH 20 0
BBX 17 22 1 -7
BITMAP
1FE000
7FFF00
7FFF00
C1FE00
07C000
0E0000
180000
300000
608000
40E000
81E000
804000
800000
806000
80F000
C06000
E00000
700000
7C0000
3FFF80
1FFF00
07FC00
ENDCHAR
STARTCHAR 0685
ENCODING 1669
SWIDTH 576 0
DWIDTH 20 0
BBX 17 33 1 -7
BITMAP
010000
03C000
038000
00A000
023800
037800
079000
030000
000000
000000
000000
1FE000
7FFF00
7FFF00
C1FE00
07C000
0E0000
180000
300000
600000
400000
800000
800000
800000
800000
800000
C00000
E00000
700000
7C0000
3FFF80
1FFF00
07FC00
ENDCHAR
STARTCHAR 0686
ENCODING 1670
SWIDTH 576 0
DWIDTH 20 0
BBX 17 22 1 -7
BITMAP
1FE000
7FFF00
7FFF00
C1FE00
07C000
0E0000
180000
300000
603800
413800
83D800
838000
80A000
807800
807000
C01000
E00000
700000
7C0000
3FFF80
1FFF00
07FC00
ENDCHAR
STARTCHAR 0687
ENCODING 1671
SWIDTH 576 0
DWIDTH 20 0
BBX 17 22 1 -7
BITMAP
1FE000
7FFF00
7FFF00
C1FE00
07C000
0E0000
180000
301000
603C00
41B800
83C800
818800
801E00
80DC00
81EC00
C1C000
E04000
700000
7C0000
3FFF80
1FFF00
07FC00
ENDCHAR
STARTCHAR 0688
ENCODING 1672
SWIDTH 345 0
DWIDTH 12 0
BBX 11 25 1 6
BITMAP
3000
1000
1000
1000
1000
1000
17C0
1840
FFC0
FFC0
0000
0200
0700
0780
0380
00C0
00C0
0040
0060
0060
0020
4020
7FE0
7FE0
7FE0
ENDCHAR
STARTCHAR 0689
ENCODING 1673
SWIDTH 345 0
DWIDTH 12 0
BBX 10 18 2 1
BITMAP
0400
0E00
0F00
0700
0180
0180
0080
00C0
00C0
0040
8040
FFC0
FFC0
FFC0
1200
1200
1E00
1C00
ENDCHAR
STARTCHAR 068A
ENCODING 1674
SWIDTH 345 0
DWIDTH 12 0
BBX 10 20 2 -2
BITMAP
0400
0E00
0F00
0700
0180
0180
0080
00C0
00C0
0040
8040
FFC0
FFC0
FFC0
0000
0000
0000
0C00
1E00
0C00
ENDCHAR
STARTCHAR 068B
ENCODING 1675
SWIDTH 345 0
DWIDTH 12 0
BBX 11 31 1 -1
BITMAP
3000
1000
1000
1000
1000
1000
17C0
1840
FFC0
FFC0
0000
0200
0700
0780
0380
00C0
00C0
0040
0060
0060
0020
4020
7FE0
7FE0
7FE0
0000
0000
0000
0600
0F00
0600
ENDCHAR
STARTCHAR 068C
ENCODING 1676
SWIDTH 345 0
DWIDTH 12 0
BBX 10 21 2 5
BITMAP
0C00
0E00
EE00
E000
6000
0000
0000
0400
0E00
0F00
0700
0180
0180
0080
00C0
00C0
0040
8040
FFC0
FFC0
FFC0
ENDCHAR
STARTCHAR 068D
ENCODING 1677
SWIDTH 345 0
DWIDTH 12 0
BBX 10 22 2 -3
BITMAP
0400
0E00
0F00
0700
0180
0180
0080
00C0
00C0
0040
8040
FFC0
FFC0
FFC0
0000
0000
0000
0600
2700
7700
7000
3000
ENDCHAR
STARTCHAR 068E
ENCODING 1678
SWIDTH 345 0
DWIDTH 12 0
BBX 10 24 2 5
BITMAP
7000
7000
3000
0600
4F00
7600
F000
2000
0000
0000
0400
0E00
0F00
0700
0180
0180
0080
00C0
00C0
0040
8040
FFC0
FFC0
FFC0
ENDCHAR
STARTCHAR 068F
ENCODING 1679
SWIDTH 345 0
DWIDTH 12 0
BBX 11 24 1 5
BITMAP
0600
4F00
F600
E000
2800
0E00
1E00
0400
0000
0000
0200
0700
0780
0380
00C0
00C0
0040
0060
0060
0020
4020
7FE0
7FE0
7FE0
ENDCHAR
STARTCHAR 0690
ENCODING 1680
SWIDTH 345 0
DWIDTH 12 0
BBX 11 24 1 5
BITMAP
0600
4F00
7600
F000
2300
2780
3F00
7900
3000
0000
0200
0700
0780
0380
00C0
00C0
0040
0060
0060
0020
4020
7FE0
7FE0
7FE0
ENDCHAR
STARTCHAR 0691
ENCODING 1681
SWIDTH 489 0
DWIDTH 17 0
BBX 16 31 1 -2
BITMAP
0080
0080
0080
0080
0080
0080
00BE
0062
0186
07FE
0000
0000
0000
0004
0006
000E
0007
0003
0003
0003
0001
0001
0003
0003
0007
000E
001E
003C
80F8
7FF0
0FC0
ENDCHAR
STARTCHAR 0692
ENCODING 1682
SWIDTH 489 0
DWIDTH 17 0
BBX 16 25 1 -3
BITMAP
004C
0068
0038
0010
0000
0000
0000
0004
0006
000E
0007
0003
0003
0003
0001
0001
0003
0003
0007
000E
001E
003C
80F8
7FF0
0FC0
ENDCHAR
STARTCHAR 0693
ENCODING 1683
SWIDTH 489 0
DWIDTH 17 0
BBX 16 19 1 -4
BITMAP
0004
0006
000E
0007
0003
0003
0003
0001
0001
0003
0003
0007
000E
001E
003E
80FF
7FF1
0FD9
000E
ENDCHAR
STARTCHAR 0694
ENCODING 1684
SWIDTH 489 0
DWIDTH 17 0
BBX 17 20 1 -5
BITMAP
000400
000600
000E00
000700
000300
000300
000300
000100
000100
000300
000300
000700
000E00
001E00
003C00
80F800
7FF200
0FC780
000700
000300
ENDCHAR
STARTCHAR 0695
ENCODING 1685
SWIDTH 489 0
DWIDTH 17 0
BBX 16 22 1 -7
BITMAP
0004
0006
000E
0007
0003
0003
0003
0001
0001
0003
0003
0007
000E
001E
003C
80F8
7FF0
0FC0
0012
001E
000C
000C
ENDCHAR
STARTCHAR 0696
ENCODING 1686
SWIDTH 489 0
DWIDTH 17 0
BBX 17 20 1 -5
BITMAP
000400
000600
000E00
000700
000300
000300
000300
000100
030100
078300
030300
000700
000E00
001E00
003C00
80F800
7FF200
0FC780
000700
000300
ENDCHAR
STARTCHAR 0697
ENCODING 1687
SWIDTH 489 0
DWIDTH 17 0
BBX 16 25 1 -3
BITMAP
0010
003C
01B8
03C8
0180
0000
0000
0004
0006
000E
0007
0003
0003
0003
0001
0001
0003
0003
0007
000E
001E
003C
80F8
7FF0
0FC0
ENDCHAR
STARTCHAR 0698
ENCODING 1688
SWIDTH 489 0
DWIDTH 17 0
BBX 16 28 1 -3
BITMAP
0060
0070
00F0
002C
000E
00EE
00E0
0060
0000
0000
0004
0006
000E
0007
0003
0003
0003
0001
0001
0003
0003
0007
000E
001E
003C
80F8
7FF0
0FC0
ENDCHAR
STARTCHAR 0699
ENCODING 1689
SWIDTH 489 0
DWIDTH 17 0
BBX 16 29 1 -3
BITMAP
0030
0238
03B8
0780
0110
003C
01B8
03C8
0180
0000
0000
0004
0006
000E
0007
0003
0003
0003
0001
0001
0003
0003
0007
000E
001E
003C
80F8
7FF0
0FC0
ENDCHAR
STARTCHAR 069A
ENCODING 1690
SWIDTH 835 0
DWIDTH 29 0
BBX 28 22 1 -2
BITMAP
00001C00
00001C00
00000C00
00000000
00000000
00000000
00010000
00018260
00038260
20018220
20018210
40008310
4000FFF0
4000FFF0
8000FCF0
80008000
C0008000
C0018000
E0070180
FCFE03C0
7FFC0180
3FF80000
ENDCHAR
STARTCHAR 069B
ENCODING 1691
SWIDTH 835 0
DWIDTH 29 0
BBX 28 20 1 -6
BITMAP
00010000
00018260
00038260
20018220
20018210
40008310
4000FFF0
4000FFF0
8000FCF0
80008000
C0008000
C0018000
E00700C0
FCFE04E0
7FFC0EE0
3FF80E00
00000680
000000E0
000001E0
00000040
ENDCHAR
STARTCHAR 069C
ENCODING 1692
SWIDTH 835 0
DWIDTH 29 0
BBX 28 31 1 -6
BITMAP
00002000
00007800
00007000
00001600
00000700
00007F00
00007200
00007000
00000000
00000000
00000000
00010000
00018260
00038260
20018220
20018210
40008310
4000FFF0
4000FFF0
8000FCF0
80008000
C0008000
C0018000
E00700C0
FCFE04E0
7FFC0EE0
3FF80E00
00000680
000000E0
000001E0
00000040
ENDCHAR
STARTCHAR 069D
ENCODING 1693
SWIDTH 1094 0
DWIDTH 38 0
BBX 37 17 1 -3
BITMAP
00010007E0
0001800FF0
0003803FF8
2001807078
200181C038
4000870038
4000FFFFF8
4000FFFFF8
8000FFFFF8
8000800000
C000800000
C001000000
E007000C00
FCFE009E00
7FFC00EC00
3FF801E000
0000004000
ENDCHAR
STARTCHAR 069E
ENCODING 1694
SWIDTH 1094 0
DWIDTH 38 0
BBX 37 27 1 -3
BITMAP
0000004000
000000F000
000000E000
0000002800
0000000E00
000000DE00
000001E400
000000C000
0000000000
0000000000
0000000000
00010007E0
0001800FF0
0003803FF8
2001807078
200181C038
4000870038
4000FFFFF8
4000FFFFF8
8000FFFFF8
8000800000
C000800000
C001000000
E007000000
FCFE000000
7FFC000000
3FF8000000
ENDCHAR
STARTCHAR 069F
ENCODING 1695
SWIDTH 576 0
DWIDTH 20 0
BBX 21 22 -1 6
BITMAP
020000
078000
078600
078700
038F00
0302C0
0100F0
018EE0
018E00
018600
008000
008000
008000
0083E0
008FF0
00BFF8
00F038
01C038
070038
FFFFF8
FFFFF8
FFFFF8
ENDCHAR
STARTCHAR 06A0
ENCODING 1696
SWIDTH 547 0
DWIDTH 19 0
BBX 17 36 1 -7
BITMAP
380000
380000
180000
030000
278000
3B0000
780000
100000
000000
000000
040000
3F8000
7FC000
600000
C00000
800000
C01C00
F0F800
7FF000
3FC000
1F0000
1C0000
300000
600000
400000
C00000
800000
800000
800000
C00000
C00000
E00000
780000
7FFF80
1FFE00
07FC00
ENDCHAR
STARTCHAR 06A1
ENCODING 1697
SWIDTH 777 0
DWIDTH 27 0
BBX 26 12 1 5
BITMAP
00000100
40000780
800007C0
80000FC0
80000CC0
80000C40
80000E40
C0000FC0
F80003C0
7FFFFFC0
3FFFFFC0
07FFFFC0
ENDCHAR
STARTCHAR 06A2
ENCODING 1698
SWIDTH 777 0
DWIDTH 27 0
BBX 26 18 1 -2
BITMAP
00000100
40000780
800007C0
80000FC0
80000CC0
80000C40
80000E40
C0000FC0
F80003C0
7FFFFFC0
3FFFFFC0
07FFFFC0
00000000
00000000
00000000
00000300
00000380
00000380
ENDCHAR
STARTCHAR 06A3
ENCODING 1699
SWIDTH 777 0
DWIDTH 27 0
BBX 26 24 1 -2
BITMAP
00000600
00000700
00000700
00000000
00000000
00000100
40000780
800007C0
80000FC0
80000CC0
80000C40
80000E40
C0000FC0
F80003C0
7FFFFFC0
3FFFFFC0
07FFFFC0
00000000
00000000
00000000
00060000
000F0000
000E0000
00020000
ENDCHAR
STARTCHAR 06A4
ENCODING 1700
SWIDTH 777 0
DWIDTH 27 0
BBX 26 21 1 6
BITMAP
00001C00
00001C00
00000D00
000001C0
00001BC0
00003D80
00001800
00000800
00000000
00000100
40000780
800007C0
80000FC0
80000CC0
80000C40
80000E40
C0000FC0
F80003C0
7FFFFFC0
3FFFFFC0
07FFFFC0
ENDCHAR
STARTCHAR 06A5
ENCODING 1701
SWIDTH 777 0
DWIDTH 27 0
BBX 27 23 1 -6
BITMAP
00000100
40000780
800007C0
80000FC0
80000CC0
80000C40
80000E40
C0000FC0
F80003C0
7FFFFFC0
3FFFFFC0
07FFFFC0
00000000
00000000
00000000
000000C0
000004E0
00000EE0
00000E00
00000680
000000E0
000001E0
00000040
ENDCHAR
STARTCHAR 06A6
ENCODING 1702
SWIDTH 777 0
DWIDTH 27 0
BBX 26 23 1 5
BITMAP
00000200
00000380
00003780
00003900
00003900
00000180
00001BC0
00001D80
00003C00
00000800
00000000
00000100
40000780
800007C0
80000FC0
80000CC0
80000C40
80000E40
C0000FC0
F80003C0
7FFFFFC0
3FFFFFC0
07FFFFC0
ENDCHAR
STARTCHAR 06A7
ENCODING 1703
SWIDTH 576 0
DWIDTH 20 0
BBX 19 24 1 -2
BITMAP
000E00
000E00
000600
000000
000000
000000
000780
000FC0
000FC0
0008E0
2008E0
201FE0
400FE0
400FE0
400020
C00020
C00020
C00060
C000E0
E001E0
7F7FC0
7FFF80
1FFE00
018000
ENDCHAR
STARTCHAR 06A8
ENCODING 1704
SWIDTH 576 0
DWIDTH 20 0
BBX 19 28 1 -3
BITMAP
003000
003800
003800
000200
000780
003700
007900
003000
000000
000000
000780
000FC0
000FC0
0008E0
2008E0
201FE0
400FE0
400FE0
400020
C00020
C00020
C00060
C000E0
E001E0
7F7FC0
7FFF80
1FFE00
018000
ENDCHAR
STARTCHAR 06A9
ENCODING 1705
SWIDTH 806 0
DWIDTH 28 0
BBX 28 20 0 5
BITMAP
000000E0
000003E0
00001FC0
00003E00
00007800
0000C000
0000C000
0000E000
0000F800
0000FC00
20007E00
40000F00
40000380
400001C0
C00000E0
C0000060
F0000030
7FFFFFF0
7FFFFFF0
1FFFFFF0
ENDCHAR
STARTCHAR 06AA
ENCODING 1706
SWIDTH 806 0
DWIDTH 28 0
BBX 28 18 0 5
BITMAP
00030000
000F0000
003F0000
00FC0000
01E00000
03000000
03000000
07000000
03F80000
01FFC000
003FFE00
4001FF80
40000FE0
C00000E0
F0000030
7FFFFFF0
7FFFFFF0
1FFFFFF0
ENDCHAR
STARTCHAR 06AB
ENCODING 1707
SWIDTH 806 0
DWIDTH 28 0
BBX 28 20 0 5
BITMAP
000000E0
000003E0
00001FC0
00003FC0
00007A60
0000C340
0000C3C0
0000E000
0000F800
0000FC00
20007E00
40000F00
40000380
400001C0
C00000E0
C0000060
F0000030
7FFFFFF0
7FFFFFF0
1FFFFFF0
ENDCHAR
STARTCHAR 06AC
ENCODING 1708
SWIDTH 604 0
DWIDTH 21 0
BBX 20 22 1 5
BITMAP
004000
00F080
00E1E0
0021E0
0000E0
0008E0
0018C0
0020C0
004040
004040
00FC60
00FC60
400C60
401860
87F060
808020
800030
C00030
E00030
FFFFF0
7FFFF0
1FFFF0
ENDCHAR
STARTCHAR 06AD
ENCODING 1709
SWIDTH 604 0
DWIDTH 21 0
BBX 20 25 1 6
BITMAP
018000
03C000
018000
003800
013880
03F9E0
0381E0
0180E0
0008E0
0018C0
0020C0
004040
004040
00FC60
00FC60
400C60
401860
87F060
808020
800030
C00030
E00030
FFFFF0
7FFFF0
1FFFF0
ENDCHAR
STARTCHAR 06AE
ENCODING 1710
SWIDTH 604 0
DWIDTH 21 0
BBX 20 32 1 -5
BITMAP
000080
0001E0
0001E0
0000E0
0008E0
0018C0
0020C0
004040
004040
00FC60
00FC60
400C60
401860
87F060
808020
800030
C00030
E00030
FFFFF0
7FFFF0
1FFFF0
000000
000000
000000
001800
013C00
01D800
03C000
008000
003800
007800
001000
ENDCHAR
STARTCHAR 06AF
ENCODING 1711
SWIDTH 806 0
DWIDTH 28 0
BBX 28 25 0 5
BITMAP
00000060
000001E0
000007E0
00001F80
00003C00
0000F0E0
0001C3E0
00011FC0
00003E00
00007800
0000C000
0000C000
0000E000
0000F800
0000FC00
20007E00
40000F00
40000380
400001C0
C00000E0
C0000060
F0000030
7FFFFFF0
7FFFFFF0
1FFFFFF0
ENDCHAR
STARTCHAR 06B0
ENCODING 1712
SWIDTH 806 0
DWIDTH 28 0
BBX 28 25 0 5
BITMAP
00000060
000001E0
000007E0
00001F80
00003C00
0000F0E0
0001C3E0
00011FC0
00003FC0
00007A60
0000C340
0000C3C0
0000E000
0000F800
0000FC00
20007E00
40000F00
40000380
400001C0
C00000E0
C0000060
F0000030
7FFFFFF0
7FFFFFF0
1FFFFFF0
ENDCHAR
STARTCHAR 06B1
ENCODING 1713
SWIDTH 806 0
DWIDTH 28 0
BBX 28 26 0 5
BITMAP
00000C00
00001C60
0000E5E0
0000C7E0
00001F80
00003C00
0000F0E0
0001C3E0
00011FC0
00003E00
00007800
0000C000
0000C000
0000E000
0000F800
0000FC00
20007E00
40000F00
40000380
400001C0
C00000E0
C0000060
F0000030
7FFFFFF0
7FFFFFF0
1FFFFFF0
ENDCHAR
STARTCHAR 06B2
ENCODING 1714
SWIDTH 806 0
DWIDTH 28 0
BBX 28 33 0 -3
BITMAP
00000060
000001E0
000007E0
00001F80
00003C00
0000F0E0
0001C3E0
00011FC0
00003E00
00007800
0000C000
0000C000
0000E000
0000F800
0000FC00
20007E00
40000F00
40000380
400001C0
C00000E0
C0000060
F0000030
7FFFFFF0
7FFFFFF0
1FFFFFF0
00000000
00000000
00000000
0000C000
0000E000
000EE000
000E0000
00060000
ENDCHAR
STARTCHAR 06B3
ENCODING 1715
SWIDTH 806 0
DWIDTH 28 0
BBX 28 36 0 -6
BITMAP
00000060
000001E0
000007E0
00001F80
00003C00
0000F0E0
0001C3E0
00011FC0
00003E00
00007800
0000C000
0000C000
0000E000
0000F800
0000FC00
20007E00
40000F00
40000380
400001C0
C00000E0
C0000060
F0000030
7FFFFFF0
7FFFFFF0
1FFFFFF0
00000000
00000000
00000000
00030000
00078000
00030000
00000000
00010000
0003C000
00038000
00008000
ENDCHAR
STARTCHAR 06B4
ENCODING 1716
SWIDTH 806 0
DWIDTH 28 0
BBX 28 26 0 5
BITMAP
00004000
0000FC60
000099E0
0000C7E0
00005F80
00003C00
0000F0E0
0001C3E0
00011FC0
00003E00
00007800
0000C000
0000C000
0000E000
0000F800
0000FC00
20007E00
40000F00
40000380
400001C0
C00000E0
C0000060
F0000030
7FFFFFF0
7FFFFFF0
1FFFFFF0
ENDCHAR
STARTCHAR 06B5
ENCODING 1717
SWIDTH 518 0
DWIDTH 18 0
BBX 17 31 1 0
BITMAP
003300
001A00
000C00
000C00
000400
000400
000F00
000F00
000700
000700
000600
000200
000200
000300
000300
000300
000300
100300
200100
200100
400100
400100
400180
800180
C00180
C00100
E00700
783F00
7FFE00
3FFC00
0FE000
ENDCHAR
STARTCHAR 06B6
ENCODING 1718
SWIDTH 518 0
DWIDTH 18 0
BBX 17 31 1 0
BITMAP
000400
000F00
000E00
000200
000400
000400
000F00
000F00
000700
000700
000600
000200
000200
000300
000300
000300
000300
100300
200100
200100
400100
400100
400180
800180
C00180
C00100
E00700
783F00
7FFE00
3FFC00
0FE000
ENDCHAR
STARTCHAR 06B7
ENCODING 1719
SWIDTH 518 0
DWIDTH 18 0
BBX 17 31 1 0
BITMAP
001800
003B00
002700
003000
001400
000400
000F00
000F00
000700
000700
000600
000200
000200
000300
000300
000300
000300
100300
200100
200100
400100
400100
400180
800180
C00180
C00100
E00700
783F00
7FFE00
3FFC00
0FE000
ENDCHAR
STARTCHAR 06B8
ENCODING 1720
SWIDTH 518 0
DWIDTH 18 0
BBX 17 34 1 -7
BITMAP
000400
000400
000F00
000F00
000700
000700
000600
000200
000200
000300
000300
000300
000300
100300
200100
200100
400100
400100
400180
800180
C00180
C00100
E00700
783F00
7FFE00
3FFC00
0FE000
004000
007000
06F000
070000
034000
00E000
006000
ENDCHAR
STARTCHAR 06B9
ENCODING 1721
SWIDTH 518 0
DWIDTH 18 0
BBX 17 26 1 -7
BITMAP
00C000
01E000
00C000
000000
000000
000100
000180
000380
200180
200180
400080
400080
400080
C00080
C00080
C00180
C00180
E00780
7EFF00
7FFE00
3FF800
010000
008000
00C000
01E000
00C000
ENDCHAR
STARTCHAR 06BA
ENCODING 1722
SWIDTH 518 0
DWIDTH 18 0
BBX 17 17 1 -3
BITMAP
000100
000180
000380
200180
200180
400080
400080
400080
C00080
C00080
C00180
C00180
E00780
7EFF00
7FFE00
3FF800
010000
ENDCHAR
STARTCHAR 06BB
ENCODING 1723
SWIDTH 518 0
DWIDTH 18 0
BBX 17 30 1 -3
BITMAP
010000
010000
010000
010000
010000
010000
013800
00FC00
010400
0FFC00
000000
000000
000000
000100
000180
000380
200180
200180
400080
400080
400080
C00080
C00080
C00180
C00180
E00780
7EFF00
7FFE00
3FF800
010000
ENDCHAR
STARTCHAR 06BC
ENCODING 1724
SWIDTH 518 0
DWIDTH 18 0
BBX 17 25 1 -6
BITMAP
00C000
01E000
00C000
000000
000000
000100
000180
000380
200180
200180
400080
400080
400080
C00080
C00080
C00180
C00180
E00780
7EFF00
7FFE00
3FF800
03C000
024000
024000
03C000
ENDCHAR
STARTCHAR 06BD
ENCODING 1725
SWIDTH 518 0
DWIDTH 18 0
BBX 17 28 1 -3
BITMAP
020000
038000
078000
016000
007000
077000
070000
030000
000000
000000
000000
000100
000180
000380
200180
200180
400080
400080
400080
C00080
C00080
C00180
C00180
E00780
7EFF00
7FFE00
3FF800
010000
ENDCHAR
STARTCHAR 06BE
ENCODING 1726
SWIDTH 460 0
DWIDTH 16 0
BBX 14 15 -1 4
BITMAP
0300
0300
0780
03C0
03E0
07F0
08F0
08F8
18DC
1FDC
0F8C
FFEC
FDFC
F07C
0008
ENDCHAR
STARTCHAR 06BF
ENCODING 1727
SWIDTH 576 0
DWIDTH 20 0
BBX 17 29 1 -7
BITMAP
018000
01C000
01C000
000000
000000
000000
000000
1FE000
7FFF00
7FFF00
C1FE00
07C000
0E0000
180000
300000
603800
413800
83D800
838000
80A000
807800
807000
C01000
E00000
700000
7C0000
3FFF80
1FFF00
07FC00
ENDCHAR
STARTCHAR 06C0
ENCODING 1728
SWIDTH 288 0
DWIDTH 10 0
BBX 8 17 1 5
BITMAP
18
28
30
1C
20
00
00
20
38
7E
7F
4F
43
C1
C7
FE
FE
ENDCHAR
STARTCHAR 06C1
ENCODING 1729
SWIDTH 374 0
DWIDTH 13 0
BBX 12 8 1 2
BITMAP
0F00
1F80
3BC0
21F0
60F0
4070
8000
8000
ENDCHAR
STARTCHAR 06C2
ENCODING 1730
SWIDTH 374 0
DWIDTH 13 0
BBX 12 15 1 3
BITMAP
0E00
1000
0E00
1C00
0000
0000
0000
0F00
1F80
3BC0
21F0
60F0
4070
8000
8000
ENDCHAR
STARTCHAR 06C3
ENCODING 1731
SWIDTH 374 0
DWIDTH 13 0
BBX 12 16 1 2
BITMAP
0300
2780
3B00
7800
1000
0000
0000
0000
0F00
1F80
3BC0
21F0
60F0
4070
8000
8000
ENDCHAR
STARTCHAR 06C4
ENCODING 1732
SWIDTH 432 0
DWIDTH 15 0
BBX 14 16 1 -3
BITMAP
0038
007C
007C
00CC
00C4
00FC
007C
003C
0004
018C
03D8
0478
0670
83E0
7FC0
0700
ENDCHAR
STARTCHAR 06C5
ENCODING 1733
SWIDTH 432 0
DWIDTH 15 0
BBX 14 16 1 -3
BITMAP
0038
007C
007C
00CC
00C4
00FC
007C
003C
0204
07FC
0078
0038
0070
01E0
FFC0
0700
ENDCHAR
STARTCHAR 06C6
ENCODING 1734
SWIDTH 432 0
DWIDTH 15 0
BBX 14 23 1 -3
BITMAP
004C
0028
0030
0010
0000
0000
0000
0038
007C
007C
00CC
00C4
00FC
007C
003C
0004
000C
0018
0038
0070
81E0
7FC0
0700
ENDCHAR
STARTCHAR 06C7
ENCODING 1735
SWIDTH 432 0
DWIDTH 15 0
BBX 14 26 1 -3
BITMAP
0018
0038
0028
0038
0018
0020
0040
0080
0000
0000
0038
007C
007C
00CC
00C4
00FC
007C
003C
0004
000C
0018
0038
0070
81E0
7FC0
0700
ENDCHAR
STARTCHAR 06C8
ENCODING 1736
SWIDTH 432 0
DWIDTH 15 0
BBX 14 29 1 -3
BITMAP
0020
0020
0020
0020
0020
0020
0020
0020
0020
0020
0000
0000
0000
0038
007C
007C
00CC
00C4
00FC
007C
003C
0004
000C
0018
0038
0070
81E0
7FC0
0700
ENDCHAR
STARTCHAR 06C9
ENCODING 1737
SWIDTH 432 0
DWIDTH 15 0
BBX 14 23 1 -3
BITMAP
0030
0038
0068
0044
0000
0000
0000
0038
007C
007C
00CC
00C4
00FC
007C
003C
0004
000C
0018
0038
0070
81E0
7FC0
0700
ENDCHAR
STARTCHAR 06CA
ENCODING 1738
SWIDTH 432 0
DWIDTH 15 0
BBX 14 24 1 -2
BITMAP
0018
013C
01D8
03C0
0080
0000
0000
0000
0038
007C
007C
00CC
00C4
00FC
007C
003C
0004
000C
0018
0038
0070
81E0
7FC0
0700
ENDCHAR
STARTCHAR 06CB
ENCODING 1739
SWIDTH 432 0
DWIDTH 15 0
BBX 14 27 1 -2
BITMAP
01C0
01C0
00D0
001C
01BC
01D8
03C0
0080
0000
0000
0000
0038
007C
007C
00CC
00C4
00FC
007C
003C
0004
000C
0018
0038
0070
81E0
7FC0
0700
ENDCHAR
STARTCHAR 06CC
ENCODING 1740
SWIDTH 633 0
DWIDTH 22 0
BBX 20 17 1 -2
BITMAP
0000E0
0003F0
0007F0
000610
200C00
200800
401000
401800
401FE0
801FE0
800060
800060
C001C0
E00FC0
FCFF80
7FFE00
3FF800
ENDCHAR
STARTCHAR 06CD
ENCODING 1741
SWIDTH 633 0
DWIDTH 22 0
BBX 22 17 -1 -2
BITMAP
000038
0000FC
0001FC
000184
180300
680200
900400
100600
1007F8
2007F8
200018
200018
300070
3803F0
3F3FE0
1FFF80
0FFE00
ENDCHAR
STARTCHAR 06CE
ENCODING 1742
SWIDTH 633 0
DWIDTH 22 0
BBX 20 19 1 -2
BITMAP
024000
03C000
0180E0
0183F0
0007F0
000610
200C00
200800
401000
401800
401FE0
801FE0
800060
800060
C001C0
E00FC0
FCFF80
7FFE00
3FF800
ENDCHAR
STARTCHAR 06CF
ENCODING 1743
SWIDTH 432 0
DWIDTH 15 0
BBX 14 23 1 -3
BITMAP
00C0
00E0
00E0
0000
0000
0000
0000
0038
007C
007C
00CC
00C4
00FC
007C
003C
0004
000C
0018
0038
0070
81E0
7FC0
0700
ENDCHAR
STARTCHAR 06D0
ENCODING 1744
SWIDTH 633 0
DWIDTH 22 0
BBX 20 22 1 -6
BITMAP
0000E0
0003F0
0007F0
000610
200C00
200800
401000
401800
401FE0
801FE0
800060
800060
C001C0
E00FC0
FCFF80
7FFE00
3FF800
000000
000000
018000
000000
00C000
ENDCHAR
STARTCHAR 06D1
ENCODING 1745
SWIDTH 633 0
DWIDTH 22 0
BBX 20 22 1 -6
BITMAP
0000E0
0003F0
0007F0
000610
200C00
200800
401000
401800
401FE0
801FE0
800060
800060
C001C0
E00FC0
FCFF80
7FFE00
3FF800
000000
000000
016000
01C000
006000
ENDCHAR
STARTCHAR 06D2
ENCODING 1746
SWIDTH 806 0
DWIDTH 28 0
BBX 27 14 1 -1
BITMAP
000C0000
001C0000
003C0000
00640000
00C00000
03800000
0F000000
3E000000
78000000
60000000
40000000
FFFFFFE0
FFFFFF80
7FFFFE00
ENDCHAR
STARTCHAR 06D3
ENCODING 1747
SWIDTH 806 0
DWIDTH 28 0
BBX 27 18 1 -1
BITMAP
00C00000
01800000
03000000
01C00000
020C0000
001C0000
003C0000
00640000
00C00000
03800000
0F000000
3E000000
78000000
60000000
40000000
FFFFFFE0
FFFFFF80
7FFFFE00
ENDCHAR
STARTCHAR 06D4
ENCODING 1748
SWIDTH 201 0
DWIDTH 7 0
BBX 6 3 1 5
BITMAP
FC
FC
FC
ENDCHAR
STARTCHAR 06D5
ENCODING 1749
SWIDTH 288 0
DWIDTH 10 0
BBX 8 10 1 5
BITMAP
20
38
7E
7F
4F
43
C1
C7
FE
FE
ENDCHAR
STARTCHAR 06D6
ENCODING 1750
SWIDTH 0 0
DWIDTH 0 0
BBX 16 12 -8 19
BITMAP
0C00
0400
0400
0400
040F
0511
0FFF
3FFF
4000
8000
8000
FFF8
ENDCHAR
STARTCHAR 06D7
ENCODING 1751
SWIDTH 0 0
DWIDTH 0 0
BBX 13 13 -6 18
BITMAP
0040
0D40
0500
04C0
0560
04E0
04E0
0FE0
3FE0
4000
8000
8000
FFF8
ENDCHAR
STARTCHAR 06D8
ENCODING 1752
SWIDTH 0 0
DWIDTH 0 0
BBX 8 4 -4 18
BITMAP
06
0A
3D
F7
ENDCHAR
STARTCHAR 06D9
ENCODING 1753
SWIDTH 0 0
DWIDTH 0 0
BBX 8 11 -4 18
BITMAP
02
C3
E3
62
12
0A
0C
04
0C
14
1C
ENDCHAR
STARTCHAR 06DA
ENCODING 1754
SWIDTH 0 0
DWIDTH 0 0
BBX 7 11 -4 18
BITMAP
30
FE
38
40
80
8C
80
80
C0
78
3E
ENDCHAR
STARTCHAR 06DB
ENCODING 1755
SWIDTH 0 0
DWIDTH 0 0
BBX 4 4 -2 18
BITMAP
40
60
30
C0
ENDCHAR
STARTCHAR 06DC
ENCODING 1756
SWIDTH 0 0
DWIDTH 0 0
BBX 14 8 -7 18
BITMAP
0100
0188
4094
80FC
8080
8100
6700
3C00
ENDCHAR
STARTCHAR 06DD
ENCODING 1757
SWIDTH 1123 0
DWIDTH 39 0
BBX 37 38 1 -7
BITMAP
0000FC0000
000FFF8000
01FE03FC00
0230006600
023FFFE200
037FFFF700
0680000B00
0C00000180
18000000C0
38000000E0
3000000060
6000000030
6000000030
6000000030
C000000018
C000000018
C000000018
C000000018
C000000018
C000000018
C000000018
C000000018
C000000018
C000000018
6000000030
6000000030
7000000030
3000000060
18000000C0
1C000000C0
0C00000180
06C0001B00
037FFFF600
023FFFE200
0370007400
00BF8FE800
000FFF8000
0000200000
ENDCHAR
STARTCHAR 06DE
ENCODING 1758
SWIDTH 1094 0
DWIDTH 38 0
BBX 36 35 1 -4
BITMAP
0000600000
0000B00000
0001180000
00020C0000
0004060000
07FFFFFE00
0410018600
042000C600
0440006600
0480003600
0500001E00
0600000E00
0400000600
0C00000700
1401F00780
24011806C0
4403080660
C4020C0630
6403080660
34019806C0
1C00F00780
0C00000700
0600000600
0700000E00
0580001E00
04C0003600
0460006600
043000C600
0418018600
07FFFFFE00
0006060000
00030C0000
0001980000
0000F00000
0000600000
ENDCHAR
STARTCHAR 06DF
ENCODING 1759
SWIDTH 0 0
DWIDTH 0 0
BBX 2 2 -1 19
BITMAP
C0
C0
ENDCHAR
STARTCHAR 06E0
ENCODING 1760
SWIDTH 0 0
DWIDTH 0 0
BBX 2 3 -1 18
BITMAP
C0
C0
C0
ENDCHAR
STARTCHAR 06E1
ENCODING 1761
SWIDTH 0 0
DWIDTH 0 0
BBX 10 5 -5 18
BITMAP
1800
3E00
0700
0180
FFC0
ENDCHAR
STARTCHAR 06E2
ENCODING 1762
SWIDTH 0 0
DWIDTH 0 0
BBX 6 9 -3 18
BITMAP
38
0C
7C
40
80
80
40
40
40
ENDCHAR
STARTCHAR 06E3
ENCODING 1763
SWIDTH 0 0
DWIDTH 0 0
BBX 14 7 -7 -5
BITMAP
0108
4094
80FC
80EC
8100
4300
7E00
ENDCHAR
STARTCHAR 06E4
ENCODING 1764
SWIDTH 0 0
DWIDTH 0 0
BBX 4 1 -2 18
BITMAP
F0
ENDCHAR
STARTCHAR 06E5
ENCODING 1765
SWIDTH 201 0
DWIDTH 7 0
BBX 6 8 1 18
BITMAP
08
1C
14
1C
04
08
18
F0
ENDCHAR
STARTCHAR 06E6
ENCODING 1766
SWIDTH 374 0
DWIDTH 13 0
BBX 12 6 0 19
BITMAP
0600
0A00
3000
C000
8000
FFF0
ENDCHAR
STARTCHAR 06E7
ENCODING 1767
SWIDTH 0 0
DWIDTH 0 0
BBX 12 7 -6 18
BITMAP
0400
0C00
1000
6000
C000
8000
FFF0
ENDCHAR
STARTCHAR 06E8
ENCODING 1768
SWIDTH 0 0
DWIDTH 0 0
BBX 8 10 -4 18
BITMAP
18
00
01
01
81
81
81
81
E6
7C
ENDCHAR
STARTCHAR 06E9
ENCODING 1769
SWIDTH 604 0
DWIDTH 21 0
BBX 19 28 1 0
BITMAP
00C000
00A000
011000
024800
04A400
091200
12C900
252480
4A1240
920B60
491640
251480
151900
0D1A00
0D1A00
0D1A00
0D1A00
0D1A00
0D1A00
0D1A00
0D1A00
0D1A00
0D1A00
0CEA00
140900
27F980
6000C0
FFFFE0
ENDCHAR
STARTCHAR 06EA
ENCODING 1770
SWIDTH 0 0
DWIDTH 0 0
BBX 4 4 -2 -5
BITMAP
60
90
90
60
ENDCHAR
STARTCHAR 06EB
ENCODING 1771
SWIDTH 0 0
DWIDTH 0 0
BBX 6 5 -3 19
BITMAP
30
48
CC
78
20
ENDCHAR
STARTCHAR 06EC
ENCODING 1772
SWIDTH 0 0
DWIDTH 0 0
BBX 2 2 -1 19
BITMAP
C0
C0
ENDCHAR
STARTCHAR 06ED
ENCODING 1773
SWIDTH 0 0
DWIDTH 0 0
BBX 6 9 -3 -6
BITMAP
38
08
3C
60
80
80
40
40
40
ENDCHAR
STARTCHAR 06F0
ENCODING 1776
SWIDTH 518 0
DWIDTH 18 0
BBX 6 7 6 9
BITMAP
20
78
7C
7C
F8
38
18
ENDCHAR
STARTCHAR 06F1
ENCODING 1777
SWIDTH 518 0
DWIDTH 18 0
BBX 6 19 5 6
BITMAP
60
70
F0
78
78
38
1C
1C
0C
0C
0C
04
04
04
04
04
04
04
04
ENDCHAR
STARTCHAR 06F2
ENCODING 1778
SWIDTH 518 0
DWIDTH 18 0
BBX 11 20 3 5
BITMAP
4020
4020
F060
FCE0
7FC0
3FC0
3F80
1C00
0E00
0E00
0E00
0600
0600
0700
0300
0300
0300
0300
0100
0100
ENDCHAR
STARTCHAR 06F3
ENCODING 1779
SWIDTH 518 0
DWIDTH 18 0
BBX 14 20 2 5
BITMAP
4044
4044
60E4
FFFC
FFFC
7F78
3800
3800
1C00
1C00
0C00
0C00
0600
0600
0600
0600
0600
0400
0400
0400
ENDCHAR
STARTCHAR 06F4
ENCODING 1780
SWIDTH 518 0
DWIDTH 18 0
BBX 13 20 3 5
BITMAP
01C0
43E0
C600
E400
F408
7C30
7FF0
3FE0
3FC0
1800
1C00
1C00
0C00
0C00
0C00
0C00
0C00
0800
0800
0800
ENDCHAR
STARTCHAR 06F5
ENCODING 1781
SWIDTH 518 0
DWIDTH 18 0
BBX 12 19 3 6
BITMAP
0400
0600
0600
0F00
0780
03C0
05C0
09E0
10E0
2070
2030
4030
4010
C010
C010
E330
FFE0
FFE0
7DC0
ENDCHAR
STARTCHAR 06F6
ENCODING 1782
SWIDTH 518 0
DWIDTH 18 0
BBX 12 20 3 5
BITMAP
0300
0FC0
1FC0
2000
2000
6010
7DF0
FFF0
7FE0
1F80
0700
0E00
0C00
0C00
1800
1800
1000
1000
1000
1000
ENDCHAR
STARTCHAR 06F7
ENCODING 1783
SWIDTH 518 0
DWIDTH 18 0
BBX 14 19 2 6
BITMAP
4004
600C
E00C
F01C
F01C
7838
3830
1C20
1C60
0E40
0640
0680
0780
0380
0380
0100
0100
0100
0100
ENDCHAR
STARTCHAR 06F8
ENCODING 1784
SWIDTH 518 0
DWIDTH 18 0
BBX 13 18 3 6
BITMAP
0200
0200
0600
0600
0B00
0B00
0B00
0980
1980
11C0
30E0
30F0
60F0
E078
C038
C038
8018
8008
ENDCHAR
STARTCHAR 06F9
ENCODING 1785
SWIDTH 518 0
DWIDTH 18 0
BBX 10 20 4 5
BITMAP
1E00
3E00
7F00
6300
C300
8300
E300
FF00
FF00
7F00
0100
0180
0180
0180
0180
01C0
01C0
01C0
00C0
0080
ENDCHAR
STARTCHAR 06FA
ENCODING 1786
SWIDTH 835 0
DWIDTH 29 0
BBX 28 27 1 -3
BITMAP
00002000
00007800
00007000
00001600
00000700
00007F00
00007200
00007000
00000000
00000000
00000000
00010000
00018260
00038260
20018220
20018210
40008310
4000FFF0
4000FFF0
8000FCF0
80008000
C0008000
C0018000
E0070180
FCFE03C0
7FFC0180
3FF80000
ENDCHAR
STARTCHAR 06FB
ENCODING 1787
SWIDTH 1094 0
DWIDTH 38 0
BBX 37 22 1 -3
BITMAP
0000018000
000003C000
0000018000
0000000000
0000000000
0000000000
00010007E0
0001800FF0
0003803FF8
2001807078
200181C038
4000870038
4000FFFFF8
4000FFFFF8
8000FFFFF8
8000800000
C000800000
C001000000
E007003000
FCFE007800
7FFC003000
3FF8000000
ENDCHAR
STARTCHAR 06FC
ENCODING 1788
SWIDTH 547 0
DWIDTH 19 0
BBX 17 32 1 -6
BITMAP
0E0000
0E0000
060000
000000
000000
000000
040000
3F8000
7FC000
600000
C00000
800000
C01C00
F0F800
7FF000
3FC000
1F0000
1C0000
300000
600000
400000
C06000
807800
80F000
802000
C00000
C00000
E00000
780000
7FFF80
1FFE00
07FC00
ENDCHAR
STARTCHAR 06FD
ENCODING 1789
SWIDTH 403 0
DWIDTH 14 0
BBX 10 19 2 -5
BITMAP
0E00
1F00
3F00
6100
4000
E040
FBC0
7FC0
3E00
3800
2000
0000
1B00
1B00
1B00
1B00
1B00
1B00
1B00
ENDCHAR
STARTCHAR 06FE
ENCODING 1790
SWIDTH 345 0
DWIDTH 12 0
BBX 11 18 1 -7
BITMAP
1F00
1F80
33C0
01C0
07E0
3FE0
7FE0
F000
C000
8000
8D80
8D80
CD80
CD80
4D80
6D80
6D80
2000
ENDCHAR
STARTCHAR 1E80
ENCODING 7808
SWIDTH 950 0
DWIDTH 33 0
BBX 32 32 0 -1
BITMAP
00078000
00038000
00018000
0000C000
00004000
00004000
00000000
00000000
FF9FF03F
1E03C00C
1E03C00C
0E01C008
0E01C008
0F01E018
0700E010
0700E010
0781F030
03817020
03837820
03C33860
01C23840
01E63CC0
01E61CC0
00E41C80
00FC1F80
007C0F80
00780F00
00780F00
00300700
00300600
00300600
00000200
ENDCHAR
STARTCHAR 1E81
ENCODING 7809
SWIDTH 720 0
DWIDTH 25 0
BBX 25 24 0 0
BITMAP
00780000
00380000
00380000
00180000
000C0000
00040000
00000000
00000000
FE7F0F80
783E0700
381C0600
1C0E0400
1C0E0400
1C0E0C00
0E0F0800
0E170800
06131000
07239000
0723B000
03E1E000
03C1E000
01C1E000
0180C000
0180C000
ENDCHAR
STARTCHAR 1E82
ENCODING 7810
SWIDTH 950 0
DWIDTH 33 0
BBX 32 32 0 -1
BITMAP
0000F000
0000E000
0000C000
00018000
00010000
00000000
00000000
00000000
FF9FF03F
1E03C00C
1E03C00C
0E01C008
0E01C008
0F01E018
0700E010
0700E010
0781F030
03817020
03837820
03C33860
01C23840
01E63CC0
01E61CC0
00E41C80
00FC1F80
007C0F80
00780F00
00780F00
00300700
00300600
00300600
00000200
ENDCHAR
STARTCHAR 1E83
ENCODING 7811
SWIDTH 720 0
DWIDTH 25 0
BBX 25 24 0 0
BITMAP
00070000
000E0000
000E0000
000C0000
00180000
00100000
00000000
00000000
FE7F0F80
783E0700
381C0600
1C0E0400
1C0E0400
1C0E0C00
0E0F0800
0E170800
06131000
07239000
0723B000
03E1E000
03C1E000
01C1E000
0180C000
0180C000
ENDCHAR
STARTCHAR 1E84
ENCODING 7812
SWIDTH 950 0
DWIDTH 33 0
BBX 32 30 0 -1
BITMAP
000E3800
000E3800
000E3800
00043000
00000000
00000000
FF9FF03F
1E03C00C
1E03C00C
0E01C008
0E01C008
0F01E018
0700E010
0700E010
0781F030
03817020
03837820
03C33860
01C23840
01E63CC0
01E61CC0
00E41C80
00FC1F80
007C0F80
00780F00
00780F00
00300700
00300600
00300600
00000200
ENDCHAR
STARTCHAR 1E85
ENCODING 7813
SWIDTH 720 0
DWIDTH 25 0
BBX 25 23 0 0
BITMAP
00410000
00E38000
00E38000
00E38000
00000000
00000000
00000000
FE7F0F80
783E0700
381C0600
1C0E0400
1C0E0400
1C0E0C00
0E0F0800
0E170800
06131000
07239000
0723B000
03E1E000
03C1E000
01C1E000
0180C000
0180C000
ENDCHAR
STARTCHAR 1EA0
ENCODING 7840
SWIDTH 720 0
DWIDTH 25 0
BBX 25 30 0 -6
BITMAP
00080000
00080000
001C0000
001C0000
003C0000
003E0000
002E0000
006F0000
00470000
00C78000
00878000
01838000
0183C000
0101C000
0301E000
03FFE000
0600E000
0400F000
0C007000
0C007800
08003800
18003C00
38003C00
FF00FF80
00000000
00000000
00180000
003C0000
003C0000
00180000
ENDCHAR
STARTCHAR 1EA1
ENCODING 7841
SWIDTH 432 0
DWIDTH 15 0
BBX 14 22 1 -6
BITMAP
0F80
38E0
70E0
7070
7070
0070
01F0
0670
1870
7070
6070
E070
E070
F0F4
7F7C
3E78
0000
0000
0600
0F00
0F00
0600
ENDCHAR
STARTCHAR 1EA2
ENCODING 7842
SWIDTH 720 0
DWIDTH 25 0
BBX 25 31 0 0
BITMAP
001C0000
00320000
00120000
00040000
00080000
00080000
00000000
00080000
00080000
001C0000
001C0000
003C0000
003E0000
002E0000
006F0000
00470000
00C78000
00878000
01838000
0183C000
0101C000
0301E000
03FFE000
0600E000
0400F000
0C007000
0C007800
08003800
18003C00
38003C00
FF00FF80
ENDCHAR
STARTCHAR 1EA3
ENCODING 7843
SWIDTH 432 0
DWIDTH 15 0
BBX 14 23 1 0
BITMAP
0780
0480
0080
0100
0200
0000
0000
0F80
38E0
70E0
7070
7070
0070
01F0
0670
1870
7070
6070
E070
E070
F0F4
7F7C
3E78
ENDCHAR
STARTCHAR 1EA4
ENCODING 7844
SWIDTH 720 0
DWIDTH 25 0
BBX 25 31 0 0
BITMAP
000E0000
000C0000
00100000
001C0000
007E0000
00810000
00000000
00080000
00080000
001C0000
001C0000
003C0000
003E0000
002E0000
006F0000
00470000
00C78000
00878000
01838000
0183C000
0101C000
0301E000
03FFE000
0600E000
0400F000
0C007000
0C007800
08003800
18003C00
38003C00
FF00FF80
ENDCHAR
STARTCHAR 1EA5
ENCODING 7845
SWIDTH 432 0
DWIDTH 15 0
BBX 14 31 1 0
BITMAP
01C0
01C0
0380
0300
0200
0400
0000
0000
0780
0F80
08C0
1060
2020
0000
0000
0F80
38E0
70E0
7070
7070
0070
01F0
0670
1870
7070
6070
E070
E070
F0F4
7F7C
3E78
ENDCHAR
STARTCHAR 1EA6
ENCODING 7846
SWIDTH 720 0
DWIDTH 25 0
BBX 25 31 0 0
BITMAP
00700000
00180000
00080000
001C0000
007E0000
00810000
00000000
00080000
00080000
001C0000
001C0000
003C0000
003E0000
002E0000
006F0000
00470000
00C78000
00878000
01838000
0183C000
0101C000
0301E000
03FFE000
0600E000
0400F000
0C007000
0C007800
08003800
18003C00
38003C00
FF00FF80
ENDCHAR
STARTCHAR 1EA7
ENCODING 7847
SWIDTH 432 0
DWIDTH 15 0
BBX 14 31 1 0
BITMAP
1E00
0E00
0600
0300
0100
0000
0000
0000
0780
0F80
08C0
1060
2020
0000
0000
0F80
38E0
70E0
7070
7070
0070
01F0
0670
1870
7070
6070
E070
E070
F0F4
7F7C
3E78
ENDCHAR
STARTCHAR 1EA8
ENCODING 7848
SWIDTH 720 0
DWIDTH 25 0
BBX 25 31 0 0
BITMAP
001C0000
00160000
00080000
001C0000
007E0000
00810000
00000000
00080000
00080000
001C0000
001C0000
003C0000
003E0000
002E0000
006F0000
00470000
00C78000
00878000
01838000
0183C000
0101C000
0301E000
03FFE000
0600E000
0400F000
0C007000
0C007800
08003800
18003C00
38003C00
FF00FF80
ENDCHAR
STARTCHAR 1EA9
ENCODING 7849
SWIDTH 432 0
DWIDTH 15 0
BBX 14 31 1 0
BITMAP
0380
04C0
04C0
0080
0100
0000
0000
0000
0780
0F80
08C0
1060
2020
0000
0000
0F80
38E0
70E0
7070
7070
0070
01F0
0670
1870
7070
6070
E070
E070
F0F4
7F7C
3E78
ENDCHAR
STARTCHAR 1EAA
ENCODING 7850
SWIDTH 720 0
DWIDTH 25 0
BBX 25 31 0 0
BITMAP
00700000
00BF8000
01060000
001C0000
007E0000
00810000
00000000
00080000
00080000
001C0000
001C0000
003C0000
003E0000
002E0000
006F0000
00470000
00C78000
00878000
01838000
0183C000
0101C000
0301E000
03FFE000
0600E000
0400F000
0C007000
0C007800
08003800
18003C00
38003C00
FF00FF80
ENDCHAR
STARTCHAR 1EAB
ENCODING 7851
SWIDTH 432 0
DWIDTH 15 0
BBX 14 30 1 0
BITMAP
0810
3E10
2F90
43E0
41C0
0000
0000
0780
0F80
08C0
1060
2020
0000
0000
0F80
38E0
70E0
7070
7070
0070
01F0
0670
1870
7070
6070
E070
E070
F0F4
7F7C
3E78
ENDCHAR
STARTCHAR 1EAC
ENCODING 7852
SWIDTH 720 0
DWIDTH 25 0
BBX 25 34 0 -6
BITMAP
001C0000
007E0000
00810000
00000000
00080000
00080000
001C0000
001C0000
003C0000
003E0000
002E0000
006F0000
00470000
00C78000
00878000
01838000
0183C000
0101C000
0301E000
03FFE000
0600E000
0400F000
0C007000
0C007800
08003800
18003C00
38003C00
FF00FF80
00000000
00000000
00180000
003C0000
003C0000
00180000
ENDCHAR
STARTCHAR 1EAD
ENCODING 7853
SWIDTH 432 0
DWIDTH 15 0
BBX 14 29 1 -6
BITMAP
0780
0F80
08C0
1060
2020
0000
0000
0F80
38E0
70E0
7070
7070
0070
01F0
0670
1870
7070
6070
E070
E070
F0F4
7F7C
3E78
0000
0000
0600
0F00
0F00
0600
ENDCHAR
STARTCHAR 1EAE
ENCODING 7854
SWIDTH 720 0
DWIDTH 25 0
BBX 25 31 0 0
BITMAP
000E0000
000C0000
00100000
00808000
007F0000
001C0000
00000000
00080000
00080000
001C0000
001C0000
003C0000
003E0000
002E0000
006F0000
00470000
00C78000
00878000
01838000
0183C000
0101C000
0301E000
03FFE000
0600E000
0400F000
0C007000
0C007800
08003800
18003C00
38003C00
FF00FF80
ENDCHAR
STARTCHAR 1EAF
ENCODING 7855
SWIDTH 432 0
DWIDTH 15 0
BBX 14 31 1 0
BITMAP
01C0
0380
0300
0200
0600
0400
0000
0000
2020
3020
1FE0
1FC0
0700
0000
0000
0F80
38E0
70E0
7070
7070
0070
01F0
0670
1870
7070
6070
E070
E070
F0F4
7F7C
3E78
ENDCHAR
STARTCHAR 1EB0
ENCODING 7856
SWIDTH 720 0
DWIDTH 25 0
BBX 25 31 0 0
BITMAP
00700000
00180000
00080000
00808000
007F0000
001C0000
00000000
00080000
00080000
001C0000
001C0000
003C0000
003E0000
002E0000
006F0000
00470000
00C78000
00878000
01838000
0183C000
0101C000
0301E000
03FFE000
0600E000
0400F000
0C007000
0C007800
08003800
18003C00
38003C00
FF00FF80
ENDCHAR
STARTCHAR 1EB1
ENCODING 7857
SWIDTH 432 0
DWIDTH 15 0
BBX 14 31 1 0
BITMAP
1E00
0E00
0600
0300
0100
0000
0000
0000
2020
3020
1FE0
1FC0
0700
0000
0000
0F80
38E0
70E0
7070
7070
0070
01F0
0670
1870
7070
6070
E070
E070
F0F4
7F7C
3E78
ENDCHAR
STARTCHAR 1EB2
ENCODING 7858
SWIDTH 720 0
DWIDTH 25 0
BBX 25 31 0 0
BITMAP
001C0000
00160000
00080000
00808000
007F0000
001C0000
00000000
00080000
00080000
001C0000
001C0000
003C0000
003E0000
002E0000
006F0000
00470000
00C78000
00878000
01838000
0183C000
0101C000
0301E000
03FFE000
0600E000
0400F000
0C007000
0C007800
08003800
18003C00
38003C00
FF00FF80
ENDCHAR
STARTCHAR 1EB3
ENCODING 7859
SWIDTH 432 0
DWIDTH 15 0
BBX 14 31 1 0
BITMAP
0780
0480
0480
0100
0100
0000
0000
0000
2020
3020
1FE0
1FC0
0700
0000
0000
0F80
38E0
70E0
7070
7070
0070
01F0
0670
1870
7070
6070
E070
E070
F0F4
7F7C
3E78
ENDCHAR
STARTCHAR 1EB4
ENCODING 7860
SWIDTH 720 0
DWIDTH 25 0
BBX 25 31 0 0
BITMAP
00700000
00BF8000
01060000
00808000
007F0000
001C0000
00000000
00080000
00080000
001C0000
001C0000
003C0000
003E0000
002E0000
006F0000
00470000
00C78000
00878000
01838000
0183C000
0101C000
0301E000
03FFE000
0600E000
0400F000
0C007000
0C007800
08003800
18003C00
38003C00
FF00FF80
ENDCHAR
STARTCHAR 1EB5
ENCODING 7861
SWIDTH 432 0
DWIDTH 15 0
BBX 14 30 1 0
BITMAP
0810
3E10
2F90
43E0
41C0
0000
0000
2020
3020
1FE0
1FC0
0700
0000
0000
0F80
38E0
70E0
7070
7070
0070
01F0
0670
1870
7070
6070
E070
E070
F0F4
7F7C
3E78
ENDCHAR
STARTCHAR 1EB6
ENCODING 7862
SWIDTH 720 0
DWIDTH 25 0
BBX 25 34 0 -6
BITMAP
00808000
007F0000
001C0000
00000000
00080000
00080000
001C0000
001C0000
003C0000
003E0000
002E0000
006F0000
00470000
00C78000
00878000
01838000
0183C000
0101C000
0301E000
03FFE000
0600E000
0400F000
0C007000
0C007800
08003800
18003C00
38003C00
FF00FF80
00000000
00000000
00180000
003C0000
003C0000
00180000
ENDCHAR
STARTCHAR 1EB7
ENCODING 7863
SWIDTH 432 0
DWIDTH 15 0
BBX 14 29 1 -6
BITMAP
2020
3020
1FE0
1FC0
0700
0000
0000
0F80
38E0
70E0
7070
7070
0070
01F0
0670
1870
7070
6070
E070
E070
F0F4
7F7C
3E78
0000
0000
0600
0F00
0F00
0600
ENDCHAR
STARTCHAR 1EB8
ENCODING 7864
SWIDTH 604 0
DWIDTH 21 0
BBX 19 29 1 -6
BITMAP
FFFF80
1C01C0
1C00C0
1C0040
1C0040
1C0000
1C0000
1C0100
1C0100
1C0300
1FFF00
1FFF00
1C0300
1C0100
1C0100
1C0000
1C0000
1C0000
1C0020
1C0060
1C00C0
1E01C0
FFFFC0
000000
000000
00E000
00E000
00E000
00C000
ENDCHAR
STARTCHAR 1EB9
ENCODING 7865
SWIDTH 432 0
DWIDTH 15 0
BBX 13 22 1 -6
BITMAP
07C0
18F0
3070
6038
6038
7FF8
E000
E000
E000
E000
F008
7008
7818
3E30
3FE0
0FC0
0000
0000
0300
0780
0780
0300
ENDCHAR
STARTCHAR 1EBA
ENCODING 7866
SWIDTH 604 0
DWIDTH 21 0
BBX 19 31 1 0
BITMAP
007000
009800
009800
001000
002000
000000
000000
000000
FFFF80
1C01C0
1C00C0
1C0040
1C0040
1C0000
1C0000
1C0100
1C0100
1C0300
1FFF00
1FFF00
1C0300
1C0100
1C0100
1C0000
1C0000
1C0000
1C0020
1C0060
1C00C0
1E01C0
FFFFC0
ENDCHAR
STARTCHAR 1EBB
ENCODING 7867
SWIDTH 432 0
DWIDTH 15 0
BBX 13 23 1 0
BITMAP
0780
04C0
0080
0100
0100
0000
0000
07C0
18F0
3070
6038
6038
7FF8
E000
E000
E000
E000
F008
7008
7818
3E30
3FE0
0FC0
ENDCHAR
STARTCHAR 1EBC
ENCODING 7868
SWIDTH 604 0
DWIDTH 21 0
BBX 19 29 1 0
BITMAP
03C100
07F100
047E00
043C00
000000
000000
FFFF80
1C01C0
1C00C0
1C0040
1C0040
1C0000
1C0000
1C0100
1C0100
1C0300
1FFF00
1FFF00
1C0300
1C0100
1C0100
1C0000
1C0000
1C0000
1C0020
1C0060
1C00C0
1E01C0
FFFFC0
ENDCHAR
STARTCHAR 1EBD
ENCODING 7869
SWIDTH 432 0
DWIDTH 15 0
BBX 13 23 1 0
BITMAP
1E08
3F10
27F0
41E0
0000
0000
0000
07C0
18F0
3070
6038
6038
7FF8
E000
E000
E000
E000
F008
7008
7818
3E30
3FE0
0FC0
ENDCHAR
STARTCHAR 1EBE
ENCODING 7870
SWIDTH 604 0
DWIDTH 21 0
BBX 19 31 1 0
BITMAP
003C00
003000
000000
007000
00D800
010600
000000
000000
FFFF80
1C01C0
1C00C0
1C0040
1C0040
1C0000
1C0000
1C0100
1C0100
1C0300
1FFF00
1FFF00
1C0300
1C0100
1C0100
1C0000
1C0000
1C0000
1C0020
1C0060
1C00C0
1E01C0
FFFFC0
ENDCHAR
STARTCHAR 1EBF
ENCODING 7871
SWIDTH 432 0
DWIDTH 15 0
BBX 13 31 1 0
BITMAP
01E0
01C0
0180
0100
0300
0200
0000
0000
07C0
07C0
0CE0
0820
1010
0000
0000
07C0
18F0
3070
6038
6038
7FF8
E000
E000
E000
E000
F008
7008
7818
3E30
3FE0
0FC0
ENDCHAR
STARTCHAR 1EC0
ENCODING 7872
SWIDTH 604 0
DWIDTH 21 0
BBX 19 31 1 0
BITMAP
01E000
006000
000000
007000
00D800
010600
000000
000000
FFFF80
1C01C0
1C00C0
1C0040
1C0040
1C0000
1C0000
1C0100
1C0100
1C0300
1FFF00
1FFF00
1C0300
1C0100
1C0100
1C0000
1C0000
1C0000
1C0020
1C0060
1C00C0
1E01C0
FFFFC0
ENDCHAR
STARTCHAR 1EC1
ENCODING 7873
SWIDTH 432 0
DWIDTH 15 0
BBX 13 31 1 0
BITMAP
0E00
0700
0700
0300
0180
0080
0000
0000
07C0
07C0
0CE0
0820
1010
0000
0000
07C0
18F0
3070
6038
6038
7FF8
E000
E000
E000
E000
F008
7008
7818
3E30
3FE0
0FC0
ENDCHAR
STARTCHAR 1EC2
ENCODING 7874
SWIDTH 604 0
DWIDTH 21 0
BBX 19 31 1 0
BITMAP
007800
005800
002000
007000
00D800
010600
000000
000000
FFFF80
1C01C0
1C00C0
1C0040
1C0040
1C0000
1C0000
1C0100
1C0100
1C0300
1FFF00
1FFF00
1C0300
1C0100
1C0100
1C0000
1C0000
1C0000
1C0020
1C0060
1C00C0
1E01C0
FFFFC0
ENDCHAR
STARTCHAR 1EC3
ENCODING 7875
SWIDTH 432 0
DWIDTH 15 0
BBX 13 31 1 0
BITMAP
0380
0640
0240
0080
0100
0100
0000
0000
07C0
07C0
0CE0
0820
1010
0000
0000
07C0
18F0
3070
6038
6038
7FF8
E000
E000
E000
E000
F008
7008
7818
3E30
3FE0
0FC0
ENDCHAR
STARTCHAR 1EC4
ENCODING 7876
SWIDTH 604 0
DWIDTH 21 0
BBX 19 31 1 0
BITMAP
01E100
027E00
001C00
007000
00D800
010600
000000
000000
FFFF80
1C01C0
1C00C0
1C0040
1C0040
1C0000
1C0000
1C0100
1C0100
1C0300
1FFF00
1FFF00
1C0300
1C0100
1C0100
1C0000
1C0000
1C0000
1C0020
1C0060
1C00C0
1E01C0
FFFFC0
ENDCHAR
STARTCHAR 1EC5
ENCODING 7877
SWIDTH 432 0
DWIDTH 15 0
BBX 13 30 1 0
BITMAP
0C08
1F08
3FD0
23F0
00E0
0000
0000
07C0
07C0
0CE0
0820
1010
0000
0000
07C0
18F0
3070
6038
6038
7FF8
E000
E000
E000
E000
F008
7008
7818
3E30
3FE0
0FC0
ENDCHAR
STARTCHAR 1EC6
ENCODING 7878
SWIDTH 604 0
DWIDTH 21 0
BBX 19 34 1 -6
BITMAP
007000
00D800
010600
000000
000000
FFFF80
1C01C0
1C00C0
1C0040
1C0040
1C0000
1C0000
1C0100
1C0100
1C0300
1FFF00
1FFF00
1C0300
1C0100
1C0100
1C0000
1C0000
1C0000
1C0020
1C0060
1C00C0
1E01C0
FFFFC0
000000
000000
00E000
00E000
00E000
00C000
ENDCHAR
STARTCHAR 1EC7
ENCODING 7879
SWIDTH 432 0
DWIDTH 15 0
BBX 13 29 1 -6
BITMAP
07C0
07C0
0CE0
0820
1010
0000
0000
07C0
18F0
3070
6038
6038
7FF8
E000
E000
E000
E000
F008
7008
7818
3E30
3FE0
0FC0
0000
0000
0300
0780
0780
0300
ENDCHAR
STARTCHAR 1EC8
ENCODING 7880
SWIDTH 345 0
DWIDTH 12 0
BBX 10 31 1 0
BITMAP
0E00
1300
1200
0200
0400
0000
0000
0000
FFC0
1E00
1E00
1C00
1C00
1C00
1C00
1C00
1C00
1C00
1C00
1C00
1C00
1C00
1C00
1C00
1C00
1C00
1C00
1C00
1E00
1E00
FFC0
ENDCHAR
STARTCHAR 1EC9
ENCODING 7881
SWIDTH 288 0
DWIDTH 10 0
BBX 8 23 1 0
BITMAP
3C
26
04
08
10
00
00
18
78
38
18
18
18
18
18
18
18
18
18
18
18
3C
FF
ENDCHAR
STARTCHAR 1ECA
ENCODING 7882
SWIDTH 345 0
DWIDTH 12 0
BBX 10 29 1 -6
BITMAP
FFC0
1E00
1E00
1C00
1C00
1C00
1C00
1C00
1C00
1C00
1C00
1C00
1C00
1C00
1C00
1C00
1C00
1C00
1C00
1C00
1E00
1E00
FFC0
0000
0000
0C00
1E00
1E00
0C00
ENDCHAR
STARTCHAR 1ECB
ENCODING 7883
SWIDTH 288 0
DWIDTH 10 0
BBX 8 30 1 -6
BITMAP
18
3C
18
00
00
00
00
00
18
78
38
18
18
18
18
18
18
18
18
18
18
1C
3C
FF
00
00
18
3C
3C
18
ENDCHAR
STARTCHAR 1ECC
ENCODING 7884
SWIDTH 720 0
DWIDTH 25 0
BBX 23 29 1 -5
BITMAP
01FF00
0701C0
0E00E0
1C0070
380078
380038
78003C
70003C
70001C
F0001E
F0001E
F0001E
F0001E
F0001E
70001C
78001C
78003C
380038
3C0038
1C0070
0E00E0
0701C0
01FF00
001000
000000
003800
003800
003800
003000
ENDCHAR
STARTCHAR 1ECD
ENCODING 7885
SWIDTH 489 0
DWIDTH 17 0
BBX 15 22 1 -6
BITMAP
07C0
1C70
3038
301C
701C
600E
E00E
E00E
E00E
F00E
F00E
700C
780C
3818
1C38
0FE0
0000
0000
0380
0380
0380
0180
ENDCHAR
STARTCHAR 1ECE
ENCODING 7886
SWIDTH 720 0
DWIDTH 25 0
BBX 23 32 1 -1
BITMAP
003C00
006400
002400
000800
001000
001000
000000
000000
01FF00
0701C0
0E00E0
1C0070
380078
380038
78003C
70003C
70001C
F0001E
F0001E
F0001E
F0001E
F0001E
70001C
78001C
78003C
380038
3C0038
1C0070
0E00E0
0701C0
01FF00
001000
ENDCHAR
STARTCHAR 1ECF
ENCODING 7887
SWIDTH 489 0
DWIDTH 17 0
BBX 15 23 1 0
BITMAP
03C0
0240
0040
0080
0100
0000
0000
07C0
1C70
3038
301C
701C
600E
E00E
E00E
E00E
F00E
F00E
700C
780C
3818
1C38
0FE0
ENDCHAR
STARTCHAR 1ED0
ENCODING 7888
SWIDTH 720 0
DWIDTH 25 0
BBX 23 32 1 -1
BITMAP
001E00
001800
000000
003800
006E00
008100
000000
000000
01FF00
0701C0
0E00E0
1C0070
380078
380038
78003C
70003C
70001C
F0001E
F0001E
F0001E
F0001E
F0001E
70001C
78001C
78003C
380038
3C0038
1C0070
0E00E0
0701C0
01FF00
001000
ENDCHAR
STARTCHAR 1ED1
ENCODING 7889
SWIDTH 489 0
DWIDTH 17 0
BBX 15 31 1 0
BITMAP
00F0
00E0
01C0
0180
0100
0200
0000
0000
03C0
07E0
0460
0830
1010
0000
0000
07C0
1C70
3038
301C
701C
600E
E00E
E00E
E00E
F00E
F00E
700C
780C
3818
1C38
0FE0
ENDCHAR
STARTCHAR 1ED2
ENCODING 7890
SWIDTH 720 0
DWIDTH 25 0
BBX 23 32 1 -1
BITMAP
007000
001800
000800
003800
006E00
008100
000000
000000
01FF00
0701C0
0E00E0
1C0070
380078
380038
78003C
70003C
70001C
F0001E
F0001E
F0001E
F0001E
F0001E
70001C
78001C
78003C
380038
3C0038
1C0070
0E00E0
0701C0
01FF00
001000
ENDCHAR
STARTCHAR 1ED3
ENCODING 7891
SWIDTH 489 0
DWIDTH 17 0
BBX 15 31 1 0
BITMAP
0F00
0700
0300
0180
0080
0000
0000
0000
03C0
07E0
0460
0830
1010
0000
0000
07C0
1C70
3038
301C
701C
600E
E00E
E00E
E00E
F00E
F00E
700C
780C
3818
1C38
0FE0
ENDCHAR
STARTCHAR 1ED4
ENCODING 7892
SWIDTH 720 0
DWIDTH 25 0
BBX 23 32 1 -1
BITMAP
003C00
002400
000800
003800
006E00
008100
000000
000000
01FF00
0701C0
0E00E0
1C0070
380078
380038
78003C
70003C
70001C
F0001E
F0001E
F0001E
F0001E
F0001E
70001C
78001C
78003C
380038
3C0038
1C0070
0E00E0
0701C0
01FF00
001000
ENDCHAR
STARTCHAR 1ED5
ENCODING 7893
SWIDTH 489 0
DWIDTH 17 0
BBX 15 31 1 0
BITMAP
01C0
0260
0260
0040
0080
0000
0000
0000
03C0
07E0
0460
0830
1010
0000
0000
07C0
1C70
3038
301C
701C
600E
E00E
E00E
E00E
F00E
F00E
700C
780C
3818
1C38
0FE0
ENDCHAR
STARTCHAR 1ED6
ENCODING 7894
SWIDTH 720 0
DWIDTH 25 0
BBX 23 32 1 -1
BITMAP
00F080
013F00
000E00
003800
006E00
008100
000000
000000
01FF00
0701C0
0E00E0
1C0070
380078
380038
78003C
70003C
70001C
F0001E
F0001E
F0001E
F0001E
F0001E
70001C
78001C
78003C
380038
3C0038
1C0070
0E00E0
0701C0
01FF00
001000
ENDCHAR
STARTCHAR 1ED7
ENCODING 7895
SWIDTH 489 0
DWIDTH 17 0
BBX 15 30 1 0
BITMAP
0600
1F88
17E8
21F8
0060
0000
0000
03C0
07E0
0460
0830
1010
0000
0000
07C0
1C70
3038
301C
701C
600E
E00E
E00E
E00E
F00E
F00E
700C
780C
3818
1C38
0FE0
ENDCHAR
STARTCHAR 1ED8
ENCODING 7896
SWIDTH 720 0
DWIDTH 25 0
BBX 23 34 1 -6
BITMAP
003800
006E00
008100
000000
000000
01FF00
0701C0
0E00E0
1C0070
380078
380038
78003C
70003C
70001C
F0001E
F0001E
F0001E
F0001E
F0001E
70001C
78001C
78003C
380038
3C0038
1C0070
0E00E0
0701C0
01FF00
001000
000000
003800
003800
003800
003000
ENDCHAR
STARTCHAR 1ED9
ENCODING 7897
SWIDTH 489 0
DWIDTH 17 0
BBX 15 29 1 -6
BITMAP
03C0
07E0
0460
0830
1010
0000
0000
07C0
1C70
3038
301C
701C
600E
E00E
E00E
E00E
F00E
F00E
700C
780C
3818
1C38
0FE0
0000
0000
0380
0380
0380
0180
ENDCHAR
STARTCHAR 1EDA
ENCODING 7898
SWIDTH 720 0
DWIDTH 25 0
BBX 23 31 1 -1
BITMAP
000780
000600
000E00
000C00
000818
00001C
00101C
01FF98
0701E0
0E00E0
1C0070
380078
380038
78003C
70003C
70001C
F0001E
F0001E
F0001E
F0001E
F0001E
70001C
78001C
78003C
380038
3C0038
1C0070
0E00E0
0701C0
01FF00
001000
ENDCHAR
STARTCHAR 1EDB
ENCODING 7899
SWIDTH 518 0
DWIDTH 18 0
BBX 17 24 1 0
BITMAP
00F000
00E000
00C000
01C000
018000
010000
000000
000000
07C380
1C7380
303980
301F00
701C00
600E00
E00E00
E00E00
E00E00
F00E00
F00E00
700C00
780C00
381800
1C3800
0FE000
ENDCHAR
STARTCHAR 1EDC
ENCODING 7900
SWIDTH 720 0
DWIDTH 25 0
BBX 23 31 1 -1
BITMAP
007000
003000
001800
001800
000818
00001C
00101C
01FF98
0701E0
0E00E0
1C0070
380078
380038
78003C
70003C
70001C
F0001E
F0001E
F0001E
F0001E
F0001E
70001C
78001C
78003C
380038
3C0038
1C0070
0E00E0
0701C0
01FF00
001000
ENDCHAR
STARTCHAR 1EDD
ENCODING 7901
SWIDTH 518 0
DWIDTH 18 0
BBX 17 24 1 0
BITMAP
0F0000
070000
070000
030000
018000
008000
000000
000000
07C380
1C7380
303980
301F00
701C00
600E00
E00E00
E00E00
E00E00
F00E00
F00E00
700C00
780C00
381800
1C3800
0FE000
ENDCHAR
STARTCHAR 1EDE
ENCODING 7902
SWIDTH 720 0
DWIDTH 25 0
BBX 23 32 1 -1
BITMAP
001E00
001200
001200
000600
000400
000018
00001C
00101C
01FF98
0701E0
0E00E0
1C0070
380078
380038
78003C
70003C
70001C
F0001E
F0001E
F0001E
F0001E
F0001E
70001C
78001C
78003C
380038
3C0038
1C0070
0E00E0
0701C0
01FF00
001000
ENDCHAR
STARTCHAR 1EDF
ENCODING 7903
SWIDTH 518 0
DWIDTH 18 0
BBX 17 23 1 0
BITMAP
03C000
024000
004000
008000
010000
000000
000000
07C380
1C7380
303980
301F00
701C00
600E00
E00E00
E00E00
E00E00
F00E00
F00E00
700C00
780C00
381800
1C3800
0FE000
ENDCHAR
STARTCHAR 1EE0
ENCODING 7904
SWIDTH 720 0
DWIDTH 25 0
BBX 23 30 1 -1
BITMAP
00F840
00FC40
011F80
010F98
00001C
00101C
01FF98
0701E0
0E00E0
1C0070
380078
380038
78003C
70003C
70001C
F0001E
F0001E
F0001E
F0001E
F0001E
70001C
78001C
78003C
380038
3C0038
1C0070
0E00E0
0701C0
01FF00
001000
ENDCHAR
STARTCHAR 1EE1
ENCODING 7905
SWIDTH 518 0
DWIDTH 18 0
BBX 17 23 1 0
BITMAP
0E0000
1F8800
13F800
21F000
000000
000000
000000
07C380
1C7380
303980
301F00
701C00
600E00
E00E00
E00E00
E00E00
F00E00
F00E00
700C00
780C00
381800
1C3800
0FE000
ENDCHAR
STARTCHAR 1EE2
ENCODING 7906
SWIDTH 720 0
DWIDTH 25 0
BBX 23 32 1 -6
BITMAP
000018
00001C
00101C
01FF98
0701E0
0E00E0
1C0070
380078
380038
78003C
70003C
70001C
F0001E
F0001E
F0001E
F0001E
F0001E
70001C
78001C
78003C
380038
3C0038
1C0070
0E00E0
0701C0
01FF00
001000
000000
001C00
001C00
001C00
001800
ENDCHAR
STARTCHAR 1EE3
ENCODING 7907
SWIDTH 518 0
DWIDTH 18 0
BBX 17 22 1 -5
BITMAP
07C380
1C7380
303980
301F00
701C00
600E00
E00E00
E00E00
E00E00
F00E00
F00E00
700C00
780C00
381800
1C3800
0FE000
000000
000000
038000
038000
038000
018000
ENDCHAR
STARTCHAR 1EE4
ENCODING 7908
SWIDTH 720 0
DWIDTH 25 0
BBX 25 29 0 -6
BITMAP
FFC07F80
1E001C00
1E000C00
1E000800
0E000800
0E000800
0E000800
0E000800
0E000800
0E000800
0E000800
0E000800
0E000800
0E000800
0E000800
0E000800
0E000800
0E000800
0E001800
0F001000
07003000
03C0E000
01FF8000
00080000
00000000
00180000
003C0000
003C0000
00180000
ENDCHAR
STARTCHAR 1EE5
ENCODING 7909
SWIDTH 489 0
DWIDTH 17 0
BBX 17 22 0 -6
BITMAP
F87E00
381E00
180E00
180E00
180E00
180E00
180E00
180E00
180E00
180E00
180E00
1C0E00
1C0E00
1C3E00
1FEF80
0F8E00
000000
000000
018000
03C000
03C000
018000
ENDCHAR
ENDFONT
